G04*
G04 #@! TF.GenerationSoftware,Altium Limited,Altium Designer,20.0.10 (225)*
G04*
G04 Layer_Color=65535*
%FSLAX25Y25*%
%MOIN*%
G70*
G01*
G75*
%ADD10C,0.01575*%
%ADD11C,0.00984*%
%ADD12C,0.01000*%
%ADD13C,0.00787*%
%ADD14C,0.00500*%
D10*
X54100Y45390D02*
G03*
X54100Y45390I-98J0D01*
G01*
X75786Y34606D02*
G03*
X75786Y34606I-197J0D01*
G01*
D11*
X12974Y51726D02*
G03*
X12974Y51726I-492J0D01*
G01*
D12*
X47122Y85720D02*
Y85735D01*
X31374Y83783D02*
X47122D01*
X31374D02*
Y94609D01*
X47122D01*
Y83783D02*
Y94609D01*
X33830Y83783D02*
X47122D01*
X31593Y17913D02*
X44884D01*
X31593Y7087D02*
Y17913D01*
Y7087D02*
X47341D01*
Y17913D01*
X31593D02*
X47341D01*
X31593Y15961D02*
Y15976D01*
X41240Y-32382D02*
X43339D01*
X42289Y-31333D02*
Y-33432D01*
X107010Y69709D02*
X104911D01*
X105961Y68660D02*
Y70759D01*
X84551Y117484D02*
X86035Y115999D01*
Y117484D02*
X84551Y115999D01*
X66643Y107915D02*
X68128Y106431D01*
Y107915D02*
X66643Y106431D01*
X-416Y94662D02*
X1069Y96146D01*
X-416D02*
X1069Y94662D01*
X-10095Y112697D02*
X-8611Y114181D01*
X-10095D02*
X-8611Y112697D01*
X36202Y134841D02*
X38301D01*
X37252Y135890D02*
Y133791D01*
X-27921Y65593D02*
X-25822D01*
X-26871Y66643D02*
Y64544D01*
X47004Y-11952D02*
X49103D01*
X48054Y-10903D02*
Y-13002D01*
X84884Y76135D02*
X86983D01*
X85933Y77184D02*
Y75085D01*
X30788Y115009D02*
X32888D01*
X31838Y116059D02*
Y113960D01*
X-8717Y60508D02*
X-6618D01*
X-7668Y61558D02*
Y59459D01*
X-2095Y40389D02*
X-3603Y38591D01*
X-1260Y38463D01*
X-2142Y35220D02*
X747Y36473D01*
X-1324Y37291D01*
X-489Y35365D01*
X-1516Y33776D02*
X-1034Y33985D01*
X-825Y33503D01*
X-1307Y33295D01*
X-1516Y33776D01*
X1935Y32413D02*
X2626Y32140D01*
X3043Y31177D01*
X2771Y30487D01*
X2289Y30278D01*
X1599Y30551D01*
X1390Y31032D01*
X1599Y30551D01*
X1326Y29860D01*
X845Y29652D01*
X155Y29924D01*
X-263Y30887D01*
X10Y31578D01*
X59298Y7085D02*
X61397D01*
X60347Y8134D02*
Y6035D01*
X15829Y13182D02*
X17929D01*
X12385Y18890D02*
X14484D01*
X13434Y19940D02*
Y17841D01*
X9825Y25288D02*
Y22139D01*
X11400D01*
X11925Y22664D01*
Y24763D01*
X11400Y25288D01*
X9825D01*
X71226Y28247D02*
X73081Y26392D01*
X73823D01*
X74566Y27134D01*
X74566Y27876D01*
X72710Y29732D01*
X73823Y30103D02*
X73823Y30845D01*
X74566Y31587D01*
X75308D01*
X75679Y31216D01*
Y30474D01*
X75308Y30103D01*
X75679Y30474D01*
X76421Y30474D01*
X76792Y30103D01*
X76792Y29361D01*
X76050Y28618D01*
X75308D01*
X46545Y35374D02*
Y38523D01*
X48120D01*
X48644Y37998D01*
Y36948D01*
X48120Y36424D01*
X46545D01*
X47595D02*
X48644Y35374D01*
X49694D02*
X50743D01*
X50218D01*
Y38523D01*
X49694Y37998D01*
X53892Y35374D02*
Y38523D01*
X52318Y36948D01*
X54417D01*
X66889Y47123D02*
X64663Y49349D01*
X65776Y50463D01*
X66518D01*
X67260Y49720D01*
X67260Y48978D01*
X66147Y47865D01*
X66889Y48607D02*
X68374D01*
X69116Y49349D02*
X69858Y50092D01*
X69487Y49720D01*
X67260Y51947D01*
X67260Y51205D01*
X69116Y53060D02*
X69116Y53802D01*
X69858Y54544D01*
X70600D01*
X70971Y54173D01*
Y53431D01*
X70600Y53060D01*
X70971Y53431D01*
X71713D01*
X72084Y53060D01*
X72084Y52318D01*
X71342Y51576D01*
X70600D01*
X75823Y49046D02*
X78050Y46819D01*
X79534Y48304D01*
X78421Y50901D02*
X78421Y51643D01*
X79163Y52385D01*
X79905D01*
X80276Y52014D01*
Y51272D01*
X79905Y50901D01*
X80276Y51272D01*
X81018Y51272D01*
X81389Y50901D01*
X81389Y50159D01*
X80647Y49417D01*
X79905D01*
X67632Y21855D02*
X66890D01*
X66148Y21113D01*
X66148Y20371D01*
X67632Y18887D01*
X68374D01*
X69116Y19629D01*
X69116Y20371D01*
X68003Y22968D02*
X69487Y24453D01*
X69858Y24081D01*
Y21113D01*
X70229Y20742D01*
X51273Y33090D02*
X50748Y33615D01*
X49699D01*
X49174Y33090D01*
Y30991D01*
X49699Y30466D01*
X50748D01*
X51273Y30991D01*
X54422Y33615D02*
X52323D01*
Y32040D01*
X53372Y32565D01*
X53897D01*
X54422Y32040D01*
Y30991D01*
X53897Y30466D01*
X52847D01*
X52323Y30991D01*
X63038Y54162D02*
X62296D01*
X61554Y53420D01*
X61554Y52678D01*
X63038Y51193D01*
X63781D01*
X64523Y51935D01*
X64523Y52678D01*
X66749Y54162D02*
X64523Y56388D01*
X64523Y54162D01*
X66007Y55646D01*
X61981Y68950D02*
X65130D01*
Y67376D01*
X64605Y66851D01*
X63556D01*
X63031Y67376D01*
Y68950D01*
Y67901D02*
X61981Y66851D01*
X65130Y63703D02*
Y65802D01*
X63556D01*
X64081Y64752D01*
Y64227D01*
X63556Y63703D01*
X62506D01*
X61981Y64227D01*
Y65277D01*
X62506Y65802D01*
X65136Y79457D02*
Y82606D01*
X66711D01*
X67235Y82081D01*
Y81031D01*
X66711Y80507D01*
X65136D01*
X66186D02*
X67235Y79457D01*
X69859D02*
Y82606D01*
X68285Y81031D01*
X70384D01*
X28636Y96588D02*
Y99737D01*
X30210D01*
X30735Y99212D01*
Y98163D01*
X30210Y97638D01*
X28636D01*
X29685D02*
X30735Y96588D01*
X31784Y99212D02*
X32309Y99737D01*
X33359D01*
X33883Y99212D01*
Y98687D01*
X33359Y98163D01*
X32834D01*
X33359D01*
X33883Y97638D01*
Y97113D01*
X33359Y96588D01*
X32309D01*
X31784Y97113D01*
X22816Y85272D02*
Y88421D01*
X24390D01*
X24915Y87896D01*
Y86847D01*
X24390Y86322D01*
X22816D01*
X23866D02*
X24915Y85272D01*
X28064D02*
X25965D01*
X28064Y87371D01*
Y87896D01*
X27539Y88421D01*
X26489D01*
X25965Y87896D01*
X14417Y66082D02*
X17566D01*
Y64507D01*
X17041Y63982D01*
X15991D01*
X15467Y64507D01*
Y66082D01*
Y65032D02*
X14417Y63982D01*
Y62933D02*
Y61883D01*
Y62408D01*
X17566D01*
X17041Y62933D01*
X46413Y55514D02*
X48513D01*
X47463D01*
Y52366D01*
X51136D02*
Y55514D01*
X49562Y53940D01*
X51661D01*
X50063Y78694D02*
Y81843D01*
X51637D01*
X52162Y81318D01*
Y80269D01*
X51637Y79744D01*
X50063D01*
X51112D02*
X52162Y78694D01*
X53211Y81318D02*
X53736Y81843D01*
X54786D01*
X55310Y81318D01*
Y80793D01*
X54786Y80269D01*
X55310Y79744D01*
Y79219D01*
X54786Y78694D01*
X53736D01*
X53211Y79219D01*
Y79744D01*
X53736Y80269D01*
X53211Y80793D01*
Y81318D01*
X53736Y80269D02*
X54786D01*
X24637Y20760D02*
X25162Y21285D01*
Y22335D01*
X24637Y22859D01*
X22538D01*
X22014Y22335D01*
Y21285D01*
X22538Y20760D01*
X25162Y17612D02*
X24637Y18661D01*
X23588Y19711D01*
X22538D01*
X22014Y19186D01*
Y18136D01*
X22538Y17612D01*
X23063D01*
X23588Y18136D01*
Y19711D01*
X52687Y98247D02*
X53211Y98772D01*
Y99822D01*
X52687Y100346D01*
X50587D01*
X50063Y99822D01*
Y98772D01*
X50587Y98247D01*
X50063Y95099D02*
Y97198D01*
X52162Y95099D01*
X52687D01*
X53211Y95623D01*
Y96673D01*
X52687Y97198D01*
X22014Y58418D02*
Y55794D01*
X22538Y55269D01*
X23588D01*
X24113Y55794D01*
Y58418D01*
X26736Y55269D02*
Y58418D01*
X25162Y56844D01*
X27261D01*
D13*
X31426Y86300D02*
X33830Y83783D01*
X44884Y17913D02*
X47288Y15396D01*
X35801Y-32467D02*
X38065D01*
X42008Y-22208D02*
X44537Y-11024D01*
X34411D02*
X36434Y-22107D01*
X105074Y65309D02*
X107239D01*
X84447Y62093D02*
X96248Y64920D01*
X84447Y73052D02*
X96187Y70409D01*
X68044Y103957D02*
X77772Y110232D01*
X75674Y96394D02*
X81969Y106432D01*
X87821Y114362D02*
X89422Y112761D01*
X78006Y95819D02*
X79606Y94218D01*
X11681Y106025D02*
X13282Y107625D01*
X-6862Y115840D02*
X-5261Y117440D01*
X1068Y109988D02*
X11106Y103693D01*
X-2732Y105791D02*
X3543Y96063D01*
X41388Y134843D02*
X43652D01*
X41929Y124705D02*
X44647Y113602D01*
X41908Y124705D02*
X41929D01*
X34707Y113602D02*
X37402Y124705D01*
X-28150Y69994D02*
X-25984D01*
X-16897Y65936D02*
X-4955Y63101D01*
Y72404D02*
X-4921Y72441D01*
X-16917Y70562D02*
X-4955Y72404D01*
X62714Y35232D02*
X67029Y39547D01*
X68908Y29038D02*
X73223Y33353D01*
X30138Y-12444D02*
X32402D01*
X55426Y33606D02*
X59433D01*
X62715Y36888D01*
X15041Y50545D02*
Y52316D01*
X16812D01*
X30788D02*
X32560D01*
Y50545D02*
Y52316D01*
Y34797D02*
Y36568D01*
X30788Y34797D02*
X32560D01*
X15041D02*
Y36568D01*
Y34797D02*
X16812D01*
X43468Y77415D02*
X45830D01*
Y57730D02*
Y77415D01*
X43468Y57730D02*
X45830D01*
X32838Y77415D02*
X35201D01*
X32838Y57730D02*
Y77415D01*
Y57730D02*
X35201D01*
X19234Y6141D02*
X21400D01*
X-8448Y75348D02*
X-6282D01*
X85740Y59589D02*
X87737D01*
X47602Y115315D02*
X49866D01*
D14*
X40082Y45251D02*
X41196Y46364D01*
X44537Y49705D02*
X45650Y50819D01*
X46207Y39126D02*
X51775Y44694D01*
M02*
