G04*
G04 #@! TF.GenerationSoftware,Altium Limited,Altium Designer,20.0.10 (225)*
G04*
G04 Layer_Physical_Order=4*
G04 Layer_Color=16711680*
%FSLAX25Y25*%
%MOIN*%
G70*
G01*
G75*
%ADD10C,0.01575*%
%ADD12C,0.00787*%
%ADD13C,0.01000*%
%ADD16C,0.06299*%
G04:AMPARAMS|DCode=21|XSize=90.55mil|YSize=90.55mil|CornerRadius=22.64mil|HoleSize=0mil|Usage=FLASHONLY|Rotation=90.000|XOffset=0mil|YOffset=0mil|HoleType=Round|Shape=RoundedRectangle|*
%AMROUNDEDRECTD21*
21,1,0.09055,0.04528,0,0,90.0*
21,1,0.04528,0.09055,0,0,90.0*
1,1,0.04528,0.02264,0.02264*
1,1,0.04528,0.02264,-0.02264*
1,1,0.04528,-0.02264,-0.02264*
1,1,0.04528,-0.02264,0.02264*
%
%ADD21ROUNDEDRECTD21*%
%ADD22C,0.09055*%
G04:AMPARAMS|DCode=23|XSize=90.55mil|YSize=90.55mil|CornerRadius=22.64mil|HoleSize=0mil|Usage=FLASHONLY|Rotation=45.000|XOffset=0mil|YOffset=0mil|HoleType=Round|Shape=RoundedRectangle|*
%AMROUNDEDRECTD23*
21,1,0.09055,0.04528,0,0,45.0*
21,1,0.04528,0.09055,0,0,45.0*
1,1,0.04528,0.03202,0.00000*
1,1,0.04528,0.00000,-0.03202*
1,1,0.04528,-0.03202,0.00000*
1,1,0.04528,0.00000,0.03202*
%
%ADD23ROUNDEDRECTD23*%
G04:AMPARAMS|DCode=24|XSize=90.55mil|YSize=90.55mil|CornerRadius=22.64mil|HoleSize=0mil|Usage=FLASHONLY|Rotation=0.000|XOffset=0mil|YOffset=0mil|HoleType=Round|Shape=RoundedRectangle|*
%AMROUNDEDRECTD24*
21,1,0.09055,0.04528,0,0,0.0*
21,1,0.04528,0.09055,0,0,0.0*
1,1,0.04528,0.02264,-0.02264*
1,1,0.04528,-0.02264,-0.02264*
1,1,0.04528,-0.02264,0.02264*
1,1,0.04528,0.02264,0.02264*
%
%ADD24ROUNDEDRECTD24*%
G04:AMPARAMS|DCode=25|XSize=90.55mil|YSize=90.55mil|CornerRadius=22.64mil|HoleSize=0mil|Usage=FLASHONLY|Rotation=315.000|XOffset=0mil|YOffset=0mil|HoleType=Round|Shape=RoundedRectangle|*
%AMROUNDEDRECTD25*
21,1,0.09055,0.04528,0,0,315.0*
21,1,0.04528,0.09055,0,0,315.0*
1,1,0.04528,0.00000,-0.03202*
1,1,0.04528,-0.03202,0.00000*
1,1,0.04528,0.00000,0.03202*
1,1,0.04528,0.03202,0.00000*
%
%ADD25ROUNDEDRECTD25*%
%ADD26C,0.03150*%
%ADD29R,0.02362X0.02756*%
%ADD30R,0.02756X0.02362*%
%ADD56C,0.01968*%
%ADD57C,0.01378*%
%ADD58C,0.00591*%
%ADD59C,0.01968*%
%ADD60C,0.07874*%
%ADD61C,0.03937*%
%ADD62C,0.02756*%
%ADD63C,0.04724*%
G04:AMPARAMS|DCode=64|XSize=27.56mil|YSize=22.44mil|CornerRadius=0mil|HoleSize=0mil|Usage=FLASHONLY|Rotation=45.000|XOffset=0mil|YOffset=0mil|HoleType=Round|Shape=Rectangle|*
%AMROTATEDRECTD64*
4,1,4,-0.00181,-0.01768,-0.01768,-0.00181,0.00181,0.01768,0.01768,0.00181,-0.00181,-0.01768,0.0*
%
%ADD64ROTATEDRECTD64*%

G04:AMPARAMS|DCode=65|XSize=18.5mil|YSize=13.78mil|CornerRadius=0mil|HoleSize=0mil|Usage=FLASHONLY|Rotation=225.000|XOffset=0mil|YOffset=0mil|HoleType=Round|Shape=Rectangle|*
%AMROTATEDRECTD65*
4,1,4,0.00167,0.01141,0.01141,0.00167,-0.00167,-0.01141,-0.01141,-0.00167,0.00167,0.01141,0.0*
%
%ADD65ROTATEDRECTD65*%

%ADD66R,0.01850X0.01378*%
%ADD67R,0.02756X0.02244*%
%ADD68R,0.02244X0.02756*%
%ADD69R,0.01378X0.01850*%
%ADD70R,0.01968X0.02756*%
%ADD71R,0.02756X0.01968*%
%ADD72R,0.09252X0.06221*%
%ADD73R,0.01024X0.03307*%
G04:AMPARAMS|DCode=74|XSize=23.62mil|YSize=31.5mil|CornerRadius=0mil|HoleSize=0mil|Usage=FLASHONLY|Rotation=315.000|XOffset=0mil|YOffset=0mil|HoleType=Round|Shape=Rectangle|*
%AMROTATEDRECTD74*
4,1,4,-0.01949,-0.00278,0.00278,0.01949,0.01949,0.00278,-0.00278,-0.01949,-0.01949,-0.00278,0.0*
%
%ADD74ROTATEDRECTD74*%

%ADD75R,0.00906X0.02756*%
%ADD76R,0.00591X0.02362*%
%ADD77R,0.00591X0.01575*%
%ADD78R,0.02362X0.00591*%
%ADD79R,0.01575X0.00591*%
G36*
X67527Y44147D02*
X67527Y40899D01*
X67133Y40505D01*
X65941Y39314D01*
X59836D01*
X58068Y39038D01*
X56995Y39801D01*
X56995Y43647D01*
X60495D01*
X61374Y44344D01*
X67330D01*
X67527Y44147D01*
D02*
G37*
G36*
X81460Y65013D02*
Y49716D01*
X76244Y45230D01*
X72209D01*
X71716Y64226D01*
X73052Y65801D01*
X80034D01*
X81460Y65013D01*
D02*
G37*
G36*
X65558Y62540D02*
X66444Y60289D01*
X67428Y57976D01*
Y52366D01*
X67330Y52267D01*
X64475D01*
X64278Y52464D01*
Y59206D01*
X63368Y59994D01*
Y62503D01*
X63700Y62836D01*
X65263D01*
X65558Y62540D01*
D02*
G37*
D10*
X5269Y80958D02*
X7792D01*
X8678Y81844D02*
X11339D01*
X7792Y80958D02*
X8678Y81844D01*
D12*
X71759Y67572D02*
X80747D01*
D13*
X16025Y68164D02*
X16621D01*
X13898Y70291D02*
X16025Y68164D01*
X13898Y70291D02*
Y74482D01*
X40656Y33025D02*
Y38104D01*
X40825Y28863D02*
X44729D01*
X40656Y28694D02*
X40825Y28863D01*
X52169Y32828D02*
X56036D01*
X44729Y32800D02*
X48528D01*
X44945Y33016D02*
Y39423D01*
X44729Y32800D02*
X44945Y33016D01*
X48685Y35486D02*
X51454D01*
X52169Y34771D01*
Y32828D02*
Y34771D01*
X46913Y37258D02*
X48685Y35486D01*
X24908Y28202D02*
X31027D01*
X36690Y22539D01*
Y20554D02*
Y22539D01*
X36719Y20129D02*
Y20524D01*
X36690Y20554D02*
X36719Y20524D01*
X46913Y37258D02*
Y39423D01*
X56036Y32828D02*
X58964Y29901D01*
X41500Y66588D02*
X46482D01*
X24908D02*
X41500D01*
X42779Y67867D01*
Y86382D02*
X47255Y90857D01*
X42779Y67867D02*
Y86382D01*
X52643Y96243D02*
X54992Y98592D01*
X52461Y96063D02*
Y96330D01*
X54992Y98592D02*
Y101505D01*
X58521Y105034D01*
X66309D01*
X81006Y90338D01*
Y80663D02*
Y90338D01*
X13898Y81844D02*
Y84239D01*
X12999Y85138D02*
X13898Y84239D01*
X12999Y85138D02*
Y85272D01*
X48844Y64226D02*
X57119D01*
X46482Y66588D02*
X48844Y64226D01*
X64482D02*
X64670Y64037D01*
X65485D01*
X65492Y64029D01*
X68215D01*
X71759Y67572D01*
X83797Y70623D02*
Y77871D01*
X80747Y67572D02*
X83797Y70623D01*
X28353Y7139D02*
X33091D01*
X50204Y50446D02*
X50302Y50348D01*
X46815Y50446D02*
X50204D01*
X11199Y20441D02*
Y30832D01*
X15853Y35486D01*
X60557Y80663D02*
X81006D01*
X83797Y77871D01*
X50949Y37258D02*
X53606Y39915D01*
X49374Y37258D02*
X50949D01*
X48882Y37750D02*
X49374Y37258D01*
X48882Y37750D02*
Y39423D01*
X51834Y41687D02*
X53606Y39915D01*
X51834Y41687D02*
Y47100D01*
X51599Y47335D02*
X51834Y47100D01*
X49510Y47335D02*
X51599D01*
X48882Y46706D02*
X49510Y47335D01*
X48882Y44935D02*
Y46706D01*
X42878Y48183D02*
Y50446D01*
Y48183D02*
X44945Y46116D01*
Y44935D02*
Y46116D01*
X46815Y50446D02*
X46913Y50348D01*
Y44935D02*
Y50348D01*
X31897Y56296D02*
Y63832D01*
X30673Y55072D02*
X31897Y56296D01*
X30673Y32379D02*
Y55072D01*
Y32379D02*
X35440Y27612D01*
X27720Y57294D02*
X29534Y59108D01*
X27720Y31493D02*
Y57294D01*
Y31493D02*
X28747Y30466D01*
X46482Y66588D02*
X60557Y80663D01*
X22448Y64127D02*
X24908Y66588D01*
X70509Y36273D02*
X72668Y38432D01*
X65952Y36175D02*
X68731Y38954D01*
X72668Y38432D02*
Y42654D01*
X68731Y38954D02*
Y42654D01*
Y53954D02*
Y58934D01*
X69101Y59305D02*
X69298D01*
X68731Y58934D02*
X69101Y59305D01*
X20578Y37651D02*
Y39029D01*
X19298Y40309D02*
X20578Y39029D01*
X19298Y40309D02*
Y47887D01*
X20479Y49068D01*
Y59403D01*
X9751Y47789D02*
Y54249D01*
X16775Y61273D01*
X18609D01*
X20479Y59403D01*
X20578Y27120D02*
Y33714D01*
X23826Y29285D02*
X24908Y28202D01*
X23826Y29285D02*
Y59206D01*
X22448Y60584D02*
X23826Y59206D01*
X20578Y27120D02*
X25893Y21805D01*
X16838Y30860D02*
X20578Y27120D01*
X22448Y60584D02*
Y64127D01*
X15853Y35486D02*
Y56400D01*
X17773Y58320D01*
X25893Y12764D02*
Y21805D01*
Y12764D02*
X28353Y7139D01*
X16641Y30860D02*
X16838D01*
D16*
X63224Y13762D02*
D03*
X57600Y8138D02*
D03*
D21*
X2071Y73255D02*
D03*
X77154Y61864D02*
D03*
D22*
X2071Y62034D02*
D03*
X8668Y90606D02*
D03*
X34061Y106465D02*
D03*
X62476Y98540D02*
D03*
X33790Y4315D02*
D03*
X77154Y73084D02*
D03*
X2071Y73255D02*
D03*
X16602Y98540D02*
D03*
X45282Y106465D02*
D03*
X70410Y90606D02*
D03*
X45010Y4315D02*
D03*
X77154Y61864D02*
D03*
D23*
X16602Y98540D02*
D03*
D24*
X45282Y106465D02*
D03*
X45010Y4315D02*
D03*
D25*
X70410Y90606D02*
D03*
D26*
X57600Y8138D02*
D03*
X63224Y13762D02*
D03*
X37366Y35289D02*
D03*
D29*
X46815Y55269D02*
D03*
X42878D02*
D03*
X46815Y50446D02*
D03*
X42878D02*
D03*
D30*
X70509Y36273D02*
D03*
Y32336D02*
D03*
X65952Y36175D02*
D03*
Y32238D02*
D03*
X20578Y33714D02*
D03*
Y37651D02*
D03*
X44729Y28863D02*
D03*
Y32800D02*
D03*
X48528D02*
D03*
Y28863D02*
D03*
X58964Y42474D02*
D03*
Y46411D02*
D03*
X52169Y28891D02*
D03*
Y32828D02*
D03*
D56*
X24785Y70033D02*
X29141D01*
X50302Y54187D02*
X54154D01*
X49416Y55073D02*
X50302Y54187D01*
X46815Y55269D02*
X47011Y55073D01*
X49416D01*
X45942Y25306D02*
X47313D01*
X48497Y28863D02*
X48528D01*
X48300Y28666D02*
X48497Y28863D01*
X48300Y26293D02*
Y28666D01*
X47313Y25306D02*
X48300Y26293D01*
X52154Y28877D02*
X52169Y28891D01*
X48542Y28877D02*
X52154D01*
X48528Y28863D02*
X48542Y28877D01*
X58964Y46411D02*
Y51234D01*
X57487Y52710D02*
X58964Y51234D01*
X58767Y42671D02*
X58964Y42474D01*
X57600Y42671D02*
X58767D01*
X57590Y42680D02*
X57600Y42671D01*
X55307Y42680D02*
X57590D01*
X54154Y43834D02*
X55307Y42680D01*
X54154Y43834D02*
Y49856D01*
X58964Y29901D02*
Y42474D01*
Y26324D02*
Y29901D01*
X57600Y24961D02*
X58964Y26324D01*
X57600Y8138D02*
Y24961D01*
X61435Y97217D02*
X62234Y98017D01*
X59661Y97217D02*
X61435D01*
X31024Y71917D02*
Y75250D01*
X63224Y13762D02*
Y23143D01*
X42878Y50446D02*
Y55269D01*
X63224Y23143D02*
X65952Y25871D01*
X29141Y70033D02*
X31024Y71917D01*
X65952Y25871D02*
Y32238D01*
X70410D01*
D57*
X55367Y57966D02*
X58928D01*
X20651Y70033D02*
X20848D01*
X19430D02*
X20651D01*
X18622Y70840D02*
X19430Y70033D01*
X18622Y70840D02*
Y72651D01*
X29987Y12454D02*
Y22185D01*
X30794Y22992D02*
X33353D01*
X29987Y22185D02*
X30794Y22992D01*
X34160Y20129D02*
Y22185D01*
X33353Y22992D02*
X34160Y22185D01*
X54008Y59325D02*
Y60860D01*
Y59325D02*
X55367Y57966D01*
X54815Y61667D02*
X57119D01*
X54008Y60860D02*
X54815Y61667D01*
X64482Y66785D02*
Y70820D01*
X54008Y69887D02*
X58682Y74561D01*
X75685Y74553D02*
X77154Y73084D01*
X72516Y74553D02*
X75685D01*
X72509Y74561D02*
X72516Y74553D01*
X58682Y74561D02*
X72509D01*
X52341Y86373D02*
X56306Y90338D01*
X49145Y86373D02*
X52341D01*
X48338Y87180D02*
X49145Y86373D01*
X48338Y87180D02*
Y88321D01*
X49064Y89048D01*
X50651Y97873D02*
X52643Y99864D01*
Y104482D01*
X16457Y81844D02*
Y86803D01*
X8668Y90606D02*
X9959Y89314D01*
X13946D01*
X16457Y86803D01*
X18622Y72651D02*
X21312Y75341D01*
Y79457D01*
X24064Y82209D01*
X16457Y73458D02*
Y74482D01*
Y73458D02*
X17264Y72651D01*
X18622D01*
X34160Y4686D02*
Y12766D01*
X33790Y4315D02*
X34160Y4686D01*
X54008Y67592D02*
Y69887D01*
X54815Y66785D02*
X57119D01*
X54008Y67592D02*
X54815Y66785D01*
X54270Y94253D02*
X57231Y97215D01*
X61151D01*
X62476Y98540D01*
X34061Y94239D02*
Y106465D01*
X38484Y89816D02*
X42595D01*
X34061Y94239D02*
X38484Y89816D01*
X42595D02*
X45445Y92667D01*
X34061Y106465D02*
X35530Y104996D01*
X2071Y62034D02*
X2553D01*
X11339Y70820D01*
Y74482D01*
D58*
X22029Y70033D02*
X23604D01*
X54154Y51234D02*
Y52809D01*
X40656Y30072D02*
Y31647D01*
D59*
X58928Y57966D02*
D03*
X16621Y68164D02*
D03*
X21635Y45722D02*
D03*
X25966D02*
D03*
X21635Y41391D02*
D03*
X25966D02*
D03*
X35440Y27612D02*
D03*
X45942Y25306D02*
D03*
X40656Y38104D02*
D03*
X29987Y12454D02*
D03*
X64482Y70820D02*
D03*
X56306Y90338D02*
D03*
X47352Y84087D02*
D03*
X52643Y104482D02*
D03*
X12999Y85272D02*
D03*
X21312Y79457D02*
D03*
X5269Y80958D02*
D03*
X9948Y42572D02*
D03*
X50302Y50348D02*
D03*
X53747Y84305D02*
D03*
X50007Y58025D02*
D03*
X57487Y52710D02*
D03*
X29534Y59108D02*
D03*
X28747Y30466D02*
D03*
X31897Y63832D02*
D03*
X69298Y59305D02*
D03*
X29141Y70033D02*
D03*
X35145Y80958D02*
D03*
X20578Y27120D02*
D03*
X17773Y58320D02*
D03*
X16641Y30860D02*
D03*
X9751Y47789D02*
D03*
X28747Y25840D02*
D03*
D60*
X2071Y62034D02*
D03*
X8668Y90606D02*
D03*
X34061Y106465D02*
D03*
X62476Y98540D02*
D03*
X33790Y4315D02*
D03*
X77154Y73084D02*
D03*
D61*
X17217Y12454D02*
D03*
X14208Y16447D02*
D03*
X11199Y20441D02*
D03*
D62*
X53606Y39915D02*
D03*
D63*
X22448Y64127D02*
D03*
D64*
X48466Y94852D02*
D03*
X51250Y92068D02*
D03*
D65*
X54270Y94253D02*
D03*
X52461Y96063D02*
D03*
X50651Y97873D02*
D03*
X45445Y92667D02*
D03*
X47255Y90857D02*
D03*
X49064Y89048D02*
D03*
D66*
X64482Y66785D02*
D03*
Y64226D02*
D03*
Y61667D02*
D03*
X57119D02*
D03*
Y64226D02*
D03*
Y66785D02*
D03*
D67*
X60800Y66194D02*
D03*
Y62257D02*
D03*
D68*
X38688Y16447D02*
D03*
X34751D02*
D03*
X15867Y78163D02*
D03*
X11930D02*
D03*
D69*
X34160Y12766D02*
D03*
X36719D02*
D03*
X39278D02*
D03*
Y20129D02*
D03*
X36719D02*
D03*
X34160D02*
D03*
X16457Y74482D02*
D03*
X13898D02*
D03*
X11339D02*
D03*
Y81844D02*
D03*
X13898D02*
D03*
X16457D02*
D03*
D70*
X24982Y70033D02*
D03*
X20651D02*
D03*
D71*
X54154Y49856D02*
D03*
Y54187D02*
D03*
X40656Y28694D02*
D03*
Y33025D02*
D03*
D72*
X68731Y48304D02*
D03*
D73*
X64794Y42654D02*
D03*
X66762D02*
D03*
X68731D02*
D03*
X70699D02*
D03*
X72668D02*
D03*
Y53954D02*
D03*
X70699D02*
D03*
X68731D02*
D03*
X66762D02*
D03*
X64794D02*
D03*
D74*
X31024Y75250D02*
D03*
X24064Y82209D02*
D03*
D75*
X48882Y39423D02*
D03*
X46913D02*
D03*
X44945D02*
D03*
X48882Y44935D02*
D03*
X46913D02*
D03*
X44945D02*
D03*
D76*
X23997Y70033D02*
D03*
X21635D02*
D03*
D77*
X23603D02*
D03*
X22029D02*
D03*
D78*
X54154Y50840D02*
D03*
X54154Y53202D02*
D03*
X40656Y29679D02*
D03*
X40656Y32041D02*
D03*
D79*
X54154Y51234D02*
D03*
X54154Y52808D02*
D03*
X40656Y30073D02*
D03*
X40656Y31647D02*
D03*
M02*
