G04*
G04 #@! TF.GenerationSoftware,Altium Limited,Altium Designer,20.0.10 (225)*
G04*
G04 Layer_Color=8388736*
%FSLAX25Y25*%
%MOIN*%
G70*
G01*
G75*
%ADD33R,0.03950X0.07100*%
%ADD34R,0.03200X0.02200*%
%ADD35C,0.07099*%
%ADD36R,0.04737X0.01784*%
%ADD37R,0.01784X0.04737*%
%ADD38R,0.11036X0.11036*%
%ADD39R,0.06312X0.04540*%
G04:AMPARAMS|DCode=40|XSize=98.55mil|YSize=98.55mil|CornerRadius=26.64mil|HoleSize=0mil|Usage=FLASHONLY|Rotation=90.000|XOffset=0mil|YOffset=0mil|HoleType=Round|Shape=RoundedRectangle|*
%AMROUNDEDRECTD40*
21,1,0.09855,0.04528,0,0,90.0*
21,1,0.04528,0.09855,0,0,90.0*
1,1,0.05328,0.02264,0.02264*
1,1,0.05328,0.02264,-0.02264*
1,1,0.05328,-0.02264,-0.02264*
1,1,0.05328,-0.02264,0.02264*
%
%ADD40ROUNDEDRECTD40*%
%ADD41C,0.09855*%
G04:AMPARAMS|DCode=42|XSize=98.55mil|YSize=98.55mil|CornerRadius=26.64mil|HoleSize=0mil|Usage=FLASHONLY|Rotation=45.000|XOffset=0mil|YOffset=0mil|HoleType=Round|Shape=RoundedRectangle|*
%AMROUNDEDRECTD42*
21,1,0.09855,0.04528,0,0,45.0*
21,1,0.04528,0.09855,0,0,45.0*
1,1,0.05328,0.03202,0.00000*
1,1,0.05328,0.00000,-0.03202*
1,1,0.05328,-0.03202,0.00000*
1,1,0.05328,0.00000,0.03202*
%
%ADD42ROUNDEDRECTD42*%
G04:AMPARAMS|DCode=43|XSize=98.55mil|YSize=98.55mil|CornerRadius=26.64mil|HoleSize=0mil|Usage=FLASHONLY|Rotation=0.000|XOffset=0mil|YOffset=0mil|HoleType=Round|Shape=RoundedRectangle|*
%AMROUNDEDRECTD43*
21,1,0.09855,0.04528,0,0,0.0*
21,1,0.04528,0.09855,0,0,0.0*
1,1,0.05328,0.02264,-0.02264*
1,1,0.05328,-0.02264,-0.02264*
1,1,0.05328,-0.02264,0.02264*
1,1,0.05328,0.02264,0.02264*
%
%ADD43ROUNDEDRECTD43*%
G04:AMPARAMS|DCode=44|XSize=98.55mil|YSize=98.55mil|CornerRadius=26.64mil|HoleSize=0mil|Usage=FLASHONLY|Rotation=315.000|XOffset=0mil|YOffset=0mil|HoleType=Round|Shape=RoundedRectangle|*
%AMROUNDEDRECTD44*
21,1,0.09855,0.04528,0,0,315.0*
21,1,0.04528,0.09855,0,0,315.0*
1,1,0.05328,0.00000,-0.03202*
1,1,0.05328,-0.03202,0.00000*
1,1,0.05328,0.00000,0.03202*
1,1,0.05328,0.03202,0.00000*
%
%ADD44ROUNDEDRECTD44*%
%ADD45C,0.03950*%
%ADD46R,0.04737X0.03162*%
%ADD47R,0.04600X0.03900*%
%ADD48R,0.03162X0.03556*%
%ADD49R,0.03556X0.03162*%
G04:AMPARAMS|DCode=50|XSize=31.62mil|YSize=35.56mil|CornerRadius=0mil|HoleSize=0mil|Usage=FLASHONLY|Rotation=45.000|XOffset=0mil|YOffset=0mil|HoleType=Round|Shape=Rectangle|*
%AMROTATEDRECTD50*
4,1,4,0.00139,-0.02375,-0.02375,0.00139,-0.00139,0.02375,0.02375,-0.00139,0.00139,-0.02375,0.0*
%
%ADD50ROTATEDRECTD50*%

G04:AMPARAMS|DCode=51|XSize=31.62mil|YSize=35.56mil|CornerRadius=0mil|HoleSize=0mil|Usage=FLASHONLY|Rotation=315.000|XOffset=0mil|YOffset=0mil|HoleType=Round|Shape=Rectangle|*
%AMROTATEDRECTD51*
4,1,4,-0.02375,-0.00139,0.00139,0.02375,0.02375,0.00139,-0.00139,-0.02375,-0.02375,-0.00139,0.0*
%
%ADD51ROTATEDRECTD51*%

%ADD52C,0.02769*%
%ADD53C,0.08674*%
%ADD54C,0.04737*%
%ADD55C,0.05524*%
D33*
X61227Y36470D02*
D03*
D34*
X57127Y33870D02*
D03*
Y36470D02*
D03*
Y39070D02*
D03*
X65327D02*
D03*
Y36470D02*
D03*
Y33870D02*
D03*
D35*
X63224Y13762D02*
D03*
X57600Y8138D02*
D03*
D36*
X16025Y48478D02*
D03*
Y46509D02*
D03*
Y44541D02*
D03*
Y42572D02*
D03*
Y40604D02*
D03*
Y38635D02*
D03*
X31576D02*
D03*
Y40604D02*
D03*
Y42572D02*
D03*
Y44541D02*
D03*
Y46509D02*
D03*
Y48478D02*
D03*
D37*
X18879Y35781D02*
D03*
X20848D02*
D03*
X22816D02*
D03*
X24785D02*
D03*
X26753D02*
D03*
X28722D02*
D03*
Y51332D02*
D03*
X26753D02*
D03*
X24785D02*
D03*
X22816D02*
D03*
X20848D02*
D03*
X18879D02*
D03*
D38*
X23800Y43557D02*
D03*
D39*
X39531Y59305D02*
D03*
Y75643D02*
D03*
D40*
X2071Y73255D02*
D03*
X77154Y61864D02*
D03*
D41*
X2071Y62034D02*
D03*
X8668Y90606D02*
D03*
X34061Y106465D02*
D03*
X62476Y98540D02*
D03*
X33790Y4315D02*
D03*
X77154Y73084D02*
D03*
X2071Y73255D02*
D03*
X16602Y98540D02*
D03*
X45282Y106465D02*
D03*
X70410Y90606D02*
D03*
X45010Y4315D02*
D03*
X77154Y61864D02*
D03*
D42*
X16602Y98540D02*
D03*
D43*
X45282Y106465D02*
D03*
X45010Y4315D02*
D03*
D44*
X70410Y90606D02*
D03*
D45*
X17217Y12454D02*
D03*
X14208Y16447D02*
D03*
X11199Y20441D02*
D03*
X57600Y8138D02*
D03*
X63224Y13762D02*
D03*
X37366Y35289D02*
D03*
D46*
X35311Y91854D02*
D03*
Y86735D02*
D03*
X43185Y91854D02*
D03*
Y86735D02*
D03*
X43303Y16391D02*
D03*
Y21509D02*
D03*
X35429Y16391D02*
D03*
Y21509D02*
D03*
D47*
X69846Y36273D02*
D03*
X69845Y42719D02*
D03*
D48*
X47251Y80436D02*
D03*
X43314D02*
D03*
X37563Y98239D02*
D03*
X41500D02*
D03*
X65164Y47887D02*
D03*
X61227D02*
D03*
Y52218D02*
D03*
X65164D02*
D03*
X61227Y43557D02*
D03*
X65164D02*
D03*
D49*
X11199Y61791D02*
D03*
Y65728D02*
D03*
X68215Y67966D02*
D03*
Y64029D02*
D03*
X56897Y48281D02*
D03*
Y44344D02*
D03*
X48038Y38817D02*
D03*
Y42754D02*
D03*
X51286Y87848D02*
D03*
Y91785D02*
D03*
X28159Y20195D02*
D03*
Y16258D02*
D03*
X53023Y32533D02*
D03*
Y36470D02*
D03*
D50*
X19186Y89214D02*
D03*
X21970Y91998D02*
D03*
D51*
X59835Y87567D02*
D03*
X62619Y84783D02*
D03*
D52*
X16621Y68164D02*
D03*
X21635Y45722D02*
D03*
X25966D02*
D03*
X21635Y41391D02*
D03*
X25966D02*
D03*
X29987Y12454D02*
D03*
X64482Y70820D02*
D03*
X56306Y90338D02*
D03*
X52643Y104482D02*
D03*
X12999Y85272D02*
D03*
X21312Y79457D02*
D03*
X5269Y80958D02*
D03*
X9948Y42572D02*
D03*
X53747Y84305D02*
D03*
X50007Y58025D02*
D03*
X29534Y59108D02*
D03*
X28747Y30466D02*
D03*
X31897Y63832D02*
D03*
X69298Y59305D02*
D03*
X29141Y70033D02*
D03*
X35145Y80958D02*
D03*
X17773Y58320D02*
D03*
X16641Y30860D02*
D03*
X9751Y47789D02*
D03*
D53*
X2071Y62034D02*
D03*
X8668Y90606D02*
D03*
X34061Y106465D02*
D03*
X62476Y98540D02*
D03*
X33790Y4315D02*
D03*
X77154Y73084D02*
D03*
D54*
X17217Y12454D02*
D03*
X14208Y16447D02*
D03*
X11199Y20441D02*
D03*
D55*
X22448Y64127D02*
D03*
M02*
