G04*
G04 #@! TF.GenerationSoftware,Altium Limited,Altium Designer,20.0.10 (225)*
G04*
G04 Layer_Physical_Order=3*
G04 Layer_Color=16440176*
%FSLAX25Y25*%
%MOIN*%
G70*
G01*
G75*
%ADD15C,0.07874*%
%ADD18C,0.09055*%
%ADD31C,0.03150*%
%ADD67C,0.01968*%
%ADD68C,0.02756*%
%ADD69C,0.03937*%
%ADD70C,0.04724*%
G36*
X46468Y136619D02*
X47378Y136243D01*
X48197Y135695D01*
X48893Y134999D01*
X49441Y134180D01*
X49817Y133270D01*
X50010Y132304D01*
Y131812D01*
Y118032D01*
X51185Y117781D01*
X53510Y117166D01*
X55802Y116439D01*
X58056Y115602D01*
X60267Y114656D01*
X62430Y113605D01*
X64539Y112450D01*
X66589Y111194D01*
X67583Y110517D01*
Y110517D01*
X77327Y120261D01*
X77675Y120609D01*
X78494Y121156D01*
X79404Y121533D01*
X80370Y121725D01*
X81355D01*
X82321Y121533D01*
X83231Y121156D01*
X84049Y120609D01*
X84398Y120261D01*
X84398D01*
X88272Y116386D01*
X92495Y112164D01*
X93042Y111345D01*
X93419Y110435D01*
X93611Y109469D01*
Y108484D01*
X93419Y107518D01*
X93042Y106608D01*
X92495Y105789D01*
X92146Y105441D01*
X92146Y105441D01*
Y105441D01*
X82403Y95697D01*
X83090Y94722D01*
X84341Y92690D01*
X85463Y90583D01*
X86452Y88411D01*
X87304Y86182D01*
X88015Y83904D01*
X88583Y81586D01*
X89006Y79237D01*
X89144Y78053D01*
X89142Y78052D01*
X89571Y78052D01*
X89630Y78052D01*
X102922D01*
X103414Y78052D01*
X104380Y77859D01*
X105290Y77483D01*
X106109Y76935D01*
X106806Y76239D01*
X107353Y75420D01*
X107730Y74510D01*
X107922Y73544D01*
X107922Y67572D01*
X107922Y62093D01*
X107922Y61601D01*
X107730Y60635D01*
X107353Y59725D01*
X106806Y58906D01*
X106109Y58209D01*
X105290Y57662D01*
X104380Y57285D01*
X103414Y57093D01*
X89143D01*
X88829Y54465D01*
X87955Y49244D01*
X86834Y44071D01*
X85471Y38956D01*
X83867Y33911D01*
X82026Y28949D01*
X79952Y24078D01*
X77651Y19311D01*
X75127Y14658D01*
X72386Y10130D01*
X69433Y5736D01*
X66277Y1487D01*
X62923Y-2608D01*
X59378Y-6540D01*
X55652Y-10300D01*
X51753Y-13880D01*
X49721Y-15575D01*
Y-29353D01*
Y-29846D01*
X49529Y-30812D01*
X49152Y-31722D01*
X48605Y-32541D01*
X47908Y-33237D01*
X47089Y-33784D01*
X46179Y-34161D01*
X45213Y-34353D01*
X44721D01*
Y-34353D01*
X39241Y-34353D01*
X33270Y-34353D01*
X32304Y-34161D01*
X31394Y-33784D01*
X30575Y-33237D01*
X29879Y-32541D01*
X29331Y-31722D01*
X28954Y-30812D01*
X28762Y-29846D01*
Y-29353D01*
X28762D01*
Y-15575D01*
X26778Y-13845D01*
X22971Y-10208D01*
X19332Y-6402D01*
X15870Y-2435D01*
X12591Y1685D01*
X9502Y5949D01*
X8458Y7537D01*
X8837Y7791D01*
X9315Y8507D01*
X9483Y9352D01*
X9315Y10197D01*
X8837Y10913D01*
X8120Y11391D01*
X7276Y11559D01*
X6431Y11391D01*
X6417Y11382D01*
X5929Y11493D01*
X3919Y14876D01*
X3391Y15864D01*
X3928Y16223D01*
X4406Y16939D01*
X4574Y17784D01*
X4406Y18629D01*
X3928Y19345D01*
X3212Y19824D01*
X2367Y19992D01*
X1522Y19824D01*
X1257Y19896D01*
X-833Y24271D01*
X-2884Y29120D01*
X-4714Y34058D01*
X-6318Y39073D01*
X-7693Y44156D01*
X-8837Y49296D01*
X-9746Y54482D01*
X-10083Y57093D01*
X-24353D01*
X-25319Y57285D01*
X-26229Y57662D01*
X-27048Y58210D01*
X-27744Y58906D01*
X-28291Y59725D01*
X-28668Y60635D01*
X-28861Y61601D01*
Y62093D01*
X-28861D01*
X-28861Y67572D01*
X-28861Y73544D01*
X-28668Y74510D01*
X-28291Y75420D01*
X-27744Y76239D01*
X-27048Y76935D01*
X-26229Y77483D01*
X-25319Y77860D01*
X-24353Y78052D01*
X-23860D01*
Y78052D01*
X-10083Y78052D01*
X-9945Y79237D01*
X-9522Y81586D01*
X-8954Y83904D01*
X-8242Y86182D01*
X-7391Y88411D01*
X-6402Y90583D01*
X-5280Y92690D01*
X-4029Y94722D01*
X-3341Y95697D01*
Y95697D01*
X-13085Y105441D01*
X-13433Y105789D01*
X-13980Y106608D01*
X-14357Y107518D01*
X-14549Y108484D01*
Y109469D01*
X-14357Y110435D01*
X-13980Y111345D01*
X-13433Y112164D01*
X-13085Y112512D01*
X-13085D01*
X-9211Y116386D01*
X-4988Y120609D01*
X-4169Y121156D01*
X-3259Y121533D01*
X-2293Y121725D01*
X-1308D01*
X-342Y121533D01*
X568Y121156D01*
X1387Y120609D01*
X1735Y120261D01*
X11479Y110517D01*
X12472Y111194D01*
X14523Y112450D01*
X16632Y113605D01*
X18794Y114656D01*
X21005Y115602D01*
X23259Y116439D01*
X25552Y117166D01*
X27876Y117781D01*
X29052Y118032D01*
Y131812D01*
Y132304D01*
X29244Y133270D01*
X29621Y134180D01*
X30168Y134999D01*
X30865Y135695D01*
X31684Y136243D01*
X32594Y136619D01*
X33560Y136812D01*
X45502D01*
X46468Y136619D01*
D02*
G37*
%LPC*%
G36*
X42381Y133514D02*
X36681D01*
X36644Y133499D01*
X36605Y133509D01*
X36171Y133457D01*
X36101Y133418D01*
X36021Y133421D01*
X35202Y133112D01*
X35144Y133057D01*
X35065Y133040D01*
X34344Y132544D01*
X34301Y132477D01*
X34229Y132442D01*
X33647Y131787D01*
X33621Y131712D01*
X33559Y131661D01*
X33152Y130886D01*
X33144Y130806D01*
X33097Y130742D01*
X32886Y129892D01*
X32898Y129813D01*
X32867Y129739D01*
X32866Y128864D01*
X32897Y128790D01*
X32885Y128711D01*
X33093Y127861D01*
X33141Y127796D01*
X33148Y127716D01*
X33554Y126941D01*
X33615Y126890D01*
X33641Y126814D01*
X34221Y126158D01*
X34293Y126123D01*
X34337Y126056D01*
X35057Y125558D01*
X35135Y125541D01*
X35193Y125486D01*
X36011Y125175D01*
X36091Y125178D01*
X36161Y125138D01*
X36595Y125085D01*
X36635Y125096D01*
X36673Y125080D01*
X42389D01*
X42427Y125096D01*
X42467Y125085D01*
X42901Y125138D01*
X42971Y125178D01*
X43051Y125175D01*
X43869Y125486D01*
X43927Y125541D01*
X44006Y125558D01*
X44726Y126056D01*
X44769Y126123D01*
X44841Y126158D01*
X45421Y126814D01*
X45447Y126890D01*
X45508Y126941D01*
X45914Y127716D01*
X45922Y127796D01*
X45969Y127861D01*
X46178Y128711D01*
X46165Y128790D01*
X46196Y128864D01*
X46195Y129739D01*
X46164Y129813D01*
X46176Y129892D01*
X45966Y130742D01*
X45918Y130806D01*
X45911Y130886D01*
X45503Y131661D01*
X45441Y131712D01*
X45415Y131787D01*
X44834Y132442D01*
X44762Y132477D01*
X44718Y132544D01*
X43997Y133040D01*
X43919Y133057D01*
X43860Y133112D01*
X43041Y133421D01*
X42961Y133418D01*
X42892Y133457D01*
X42457Y133509D01*
X42418Y133499D01*
X42381Y133514D01*
D02*
G37*
G36*
X-2362Y117047D02*
X-2438Y117021D01*
X-2516Y117038D01*
X-3377Y116881D01*
X-3444Y116837D01*
X-3524Y116835D01*
X-4323Y116476D01*
X-4378Y116418D01*
X-4455Y116397D01*
X-4800Y116127D01*
X-4820Y116091D01*
X-4858Y116076D01*
X-8900Y112033D01*
X-8916Y111995D01*
X-8951Y111975D01*
X-9221Y111630D01*
X-9242Y111553D01*
X-9301Y111498D01*
X-9659Y110700D01*
X-9662Y110620D01*
X-9705Y110553D01*
X-9862Y109692D01*
X-9845Y109613D01*
X-9871Y109538D01*
X-9818Y108664D01*
X-9782Y108592D01*
X-9790Y108512D01*
X-9528Y107677D01*
X-9477Y107615D01*
X-9465Y107536D01*
X-9011Y106788D01*
X-8947Y106740D01*
X-8916Y106666D01*
X-8296Y106048D01*
X-8222Y106018D01*
X-8175Y105953D01*
X-7425Y105501D01*
X-7346Y105489D01*
X-7284Y105438D01*
X-6448Y105179D01*
X-6369Y105186D01*
X-6297Y105151D01*
X-5423Y105100D01*
X-5347Y105126D01*
X-5269Y105109D01*
X-4408Y105268D01*
X-4341Y105312D01*
X-4261Y105314D01*
X-3463Y105675D01*
X-3409Y105733D01*
X-3331Y105755D01*
X-2987Y106025D01*
X-2968Y106060D01*
X-2930Y106076D01*
X-2930Y106076D01*
X1100Y110106D01*
X1115Y110143D01*
X1150Y110163D01*
X1421Y110507D01*
X1443Y110584D01*
X1501Y110639D01*
X1861Y111437D01*
X1864Y111517D01*
X1908Y111584D01*
X2067Y112445D01*
X2050Y112523D01*
X2076Y112599D01*
X2025Y113472D01*
X1990Y113544D01*
X1997Y113624D01*
X1738Y114460D01*
X1687Y114522D01*
X1674Y114601D01*
X1223Y115351D01*
X1158Y115398D01*
X1128Y115472D01*
X509Y116092D01*
X435Y116122D01*
X388Y116187D01*
X-360Y116641D01*
X-440Y116653D01*
X-501Y116704D01*
X-1337Y116965D01*
X-1416Y116958D01*
X-1488Y116993D01*
X-2362Y117047D01*
D02*
G37*
G36*
X81423Y117047D02*
X80550Y116993D01*
X80478Y116958D01*
X80398Y116965D01*
X79562Y116704D01*
X79501Y116653D01*
X79422Y116641D01*
X78673Y116187D01*
X78626Y116122D01*
X78552Y116092D01*
X77934Y115472D01*
X77903Y115398D01*
X77839Y115351D01*
X77387Y114601D01*
X77375Y114522D01*
X77324Y114460D01*
X77065Y113624D01*
X77072Y113544D01*
X77037Y113472D01*
X76985Y112599D01*
X77012Y112523D01*
X76995Y112445D01*
X77154Y111584D01*
X77197Y111517D01*
X77200Y111437D01*
X77561Y110639D01*
X77619Y110584D01*
X77641Y110507D01*
X77911Y110163D01*
X77946Y110143D01*
X77962Y110106D01*
X77962Y110106D01*
X81992Y106076D01*
X82029Y106060D01*
X82049Y106025D01*
X82393Y105755D01*
X82470Y105733D01*
X82525Y105675D01*
X83323Y105314D01*
X83403Y105312D01*
X83470Y105268D01*
X84330Y105109D01*
X84409Y105126D01*
X84484Y105100D01*
X85358Y105151D01*
X85430Y105186D01*
X85510Y105179D01*
X86346Y105438D01*
X86408Y105489D01*
X86487Y105501D01*
X87236Y105953D01*
X87284Y106018D01*
X87358Y106048D01*
X87977Y106666D01*
X88008Y106740D01*
X88073Y106788D01*
X88526Y107536D01*
X88539Y107615D01*
X88590Y107677D01*
X88851Y108512D01*
X88844Y108592D01*
X88879Y108664D01*
X88933Y109538D01*
X88907Y109613D01*
X88924Y109692D01*
X88766Y110553D01*
X88723Y110620D01*
X88721Y110700D01*
X88362Y111498D01*
X88304Y111553D01*
X88282Y111630D01*
X88013Y111975D01*
X87977Y111995D01*
X87961Y112033D01*
X83919Y116076D01*
X83881Y116091D01*
X83861Y116127D01*
X83516Y116397D01*
X83439Y116418D01*
X83384Y116476D01*
X82586Y116835D01*
X82506Y116837D01*
X82438Y116881D01*
X81577Y117038D01*
X81499Y117021D01*
X81423Y117047D01*
D02*
G37*
G36*
X45282Y113595D02*
X43946Y113419D01*
X42701Y112904D01*
X41631Y112083D01*
X40905Y111136D01*
X37670Y111167D01*
X37290Y111662D01*
X36345Y112388D01*
X35243Y112844D01*
X34061Y113000D01*
X32879Y112844D01*
X31778Y112388D01*
X30832Y111662D01*
X30106Y110716D01*
X30023Y110515D01*
X19027Y105610D01*
X18910Y105526D01*
X18790Y105448D01*
X17749Y104420D01*
X16546Y104918D01*
X15210Y105094D01*
X13873Y104918D01*
X12629Y104402D01*
X11559Y103582D01*
X10739Y102513D01*
X10223Y101268D01*
X10047Y99932D01*
X10223Y98596D01*
X10695Y97457D01*
X9286Y96066D01*
X8457Y96409D01*
X7276Y96564D01*
X6094Y96409D01*
X4992Y95953D01*
X4047Y95227D01*
X3321Y94281D01*
X2864Y93180D01*
X2709Y91998D01*
X2864Y90816D01*
X3321Y89714D01*
X3661Y89270D01*
X1094Y82115D01*
X1092Y82097D01*
X1083Y82082D01*
X-29Y78492D01*
X-32Y78465D01*
X-43Y78441D01*
X-45Y78398D01*
X-1220Y78243D01*
X-2465Y77727D01*
X-3534Y76907D01*
X-4355Y75837D01*
X-4871Y74592D01*
X-5046Y73256D01*
X-4871Y71920D01*
X-4355Y70675D01*
X-3534Y69606D01*
X-2465Y68786D01*
X-1220Y68270D01*
X116Y68094D01*
X1452Y68270D01*
X2697Y68786D01*
X3766Y69606D01*
X4586Y70675D01*
X5102Y71920D01*
X5278Y73256D01*
X5102Y74592D01*
X4586Y75837D01*
X4412Y76065D01*
X4684Y76485D01*
X18197Y73251D01*
X18283Y73248D01*
X18368Y73229D01*
X18439Y73242D01*
X18510Y73239D01*
X18591Y73269D01*
X18677Y73284D01*
X18737Y73323D01*
X18803Y73348D01*
X18867Y73407D01*
X18940Y73453D01*
X38321Y92119D01*
X50444Y92181D01*
X50617Y75340D01*
X50642Y75221D01*
X50657Y75099D01*
X50674Y75068D01*
X50681Y75034D01*
X50750Y74933D01*
X50810Y74826D01*
X50838Y74804D01*
X50858Y74775D01*
X50960Y74708D01*
X51056Y74633D01*
X51091Y74623D01*
X51120Y74604D01*
X51240Y74581D01*
X51358Y74548D01*
X55061Y74262D01*
Y50143D01*
X54561Y49876D01*
X54361Y50009D01*
X53747Y50131D01*
X53132Y50009D01*
X52612Y49661D01*
X52263Y49140D01*
X52141Y48526D01*
X52263Y47911D01*
X52612Y47390D01*
X53132Y47042D01*
X53747Y46920D01*
X54361Y47042D01*
X54561Y47175D01*
X55061Y46908D01*
Y42154D01*
X55017Y42111D01*
X38554D01*
X38405Y42081D01*
X38255Y42053D01*
X38251Y42050D01*
X38247Y42050D01*
X38120Y41965D01*
X37992Y41881D01*
X37990Y41878D01*
X37987Y41876D01*
X37902Y41749D01*
X37816Y41622D01*
X27439Y17250D01*
X25893D01*
X25884Y17249D01*
X25875Y17250D01*
X25731Y17218D01*
X25585Y17189D01*
X25578Y17184D01*
X25570Y17183D01*
X25448Y17098D01*
X25325Y17015D01*
X25320Y17008D01*
X25313Y17003D01*
X24387Y16037D01*
X24316Y15924D01*
X24237Y15816D01*
X24232Y15793D01*
X24219Y15773D01*
X24196Y15641D01*
X24165Y15511D01*
X23992Y10847D01*
X24016Y10694D01*
X24040Y10541D01*
X24041Y10539D01*
X24042Y10537D01*
X24123Y10405D01*
X24203Y10274D01*
X28689Y5390D01*
X28715Y5371D01*
X28734Y5345D01*
X28841Y5280D01*
X28942Y5206D01*
X28973Y5198D01*
X29001Y5181D01*
X36929Y2233D01*
X37051Y2214D01*
X37171Y2184D01*
X45007Y1817D01*
X45109Y1774D01*
X45143Y1773D01*
X45176Y1763D01*
X45299Y1771D01*
X45422Y1770D01*
X50678Y2743D01*
X50969Y2859D01*
X51109Y2995D01*
X51372Y2943D01*
X51679Y3004D01*
X51856Y3122D01*
X51874Y3098D01*
X55776Y6300D01*
X59777Y10048D01*
X63524Y14049D01*
X67002Y18286D01*
X70195Y22742D01*
X71044Y24108D01*
X71188Y24079D01*
X72033Y24247D01*
X72749Y24726D01*
X73228Y25442D01*
X73396Y26287D01*
X73228Y27132D01*
X73071Y27367D01*
X73090Y27397D01*
X75674Y32232D01*
X77936Y37225D01*
X79867Y42355D01*
X81458Y47601D01*
X82010Y49965D01*
X82183Y50427D01*
X82193Y50433D01*
X82367Y50694D01*
X82428Y51001D01*
X82428Y51001D01*
X82367Y51308D01*
Y51308D01*
X82334Y51357D01*
X82703Y52940D01*
X83596Y58349D01*
X83731Y59712D01*
X84109Y60626D01*
X84285Y61962D01*
X84109Y63298D01*
X84089Y63348D01*
X84133Y63804D01*
X84313Y69283D01*
X84133Y74762D01*
X83995Y76171D01*
X83989Y76171D01*
X83978Y76226D01*
X83965Y76349D01*
X80146Y88352D01*
X80092Y88450D01*
X80049Y88554D01*
X78212Y91303D01*
X78162Y91354D01*
X78123Y91414D01*
X76863Y92723D01*
X76781Y93341D01*
X76265Y94586D01*
X75445Y95655D01*
X74376Y96476D01*
X73131Y96991D01*
X72696Y97049D01*
X67893Y102034D01*
X67816Y102223D01*
X67090Y103168D01*
X66144Y103894D01*
X66074Y103923D01*
X64548Y105507D01*
X64426Y105592D01*
X64307Y105679D01*
X52919Y110952D01*
X52907Y110955D01*
X52896Y110962D01*
X52755Y110992D01*
X52615Y111025D01*
X52602Y111023D01*
X52589Y111026D01*
X49722Y111053D01*
X48932Y112083D01*
X47863Y112904D01*
X46618Y113419D01*
X45282Y113595D01*
D02*
G37*
G36*
X34617Y84768D02*
X34002Y84646D01*
X33481Y84298D01*
X33133Y83777D01*
X33011Y83163D01*
X33133Y82548D01*
X33481Y82027D01*
X34002Y81679D01*
X34617Y81557D01*
X35231Y81679D01*
X35752Y82027D01*
X36100Y82548D01*
X36222Y83163D01*
X36100Y83777D01*
X35752Y84298D01*
X35231Y84646D01*
X34617Y84768D01*
D02*
G37*
G36*
X99974Y74237D02*
X99900Y74207D01*
X99821Y74219D01*
X98971Y74010D01*
X98906Y73963D01*
X98827Y73956D01*
X98051Y73550D01*
X98000Y73488D01*
X97924Y73462D01*
X97268Y72882D01*
X97233Y72810D01*
X97166Y72767D01*
X96668Y72047D01*
X96651Y71969D01*
X96596Y71911D01*
X96285Y71092D01*
X96288Y71012D01*
X96249Y70943D01*
X96195Y70508D01*
X96206Y70469D01*
X96191Y70431D01*
Y64714D01*
X96206Y64676D01*
X96195Y64637D01*
X96249Y64202D01*
X96288Y64133D01*
X96285Y64053D01*
X96596Y63234D01*
X96651Y63176D01*
X96668Y63098D01*
X97166Y62378D01*
X97233Y62335D01*
X97268Y62262D01*
X97924Y61683D01*
X98000Y61657D01*
X98051Y61595D01*
X98827Y61189D01*
X98906Y61182D01*
X98971Y61135D01*
X99821Y60926D01*
X99900Y60938D01*
X99974Y60908D01*
X100850Y60909D01*
X100924Y60939D01*
X101003Y60927D01*
X101852Y61138D01*
X101917Y61185D01*
X101996Y61193D01*
X102771Y61601D01*
X102822Y61662D01*
X102898Y61689D01*
X103552Y62270D01*
X103587Y62342D01*
X103654Y62385D01*
X104150Y63107D01*
X104167Y63185D01*
X104222Y63243D01*
X104531Y64062D01*
X104528Y64142D01*
X104568Y64212D01*
X104620Y64647D01*
X104609Y64685D01*
X104624Y64723D01*
Y70422D01*
X104609Y70460D01*
X104620Y70498D01*
X104568Y70933D01*
X104528Y71003D01*
X104531Y71083D01*
X104222Y71902D01*
X104167Y71960D01*
X104150Y72038D01*
X103654Y72759D01*
X103587Y72803D01*
X103552Y72875D01*
X102898Y73456D01*
X102822Y73483D01*
X102771Y73544D01*
X101996Y73952D01*
X101917Y73959D01*
X101852Y74007D01*
X101003Y74217D01*
X100924Y74205D01*
X100850Y74236D01*
X99974Y74237D01*
D02*
G37*
G36*
X-20913Y74237D02*
X-21788Y74236D01*
X-21862Y74205D01*
X-21941Y74217D01*
X-22791Y74007D01*
X-22855Y73959D01*
X-22935Y73952D01*
X-23709Y73544D01*
X-23761Y73483D01*
X-23836Y73457D01*
X-24491Y72875D01*
X-24526Y72803D01*
X-24593Y72759D01*
X-25089Y72038D01*
X-25106Y71960D01*
X-25160Y71902D01*
X-25469Y71083D01*
X-25467Y71003D01*
X-25506Y70933D01*
X-25558Y70498D01*
X-25547Y70460D01*
X-25563Y70422D01*
X-25563Y70422D01*
X-25563Y64723D01*
X-25547Y64685D01*
X-25558Y64647D01*
X-25506Y64212D01*
X-25467Y64142D01*
X-25469Y64062D01*
X-25160Y63243D01*
X-25106Y63185D01*
X-25089Y63107D01*
X-24593Y62385D01*
X-24526Y62342D01*
X-24491Y62270D01*
X-23836Y61689D01*
X-23761Y61662D01*
X-23709Y61601D01*
X-22935Y61193D01*
X-22855Y61186D01*
X-22791Y61138D01*
X-21941Y60927D01*
X-21862Y60939D01*
X-21788Y60909D01*
X-20913Y60908D01*
X-20839Y60938D01*
X-20760Y60926D01*
X-19909Y61135D01*
X-19845Y61182D01*
X-19765Y61189D01*
X-18990Y61595D01*
X-18938Y61657D01*
X-18863Y61683D01*
X-18207Y62263D01*
X-18172Y62335D01*
X-18105Y62378D01*
X-17607Y63098D01*
X-17590Y63176D01*
X-17535Y63234D01*
X-17224Y64053D01*
X-17226Y64133D01*
X-17187Y64202D01*
X-17134Y64637D01*
X-17145Y64676D01*
X-17129Y64714D01*
X-17129Y70431D01*
X-17145Y70469D01*
X-17134Y70508D01*
X-17187Y70943D01*
X-17226Y71012D01*
X-17224Y71092D01*
X-17535Y71911D01*
X-17590Y71969D01*
X-17607Y72047D01*
X-18105Y72767D01*
X-18172Y72811D01*
X-18207Y72882D01*
X-18863Y73462D01*
X-18938Y73488D01*
X-18990Y73550D01*
X-19765Y73956D01*
X-19845Y73963D01*
X-19909Y74010D01*
X-20760Y74219D01*
X-20839Y74207D01*
X-20913Y74237D01*
D02*
G37*
G36*
X16621Y69770D02*
X16007Y69648D01*
X15486Y69300D01*
X15138Y68779D01*
X15016Y68164D01*
X15138Y67550D01*
X15486Y67029D01*
X16007Y66681D01*
X16621Y66558D01*
X17236Y66681D01*
X17757Y67029D01*
X18105Y67550D01*
X18227Y68164D01*
X18105Y68779D01*
X17757Y69300D01*
X17236Y69648D01*
X16621Y69770D01*
D02*
G37*
G36*
X31897Y65438D02*
X31282Y65316D01*
X30761Y64968D01*
X30413Y64447D01*
X30291Y63832D01*
X30413Y63218D01*
X30761Y62697D01*
X31282Y62349D01*
X31897Y62227D01*
X32511Y62349D01*
X33032Y62697D01*
X33380Y63218D01*
X33502Y63832D01*
X33380Y64447D01*
X33032Y64968D01*
X32511Y65316D01*
X31897Y65438D01*
D02*
G37*
G36*
X22448Y67106D02*
X21677Y67004D01*
X20959Y66707D01*
X20342Y66233D01*
X19869Y65617D01*
X19571Y64898D01*
X19469Y64127D01*
X19571Y63357D01*
X19869Y62638D01*
X20342Y62022D01*
X20959Y61548D01*
X21677Y61251D01*
X22448Y61149D01*
X23219Y61251D01*
X23937Y61548D01*
X24554Y62022D01*
X25027Y62638D01*
X25324Y63357D01*
X25426Y64127D01*
X25324Y64898D01*
X25027Y65617D01*
X24554Y66233D01*
X23937Y66707D01*
X23219Y67004D01*
X22448Y67106D01*
D02*
G37*
G36*
X29534Y60713D02*
X28920Y60591D01*
X28399Y60243D01*
X28051Y59722D01*
X27929Y59108D01*
X28051Y58493D01*
X28399Y57973D01*
X28920Y57624D01*
X29534Y57502D01*
X30149Y57624D01*
X30670Y57973D01*
X31018Y58493D01*
X31140Y59108D01*
X31018Y59722D01*
X30670Y60243D01*
X30149Y60591D01*
X29534Y60713D01*
D02*
G37*
G36*
X116Y66602D02*
X-1066Y66447D01*
X-2167Y65991D01*
X-3113Y65265D01*
X-3839Y64319D01*
X-4295Y63218D01*
X-4451Y62036D01*
X-4295Y60854D01*
X-3839Y59753D01*
X-3113Y58807D01*
X-2167Y58081D01*
X-1066Y57625D01*
X116Y57469D01*
X1298Y57625D01*
X2399Y58081D01*
X3345Y58807D01*
X4071Y59753D01*
X4527Y60854D01*
X4682Y62036D01*
X4527Y63218D01*
X4071Y64319D01*
X3345Y65265D01*
X2399Y65991D01*
X1298Y66447D01*
X116Y66602D01*
D02*
G37*
G36*
X17773Y59926D02*
X17159Y59804D01*
X16638Y59456D01*
X16290Y58935D01*
X16168Y58320D01*
X16290Y57706D01*
X16638Y57185D01*
X17159Y56837D01*
X17773Y56715D01*
X18388Y56837D01*
X18909Y57185D01*
X19257Y57706D01*
X19379Y58320D01*
X19257Y58935D01*
X18909Y59456D01*
X18388Y59804D01*
X17773Y59926D01*
D02*
G37*
G36*
X9751Y49395D02*
X9136Y49272D01*
X8615Y48924D01*
X8268Y48403D01*
X8145Y47789D01*
X8268Y47175D01*
X8615Y46654D01*
X9136Y46306D01*
X9751Y46183D01*
X10365Y46306D01*
X10886Y46654D01*
X11234Y47175D01*
X11356Y47789D01*
X11234Y48403D01*
X10886Y48924D01*
X10365Y49272D01*
X9751Y49395D01*
D02*
G37*
G36*
X25966Y47328D02*
X25351Y47205D01*
X24830Y46857D01*
X24482Y46336D01*
X24360Y45722D01*
X24482Y45108D01*
X24830Y44587D01*
X25351Y44239D01*
X25966Y44116D01*
X26580Y44239D01*
X27101Y44587D01*
X27449Y45108D01*
X27571Y45722D01*
X27449Y46336D01*
X27101Y46857D01*
X26580Y47205D01*
X25966Y47328D01*
D02*
G37*
G36*
X21635D02*
X21021Y47205D01*
X20500Y46857D01*
X20152Y46336D01*
X20029Y45722D01*
X20152Y45108D01*
X20500Y44587D01*
X21021Y44239D01*
X21635Y44116D01*
X22250Y44239D01*
X22770Y44587D01*
X23118Y45108D01*
X23241Y45722D01*
X23118Y46336D01*
X22770Y46857D01*
X22250Y47205D01*
X21635Y47328D01*
D02*
G37*
G36*
X25966Y42997D02*
X25351Y42875D01*
X24830Y42527D01*
X24482Y42006D01*
X24360Y41391D01*
X24482Y40777D01*
X24830Y40256D01*
X25351Y39908D01*
X25966Y39786D01*
X26580Y39908D01*
X27101Y40256D01*
X27449Y40777D01*
X27571Y41391D01*
X27449Y42006D01*
X27101Y42527D01*
X26580Y42875D01*
X25966Y42997D01*
D02*
G37*
G36*
X21635D02*
X21021Y42875D01*
X20500Y42527D01*
X20152Y42006D01*
X20029Y41391D01*
X20152Y40777D01*
X20500Y40256D01*
X21021Y39908D01*
X21635Y39786D01*
X22250Y39908D01*
X22770Y40256D01*
X23118Y40777D01*
X23241Y41391D01*
X23118Y42006D01*
X22770Y42527D01*
X22250Y42875D01*
X21635Y42997D01*
D02*
G37*
G36*
X16641Y32465D02*
X16026Y32343D01*
X15505Y31995D01*
X15157Y31474D01*
X15035Y30860D01*
X15157Y30245D01*
X15505Y29724D01*
X16026Y29376D01*
X16641Y29254D01*
X17255Y29376D01*
X17776Y29724D01*
X18124Y30245D01*
X18246Y30860D01*
X18124Y31474D01*
X17776Y31995D01*
X17255Y32343D01*
X16641Y32465D01*
D02*
G37*
G36*
X28747Y32072D02*
X28133Y31950D01*
X27612Y31602D01*
X27264Y31081D01*
X27141Y30466D01*
X27264Y29852D01*
X27612Y29331D01*
X28133Y28983D01*
X28747Y28861D01*
X29361Y28983D01*
X29882Y29331D01*
X30230Y29852D01*
X30353Y30466D01*
X30230Y31081D01*
X29882Y31602D01*
X29361Y31950D01*
X28747Y32072D01*
D02*
G37*
G36*
X20578Y28725D02*
X19963Y28603D01*
X19442Y28255D01*
X19094Y27734D01*
X18972Y27120D01*
X19094Y26505D01*
X19442Y25984D01*
X19963Y25636D01*
X20578Y25514D01*
X21192Y25636D01*
X21713Y25984D01*
X22061Y26505D01*
X22183Y27120D01*
X22061Y27734D01*
X21713Y28255D01*
X21192Y28603D01*
X20578Y28725D01*
D02*
G37*
G36*
X28747Y27446D02*
X28133Y27324D01*
X27612Y26976D01*
X27264Y26455D01*
X27141Y25840D01*
X27264Y25226D01*
X27612Y24705D01*
X28133Y24357D01*
X28747Y24235D01*
X29361Y24357D01*
X29882Y24705D01*
X30230Y25226D01*
X30353Y25840D01*
X30230Y26455D01*
X29882Y26976D01*
X29361Y27324D01*
X28747Y27446D01*
D02*
G37*
G36*
X6930Y23068D02*
X6261Y22980D01*
X5639Y22723D01*
X5105Y22312D01*
X4694Y21778D01*
X4436Y21155D01*
X4349Y20487D01*
X4436Y19819D01*
X4694Y19197D01*
X5105Y18662D01*
X5639Y18252D01*
X6261Y17994D01*
X6930Y17906D01*
X7598Y17994D01*
X8220Y18252D01*
X8755Y18662D01*
X9165Y19197D01*
X9423Y19819D01*
X9511Y20487D01*
X9423Y21155D01*
X9165Y21778D01*
X8755Y22312D01*
X8220Y22723D01*
X7598Y22980D01*
X6930Y23068D01*
D02*
G37*
G36*
X11930Y14408D02*
X11261Y14320D01*
X10639Y14062D01*
X10104Y13652D01*
X9694Y13118D01*
X9436Y12495D01*
X9348Y11827D01*
X9436Y11159D01*
X9694Y10537D01*
X10104Y10002D01*
X10639Y9592D01*
X11261Y9334D01*
X11930Y9246D01*
X12598Y9334D01*
X13220Y9592D01*
X13755Y10002D01*
X14165Y10537D01*
X14423Y11159D01*
X14511Y11827D01*
X14423Y12495D01*
X14165Y13118D01*
X13755Y13652D01*
X13220Y14062D01*
X12598Y14320D01*
X11930Y14408D01*
D02*
G37*
G36*
X59532Y2375D02*
X58687Y2207D01*
X57971Y1728D01*
X57492Y1012D01*
X57324Y167D01*
X57492Y-678D01*
X57971Y-1394D01*
X58687Y-1873D01*
X59532Y-2041D01*
X60377Y-1873D01*
X61093Y-1394D01*
X61572Y-678D01*
X61740Y167D01*
X61572Y1012D01*
X61093Y1728D01*
X60377Y2207D01*
X59532Y2375D01*
D02*
G37*
G36*
X20162D02*
X19317Y2207D01*
X18601Y1728D01*
X18122Y1012D01*
X17954Y167D01*
X18122Y-678D01*
X18601Y-1394D01*
X19317Y-1873D01*
X20162Y-2041D01*
X21007Y-1873D01*
X21723Y-1394D01*
X22201Y-678D01*
X22369Y167D01*
X22201Y1012D01*
X21723Y1728D01*
X21007Y2207D01*
X20162Y2375D01*
D02*
G37*
G36*
X45010Y-891D02*
X43828Y-1047D01*
X42727Y-1503D01*
X41781Y-2229D01*
X41055Y-3175D01*
X40599Y-4276D01*
X40443Y-5458D01*
X40599Y-6640D01*
X41055Y-7741D01*
X41781Y-8687D01*
X42727Y-9413D01*
X43828Y-9869D01*
X45010Y-10024D01*
X46192Y-9869D01*
X47293Y-9413D01*
X48239Y-8687D01*
X48965Y-7741D01*
X49421Y-6640D01*
X49577Y-5458D01*
X49421Y-4276D01*
X48965Y-3175D01*
X48239Y-2229D01*
X47293Y-1503D01*
X46192Y-1047D01*
X45010Y-891D01*
D02*
G37*
G36*
X33790Y-296D02*
X32453Y-471D01*
X31208Y-987D01*
X30139Y-1808D01*
X29319Y-2877D01*
X28803Y-4122D01*
X28627Y-5458D01*
X28803Y-6794D01*
X29319Y-8039D01*
X30139Y-9108D01*
X31208Y-9929D01*
X32453Y-10444D01*
X33790Y-10620D01*
X35126Y-10444D01*
X36371Y-9929D01*
X37440Y-9108D01*
X38260Y-8039D01*
X38776Y-6794D01*
X38952Y-5458D01*
X38776Y-4122D01*
X38260Y-2877D01*
X37440Y-1808D01*
X36371Y-987D01*
X35126Y-471D01*
X33790Y-296D01*
D02*
G37*
G36*
X42100Y-22622D02*
X36383Y-22622D01*
X36345Y-22638D01*
X36306Y-22627D01*
X35871Y-22680D01*
X35802Y-22719D01*
X35722Y-22717D01*
X34903Y-23028D01*
X34845Y-23083D01*
X34767Y-23100D01*
X34047Y-23597D01*
X34003Y-23665D01*
X33932Y-23700D01*
X33352Y-24356D01*
X33326Y-24431D01*
X33264Y-24483D01*
X32858Y-25258D01*
X32851Y-25338D01*
X32804Y-25402D01*
X32595Y-26252D01*
X32607Y-26331D01*
X32577Y-26406D01*
X32578Y-27281D01*
X32609Y-27355D01*
X32596Y-27434D01*
X32807Y-28284D01*
X32855Y-28348D01*
X32862Y-28428D01*
X33270Y-29202D01*
X33331Y-29253D01*
X33358Y-29329D01*
X33939Y-29983D01*
X34011Y-30018D01*
X34054Y-30086D01*
X34776Y-30582D01*
X34854Y-30598D01*
X34912Y-30653D01*
X35731Y-30962D01*
X35811Y-30960D01*
X35881Y-30999D01*
X36316Y-31051D01*
X36354Y-31040D01*
X36392Y-31056D01*
X36392Y-31056D01*
X42091Y-31056D01*
X42129Y-31040D01*
X42167Y-31051D01*
X42602Y-30999D01*
X42672Y-30960D01*
X42752Y-30962D01*
X43571Y-30653D01*
X43629Y-30598D01*
X43707Y-30582D01*
X44429Y-30086D01*
X44472Y-30018D01*
X44544Y-29983D01*
X45125Y-29329D01*
X45152Y-29253D01*
X45213Y-29202D01*
X45621Y-28428D01*
X45628Y-28348D01*
X45676Y-28284D01*
X45886Y-27434D01*
X45875Y-27355D01*
X45905Y-27281D01*
X45906Y-26406D01*
X45876Y-26331D01*
X45888Y-26252D01*
X45679Y-25402D01*
X45632Y-25338D01*
X45625Y-25258D01*
X45219Y-24483D01*
X45157Y-24431D01*
X45131Y-24356D01*
X44551Y-23700D01*
X44480Y-23665D01*
X44436Y-23597D01*
X43716Y-23100D01*
X43638Y-23083D01*
X43580Y-23028D01*
X42761Y-22717D01*
X42681Y-22719D01*
X42612Y-22680D01*
X42177Y-22627D01*
X42138Y-22638D01*
X42100Y-22622D01*
D02*
G37*
%LPD*%
G36*
X39888Y109540D02*
X40216Y109162D01*
X40119Y108433D01*
X40295Y107097D01*
X40811Y105852D01*
X41631Y104783D01*
X42701Y103962D01*
X43946Y103447D01*
X45282Y103271D01*
X46618Y103447D01*
X47863Y103962D01*
X48932Y104783D01*
X49752Y105852D01*
X50268Y107097D01*
X50444Y108433D01*
X50361Y109064D01*
X50692Y109438D01*
X52402Y109422D01*
X62419Y104784D01*
X62408Y104238D01*
X61577Y103894D01*
X60632Y103168D01*
X59906Y102223D01*
X59450Y101121D01*
X59294Y99939D01*
X59450Y98757D01*
X59906Y97656D01*
X60632Y96710D01*
X61577Y95984D01*
X62679Y95528D01*
X63861Y95372D01*
X65043Y95528D01*
X66144Y95984D01*
X67090Y96710D01*
X67816Y97656D01*
X68228Y98652D01*
X68734Y98847D01*
X70131Y97397D01*
X70007Y96804D01*
X69214Y96476D01*
X68145Y95655D01*
X67324Y94586D01*
X66808Y93341D01*
X66632Y92005D01*
X66808Y90669D01*
X67324Y89424D01*
X68145Y88355D01*
X69214Y87534D01*
X70459Y87019D01*
X71795Y86843D01*
X73131Y87019D01*
X74376Y87534D01*
X75445Y88355D01*
X76265Y89424D01*
X76522Y90043D01*
X77086Y90099D01*
X78650Y87757D01*
X81977Y77301D01*
X81568Y77013D01*
X81406Y77138D01*
X80305Y77594D01*
X79123Y77749D01*
X77941Y77594D01*
X76839Y77138D01*
X75894Y76412D01*
X75168Y75466D01*
X74712Y74365D01*
X74556Y73183D01*
X74712Y72001D01*
X75168Y70899D01*
X75894Y69954D01*
X76839Y69228D01*
X77941Y68772D01*
X79123Y68616D01*
X80305Y68772D01*
X81406Y69228D01*
X82170Y69814D01*
X82677Y69593D01*
X82687Y69283D01*
X82590Y66313D01*
X82138Y66100D01*
X81704Y66433D01*
X80459Y66949D01*
X79123Y67124D01*
X77787Y66949D01*
X76542Y66433D01*
X75472Y65613D01*
X74652Y64543D01*
X74136Y63298D01*
X73961Y61962D01*
X74136Y60626D01*
X74652Y59381D01*
X75472Y58312D01*
X76542Y57491D01*
X77787Y56976D01*
X79123Y56800D01*
X80459Y56976D01*
X81272Y57313D01*
X81720Y56957D01*
X81109Y53257D01*
X79888Y48022D01*
X78328Y42878D01*
X76434Y37847D01*
X74216Y32951D01*
X71772Y28379D01*
X71188Y28495D01*
X70343Y28327D01*
X69627Y27848D01*
X69148Y27132D01*
X68980Y26287D01*
X69148Y25442D01*
X69569Y24812D01*
X68843Y23645D01*
X65712Y19276D01*
X62302Y15121D01*
X58627Y11197D01*
X54704Y7523D01*
X50878Y4383D01*
X50416Y4321D01*
X50386Y4322D01*
X45400Y3399D01*
X45382Y3405D01*
X45350Y3402D01*
X45319Y3410D01*
X37371Y3782D01*
X29741Y6619D01*
X25609Y11117D01*
X25758Y15146D01*
X26235Y15645D01*
X27970D01*
X28120Y15675D01*
X28270Y15703D01*
X28273Y15705D01*
X28277Y15706D01*
X28404Y15791D01*
X28532Y15874D01*
X28534Y15878D01*
X28537Y15880D01*
X28622Y16007D01*
X28708Y16133D01*
X34767Y30364D01*
X35247Y30507D01*
X35498Y30339D01*
X36343Y30171D01*
X37188Y30339D01*
X37904Y30818D01*
X38383Y31534D01*
X38551Y32379D01*
X38383Y33224D01*
X37904Y33940D01*
X37188Y34418D01*
X37026Y34451D01*
X36783Y34909D01*
X36916Y35223D01*
X37342Y35419D01*
X37956Y35297D01*
X38571Y35419D01*
X39092Y35767D01*
X39440Y36288D01*
X39562Y36903D01*
X39440Y37517D01*
X39092Y38038D01*
X38571Y38386D01*
X38356Y38793D01*
X39085Y40505D01*
X47989D01*
X48306Y40119D01*
X48291Y40042D01*
X48413Y39428D01*
X48761Y38907D01*
X49282Y38559D01*
X49896Y38437D01*
X50511Y38559D01*
X51032Y38907D01*
X51380Y39428D01*
X51502Y40042D01*
X51487Y40119D01*
X51804Y40505D01*
X55350D01*
X55657Y40566D01*
X55918Y40740D01*
X56431Y41254D01*
X56605Y41514D01*
X56666Y41822D01*
X56666Y41822D01*
Y73984D01*
X57070Y74388D01*
X57141Y74493D01*
X57219Y74593D01*
X57227Y74623D01*
X57245Y74649D01*
X57269Y74773D01*
X57303Y74894D01*
X57300Y74925D01*
X57306Y74956D01*
X57281Y75080D01*
X57266Y75205D01*
X57251Y75232D01*
X57245Y75263D01*
X57174Y75368D01*
X57113Y75478D01*
X57088Y75498D01*
X57070Y75524D01*
X56966Y75594D01*
X56866Y75672D01*
X56836Y75680D01*
X56810Y75698D01*
X56686Y75722D01*
X56565Y75756D01*
X52215Y76092D01*
X52145Y82968D01*
X52478Y83112D01*
X52643Y83148D01*
X53132Y82821D01*
X53747Y82699D01*
X54361Y82821D01*
X54882Y83169D01*
X55230Y83690D01*
X55353Y84305D01*
X55230Y84919D01*
X54882Y85440D01*
X54361Y85788D01*
X53747Y85910D01*
X53132Y85788D01*
X52612Y85440D01*
X52118Y85601D01*
X52042Y92996D01*
X52010Y93147D01*
X51979Y93299D01*
X51978Y93300D01*
X51977Y93303D01*
X51890Y93430D01*
X51804Y93558D01*
X51802Y93559D01*
X51801Y93561D01*
X51671Y93646D01*
X51542Y93731D01*
X51540Y93731D01*
X51539Y93733D01*
X51386Y93761D01*
X51235Y93791D01*
X37991Y93723D01*
X37847Y93694D01*
X37702Y93668D01*
X37694Y93663D01*
X37684Y93660D01*
X37562Y93578D01*
X37438Y93499D01*
X18143Y74915D01*
X2114Y78750D01*
X1867Y79185D01*
X2612Y81590D01*
X4772Y87610D01*
X5398Y87875D01*
X6094Y87587D01*
X7276Y87431D01*
X8457Y87587D01*
X9559Y88043D01*
X10505Y88769D01*
X11230Y89714D01*
X11687Y90816D01*
X11842Y91998D01*
X11687Y93180D01*
X11230Y94281D01*
X10598Y95105D01*
X11689Y96182D01*
X12629Y95461D01*
X13873Y94946D01*
X15210Y94770D01*
X16546Y94946D01*
X17791Y95461D01*
X18860Y96282D01*
X19680Y97351D01*
X20196Y98596D01*
X20372Y99932D01*
X20196Y101268D01*
X19680Y102513D01*
X19001Y103399D01*
X19815Y104202D01*
X28428Y108045D01*
X29128Y108273D01*
X29551Y108006D01*
X29650Y107251D01*
X30106Y106150D01*
X30832Y105204D01*
X31778Y104478D01*
X32879Y104022D01*
X34061Y103866D01*
X35243Y104022D01*
X36345Y104478D01*
X37290Y105204D01*
X38016Y106150D01*
X38472Y107251D01*
X38628Y108433D01*
X38530Y109175D01*
X38862Y109550D01*
X39888Y109540D01*
D02*
G37*
%LPC*%
G36*
X12999Y86878D02*
X12385Y86756D01*
X11863Y86408D01*
X11515Y85887D01*
X11393Y85272D01*
X11515Y84658D01*
X11863Y84137D01*
X12385Y83789D01*
X12999Y83667D01*
X13613Y83789D01*
X14134Y84137D01*
X14482Y84658D01*
X14605Y85272D01*
X14482Y85887D01*
X14134Y86408D01*
X13613Y86756D01*
X12999Y86878D01*
D02*
G37*
G36*
X69298Y60910D02*
X68684Y60788D01*
X68163Y60440D01*
X67815Y59919D01*
X67693Y59305D01*
X67815Y58690D01*
X68163Y58169D01*
X68684Y57821D01*
X69298Y57699D01*
X69913Y57821D01*
X70433Y58169D01*
X70782Y58690D01*
X70904Y59305D01*
X70782Y59919D01*
X70433Y60440D01*
X69913Y60788D01*
X69298Y60910D01*
D02*
G37*
G36*
X57684Y33500D02*
X56916Y33347D01*
X56265Y32912D01*
X55830Y32261D01*
X55677Y31493D01*
X55830Y30725D01*
X56265Y30074D01*
X56916Y29639D01*
X57684Y29486D01*
X58452Y29639D01*
X59104Y30074D01*
X59539Y30725D01*
X59691Y31493D01*
X59539Y32261D01*
X59104Y32912D01*
X58452Y33347D01*
X57684Y33500D01*
D02*
G37*
G36*
X38838Y26039D02*
X38223Y25917D01*
X37702Y25569D01*
X37354Y25048D01*
X37232Y24434D01*
X37354Y23819D01*
X37702Y23298D01*
X38223Y22950D01*
X38838Y22828D01*
X39452Y22950D01*
X39973Y23298D01*
X40321Y23819D01*
X40443Y24434D01*
X40321Y25048D01*
X39973Y25569D01*
X39452Y25917D01*
X38838Y26039D01*
D02*
G37*
G36*
X32598Y19684D02*
X31983Y19562D01*
X31462Y19214D01*
X31114Y18693D01*
X30992Y18079D01*
X31114Y17464D01*
X31462Y16943D01*
X31983Y16595D01*
X32598Y16473D01*
X33212Y16595D01*
X33733Y16943D01*
X34081Y17464D01*
X34203Y18079D01*
X34081Y18693D01*
X33733Y19214D01*
X33212Y19562D01*
X32598Y19684D01*
D02*
G37*
%LPD*%
D15*
X7276Y91998D02*
D03*
X116Y62036D02*
D03*
X34061Y108433D02*
D03*
X63861Y99939D02*
D03*
X79123Y73183D02*
D03*
X45010Y-5458D02*
D03*
D18*
X15210Y99932D02*
D03*
X116Y73256D02*
D03*
X45282Y108433D02*
D03*
X71795Y92005D02*
D03*
X79123Y61962D02*
D03*
X33790Y-5458D02*
D03*
D31*
X71188Y26287D02*
D03*
X20162Y167D02*
D03*
X59532D02*
D03*
X2367Y17784D02*
D03*
X7276Y9352D02*
D03*
X4826Y13692D02*
D03*
X36343Y32379D02*
D03*
D67*
X49896Y40042D02*
D03*
X40906Y48526D02*
D03*
X38838Y24434D02*
D03*
X29534Y70291D02*
D03*
X47352Y84087D02*
D03*
X9948Y42572D02*
D03*
X53747Y84305D02*
D03*
X34617Y83163D02*
D03*
X9751Y47789D02*
D03*
X28747Y25840D02*
D03*
X32598Y18079D02*
D03*
X52332Y23158D02*
D03*
X37956Y36903D02*
D03*
X53747Y48526D02*
D03*
X59214Y58571D02*
D03*
X64482Y70820D02*
D03*
X56306Y90338D02*
D03*
X52643Y104482D02*
D03*
X21312Y79457D02*
D03*
X5269Y80958D02*
D03*
X16621Y68164D02*
D03*
X21635Y45722D02*
D03*
X25966D02*
D03*
X21635Y41391D02*
D03*
X25966D02*
D03*
X12999Y85272D02*
D03*
X29534Y59108D02*
D03*
X28747Y30466D02*
D03*
X31897Y63832D02*
D03*
X69298Y59305D02*
D03*
X20578Y27120D02*
D03*
X17773Y58320D02*
D03*
X16641Y30860D02*
D03*
D68*
X57684Y31493D02*
D03*
D69*
X11930Y11827D02*
D03*
X9430Y16157D02*
D03*
X6930Y20487D02*
D03*
D70*
X22448Y64127D02*
D03*
M02*
