G04*
G04 #@! TF.GenerationSoftware,Altium Limited,Altium Designer,20.0.10 (225)*
G04*
G04 Layer_Color=65280*
%FSLAX25Y25*%
%MOIN*%
G70*
G01*
G75*
%ADD10C,0.01575*%
%ADD12C,0.01000*%
%ADD13C,0.00787*%
%ADD14C,0.00500*%
D10*
X49539Y85387D02*
G03*
X49539Y85387I-98J0D01*
G01*
X66903Y69639D02*
G03*
X66903Y69639I-98J0D01*
G01*
X19410Y72159D02*
G03*
X19410Y72159I-98J0D01*
G01*
X62136Y56080D02*
G03*
X62136Y56080I-197J0D01*
G01*
X49371Y26620D02*
G03*
X49371Y26620I-197J0D01*
G01*
D12*
X-10075Y112702D02*
X-8590Y114186D01*
X-10075D02*
X-8590Y112702D01*
X84462Y117521D02*
X85947Y116036D01*
Y117521D02*
X84462Y116036D01*
X105943Y68441D02*
Y70540D01*
X104893Y69490D02*
X106992D01*
X-26907Y66796D02*
Y64697D01*
X-25858Y65746D02*
X-27957D01*
X38318Y134769D02*
X36219D01*
X37268Y133720D02*
Y135819D01*
X41328Y-32394D02*
X43427D01*
X42378Y-31344D02*
Y-33443D01*
X44221Y-13568D02*
X46320D01*
X45270Y-14617D02*
Y-12518D01*
X11735Y25048D02*
Y21899D01*
X10160D01*
X9635Y22424D01*
Y24523D01*
X10160Y25048D01*
X11735D01*
X59165Y7085D02*
X61264D01*
X60214Y8134D02*
Y6035D01*
X27173Y39065D02*
X30321D01*
Y40639D01*
X29796Y41164D01*
X28747D01*
X28222Y40639D01*
Y39065D01*
Y40114D02*
X27173Y41164D01*
Y44313D02*
Y42213D01*
X29272Y44313D01*
X29796D01*
X30321Y43788D01*
Y42738D01*
X29796Y42213D01*
X27173Y45362D02*
Y46412D01*
Y45887D01*
X30321D01*
X29796Y45362D01*
X50612Y72859D02*
Y76008D01*
X49037D01*
X48513Y75483D01*
Y74433D01*
X49037Y73909D01*
X50612D01*
X49562D02*
X48513Y72859D01*
X45364D02*
X47463D01*
X45364Y74958D01*
Y75483D01*
X45889Y76008D01*
X46938D01*
X47463Y75483D01*
X44314D02*
X43790Y76008D01*
X42740D01*
X42215Y75483D01*
Y74958D01*
X42740Y74433D01*
X43265D01*
X42740D01*
X42215Y73909D01*
Y73384D01*
X42740Y72859D01*
X43790D01*
X44314Y73384D01*
X55340Y55003D02*
X55865Y55528D01*
X56914D01*
X57439Y55003D01*
Y52904D01*
X56914Y52379D01*
X55865D01*
X55340Y52904D01*
X54290Y55003D02*
X53766Y55528D01*
X52716D01*
X52192Y55003D01*
Y54479D01*
X52716Y53954D01*
X52192Y53429D01*
Y52904D01*
X52716Y52379D01*
X53766D01*
X54290Y52904D01*
Y53429D01*
X53766Y53954D01*
X54290Y54479D01*
Y55003D01*
X53766Y53954D02*
X52716D01*
X35413Y48012D02*
X38562D01*
Y49587D01*
X38037Y50111D01*
X36987D01*
X36463Y49587D01*
Y48012D01*
Y49062D02*
X35413Y50111D01*
Y53260D02*
Y51161D01*
X37512Y53260D01*
X38037D01*
X38562Y52735D01*
Y51686D01*
X38037Y51161D01*
X35413Y56409D02*
Y54309D01*
X37512Y56409D01*
X38037D01*
X38562Y55884D01*
Y54834D01*
X38037Y54309D01*
X63424Y26319D02*
Y29467D01*
X61850D01*
X61325Y28942D01*
Y27893D01*
X61850Y27368D01*
X63424D01*
X62375D02*
X61325Y26319D01*
X58176D02*
X60276D01*
X58176Y28418D01*
Y28942D01*
X58701Y29467D01*
X59751D01*
X60276Y28942D01*
X57127D02*
X56602Y29467D01*
X55553D01*
X55028Y28942D01*
Y26844D01*
X55553Y26319D01*
X56602D01*
X57127Y26844D01*
Y28942D01*
X41273Y83812D02*
Y86961D01*
X39698D01*
X39174Y86436D01*
Y85387D01*
X39698Y84862D01*
X41273D01*
X40223D02*
X39174Y83812D01*
X38124D02*
X37075D01*
X37599D01*
Y86961D01*
X38124Y86436D01*
X35500Y84337D02*
X34976Y83812D01*
X33926D01*
X33401Y84337D01*
Y86436D01*
X33926Y86961D01*
X34976D01*
X35500Y86436D01*
Y85912D01*
X34976Y85387D01*
X33401D01*
X41052Y79089D02*
Y82237D01*
X39478D01*
X38953Y81713D01*
Y80663D01*
X39478Y80138D01*
X41052D01*
X40003D02*
X38953Y79089D01*
X37904D02*
X36854D01*
X37379D01*
Y82237D01*
X37904Y81713D01*
X35280D02*
X34755Y82237D01*
X33705D01*
X33181Y81713D01*
Y79614D01*
X33705Y79089D01*
X34755D01*
X35280Y79614D01*
Y81713D01*
X38615Y30181D02*
Y27557D01*
X38090Y27032D01*
X37040D01*
X36516Y27557D01*
Y30181D01*
X35466Y27032D02*
X34416D01*
X34941D01*
Y30181D01*
X35466Y29656D01*
X33594Y19697D02*
Y22845D01*
X32020D01*
X31495Y22321D01*
Y21271D01*
X32020Y20746D01*
X33594D01*
X32545D02*
X31495Y19697D01*
X30446D02*
X29396D01*
X29921D01*
Y22845D01*
X30446Y22321D01*
X25723Y22845D02*
X26772Y22321D01*
X27822Y21271D01*
Y20221D01*
X27297Y19697D01*
X26248D01*
X25723Y20221D01*
Y20746D01*
X26248Y21271D01*
X27822D01*
X33594Y14185D02*
Y17333D01*
X32020D01*
X31495Y16809D01*
Y15759D01*
X32020Y15234D01*
X33594D01*
X32545D02*
X31495Y14185D01*
X30446D02*
X29396D01*
X29921D01*
Y17333D01*
X30446Y16809D01*
X25723Y17333D02*
X27822D01*
Y15759D01*
X26772Y16284D01*
X26248D01*
X25723Y15759D01*
Y14710D01*
X26248Y14185D01*
X27297D01*
X27822Y14710D01*
X48647Y47995D02*
Y51143D01*
X47072D01*
X46547Y50618D01*
Y49569D01*
X47072Y49044D01*
X48647D01*
X47597D02*
X46547Y47995D01*
X45498D02*
X44449D01*
X44973D01*
Y51143D01*
X45498Y50618D01*
X40775Y47995D02*
X42874D01*
X40775Y50094D01*
Y50618D01*
X41300Y51143D01*
X42349D01*
X42874Y50618D01*
X47868Y52693D02*
Y55841D01*
X46294D01*
X45769Y55316D01*
Y54267D01*
X46294Y53742D01*
X47868D01*
X46819D02*
X45769Y52693D01*
X44720D02*
X43670D01*
X44195D01*
Y55841D01*
X44720Y55316D01*
X42096Y52693D02*
X41046D01*
X41571D01*
Y55841D01*
X42096Y55316D01*
X49039Y20130D02*
X49564Y19606D01*
X50614D01*
X51139Y20130D01*
Y22229D01*
X50614Y22754D01*
X49564D01*
X49039Y22229D01*
X47990Y20130D02*
X47465Y19606D01*
X46416D01*
X45891Y20130D01*
Y20655D01*
X46416Y21180D01*
X46940D01*
X46416D01*
X45891Y21705D01*
Y22229D01*
X46416Y22754D01*
X47465D01*
X47990Y22229D01*
X29647Y69737D02*
Y66588D01*
X28073D01*
X27548Y67113D01*
Y69212D01*
X28073Y69737D01*
X29647D01*
X26499Y66588D02*
X25449D01*
X25974D01*
Y69737D01*
X26499Y69212D01*
X17034Y34502D02*
Y37650D01*
X15460D01*
X14935Y37125D01*
Y36076D01*
X15460Y35551D01*
X17034D01*
X15985D02*
X14935Y34502D01*
X13886D02*
X12836D01*
X13361D01*
Y37650D01*
X13886Y37125D01*
X11262D02*
X10737Y37650D01*
X9688D01*
X9163Y37125D01*
Y36601D01*
X9688Y36076D01*
X9163Y35551D01*
Y35026D01*
X9688Y34502D01*
X10737D01*
X11262Y35026D01*
Y35551D01*
X10737Y36076D01*
X11262Y36601D01*
Y37125D01*
X10737Y36076D02*
X9688D01*
X13281Y70741D02*
X11182D01*
X12231D01*
Y67592D01*
X10132D02*
X9083D01*
X9607D01*
Y70741D01*
X10132Y70216D01*
X81913Y50051D02*
Y47427D01*
X81389Y46902D01*
X80339D01*
X79814Y47427D01*
Y50051D01*
X76666Y46902D02*
X78765D01*
X76666Y49002D01*
Y49526D01*
X77191Y50051D01*
X78240D01*
X78765Y49526D01*
X53747Y65957D02*
X51648D01*
X52697D01*
Y62808D01*
X50598Y65432D02*
X50074Y65957D01*
X49024D01*
X48499Y65432D01*
Y64907D01*
X49024Y64382D01*
X49549D01*
X49024D01*
X48499Y63858D01*
Y63333D01*
X49024Y62808D01*
X50074D01*
X50598Y63333D01*
X41755Y92860D02*
X39656D01*
X40706D01*
Y89712D01*
X36507D02*
X38607D01*
X36507Y91811D01*
Y92335D01*
X37032Y92860D01*
X38082D01*
X38607Y92335D01*
X66095Y23267D02*
X69244D01*
Y24842D01*
X68719Y25366D01*
X67669D01*
X67145Y24842D01*
Y23267D01*
Y24317D02*
X66095Y25366D01*
X69244Y26416D02*
Y28515D01*
X68719D01*
X66620Y26416D01*
X66095D01*
X71111Y23634D02*
X74260D01*
Y25208D01*
X73735Y25733D01*
X72685D01*
X72160Y25208D01*
Y23634D01*
Y24683D02*
X71111Y25733D01*
X74260Y28881D02*
X73735Y27832D01*
X72685Y26782D01*
X71636D01*
X71111Y27307D01*
Y28357D01*
X71636Y28881D01*
X72160D01*
X72685Y28357D01*
Y26782D01*
X54997Y49526D02*
X55522Y50051D01*
X56571D01*
X57096Y49526D01*
Y47427D01*
X56571Y46902D01*
X55522D01*
X54997Y47427D01*
X53947Y46902D02*
X52898D01*
X53422D01*
Y50051D01*
X53947Y49526D01*
D13*
X-6842Y115845D02*
X-5241Y117445D01*
X87732Y114399D02*
X89333Y112798D01*
X104809Y65214D02*
X107073D01*
X-28037Y70022D02*
X-25774D01*
X41493Y134854D02*
X43756D01*
X35889Y-32478D02*
X38153D01*
X33091Y-13526D02*
X35355D01*
X85727Y73045D02*
X88089D01*
X86908Y71863D02*
Y74226D01*
X69218Y104847D02*
X71580D01*
X70399Y103666D02*
Y106028D01*
X33041Y116141D02*
X35403D01*
X34222Y114960D02*
Y117322D01*
X393Y97731D02*
X2756D01*
X1574Y96549D02*
Y98912D01*
X-9088Y62257D02*
X-6726D01*
X-7907Y61076D02*
Y63439D01*
X13176Y17348D02*
Y19710D01*
X11995Y18529D02*
X14357D01*
X15386Y13155D02*
X17748D01*
X29142Y71470D02*
Y76982D01*
X48682Y28786D02*
Y34888D01*
X41398Y28786D02*
Y34888D01*
X43871Y116141D02*
X46233D01*
X85744Y61962D02*
X88106D01*
X19152Y6077D02*
X21515D01*
X76803Y96540D02*
X79165D01*
X8038Y105378D02*
X10400D01*
X-9034Y73589D02*
X-6672D01*
D14*
X48466Y98193D02*
X49579Y99306D01*
X44012Y93739D02*
X45125Y94852D01*
X50136Y87614D02*
X55704Y93182D01*
X56863Y68557D02*
X64737D01*
X63163Y59895D02*
X64737D01*
X56863D02*
X58438D01*
X18229Y74226D02*
Y82100D01*
X9567Y74226D02*
Y75801D01*
Y80525D02*
Y82100D01*
X74242Y42399D02*
X74636D01*
X74242Y54210D02*
X74636D01*
X62825D02*
X63219D01*
X62825Y42399D02*
X63219D01*
X74636D02*
Y54210D01*
X62825Y42399D02*
Y54210D01*
M02*
