G04*
G04 #@! TF.GenerationSoftware,Altium Limited,Altium Designer,20.0.10 (225)*
G04*
G04 Layer_Color=16711935*
%FSLAX25Y25*%
%MOIN*%
G70*
G01*
G75*
%ADD35C,0.07099*%
G04:AMPARAMS|DCode=40|XSize=98.55mil|YSize=98.55mil|CornerRadius=26.64mil|HoleSize=0mil|Usage=FLASHONLY|Rotation=90.000|XOffset=0mil|YOffset=0mil|HoleType=Round|Shape=RoundedRectangle|*
%AMROUNDEDRECTD40*
21,1,0.09855,0.04528,0,0,90.0*
21,1,0.04528,0.09855,0,0,90.0*
1,1,0.05328,0.02264,0.02264*
1,1,0.05328,0.02264,-0.02264*
1,1,0.05328,-0.02264,-0.02264*
1,1,0.05328,-0.02264,0.02264*
%
%ADD40ROUNDEDRECTD40*%
%ADD41C,0.09855*%
G04:AMPARAMS|DCode=42|XSize=98.55mil|YSize=98.55mil|CornerRadius=26.64mil|HoleSize=0mil|Usage=FLASHONLY|Rotation=45.000|XOffset=0mil|YOffset=0mil|HoleType=Round|Shape=RoundedRectangle|*
%AMROUNDEDRECTD42*
21,1,0.09855,0.04528,0,0,45.0*
21,1,0.04528,0.09855,0,0,45.0*
1,1,0.05328,0.03202,0.00000*
1,1,0.05328,0.00000,-0.03202*
1,1,0.05328,-0.03202,0.00000*
1,1,0.05328,0.00000,0.03202*
%
%ADD42ROUNDEDRECTD42*%
G04:AMPARAMS|DCode=43|XSize=98.55mil|YSize=98.55mil|CornerRadius=26.64mil|HoleSize=0mil|Usage=FLASHONLY|Rotation=0.000|XOffset=0mil|YOffset=0mil|HoleType=Round|Shape=RoundedRectangle|*
%AMROUNDEDRECTD43*
21,1,0.09855,0.04528,0,0,0.0*
21,1,0.04528,0.09855,0,0,0.0*
1,1,0.05328,0.02264,-0.02264*
1,1,0.05328,-0.02264,-0.02264*
1,1,0.05328,-0.02264,0.02264*
1,1,0.05328,0.02264,0.02264*
%
%ADD43ROUNDEDRECTD43*%
G04:AMPARAMS|DCode=44|XSize=98.55mil|YSize=98.55mil|CornerRadius=26.64mil|HoleSize=0mil|Usage=FLASHONLY|Rotation=315.000|XOffset=0mil|YOffset=0mil|HoleType=Round|Shape=RoundedRectangle|*
%AMROUNDEDRECTD44*
21,1,0.09855,0.04528,0,0,315.0*
21,1,0.04528,0.09855,0,0,315.0*
1,1,0.05328,0.00000,-0.03202*
1,1,0.05328,-0.03202,0.00000*
1,1,0.05328,0.00000,0.03202*
1,1,0.05328,0.03202,0.00000*
%
%ADD44ROUNDEDRECTD44*%
%ADD45C,0.03950*%
%ADD48R,0.03162X0.03556*%
%ADD49R,0.03556X0.03162*%
%ADD52C,0.02769*%
%ADD53C,0.08674*%
%ADD54C,0.04737*%
%ADD55C,0.05524*%
G04:AMPARAMS|DCode=80|XSize=35.56mil|YSize=30.44mil|CornerRadius=0mil|HoleSize=0mil|Usage=FLASHONLY|Rotation=45.000|XOffset=0mil|YOffset=0mil|HoleType=Round|Shape=Rectangle|*
%AMROTATEDRECTD80*
4,1,4,-0.00181,-0.02334,-0.02334,-0.00181,0.00181,0.02334,0.02334,0.00181,-0.00181,-0.02334,0.0*
%
%ADD80ROTATEDRECTD80*%

G04:AMPARAMS|DCode=81|XSize=26.5mil|YSize=21.78mil|CornerRadius=0mil|HoleSize=0mil|Usage=FLASHONLY|Rotation=225.000|XOffset=0mil|YOffset=0mil|HoleType=Round|Shape=Rectangle|*
%AMROTATEDRECTD81*
4,1,4,0.00167,0.01707,0.01707,0.00167,-0.00167,-0.01707,-0.01707,-0.00167,0.00167,0.01707,0.0*
%
%ADD81ROTATEDRECTD81*%

%ADD82R,0.02650X0.02178*%
%ADD83R,0.03556X0.03044*%
%ADD84R,0.03044X0.03556*%
%ADD85R,0.02178X0.02650*%
%ADD86R,0.02769X0.03556*%
%ADD87R,0.03556X0.02769*%
%ADD88R,0.10052X0.07021*%
%ADD89R,0.01824X0.04107*%
G04:AMPARAMS|DCode=90|XSize=31.62mil|YSize=39.5mil|CornerRadius=0mil|HoleSize=0mil|Usage=FLASHONLY|Rotation=315.000|XOffset=0mil|YOffset=0mil|HoleType=Round|Shape=Rectangle|*
%AMROTATEDRECTD90*
4,1,4,-0.02514,-0.00278,0.00278,0.02514,0.02514,0.00278,-0.00278,-0.02514,-0.02514,-0.00278,0.0*
%
%ADD90ROTATEDRECTD90*%

%ADD91R,0.01706X0.03556*%
%ADD92C,0.03556*%
D35*
X63224Y13762D02*
D03*
X57600Y8138D02*
D03*
D40*
X2071Y73255D02*
D03*
X77154Y61864D02*
D03*
D41*
X2071Y62034D02*
D03*
X8668Y90606D02*
D03*
X34061Y106465D02*
D03*
X62476Y98540D02*
D03*
X33790Y4315D02*
D03*
X77154Y73084D02*
D03*
X2071Y73255D02*
D03*
X16602Y98540D02*
D03*
X45282Y106465D02*
D03*
X70410Y90606D02*
D03*
X45010Y4315D02*
D03*
X77154Y61864D02*
D03*
D42*
X16602Y98540D02*
D03*
D43*
X45282Y106465D02*
D03*
X45010Y4315D02*
D03*
D44*
X70410Y90606D02*
D03*
D45*
X57600Y8138D02*
D03*
X63224Y13762D02*
D03*
X37366Y35289D02*
D03*
D48*
X46815Y55269D02*
D03*
X42878D02*
D03*
X46815Y50446D02*
D03*
X42878D02*
D03*
D49*
X70509Y36273D02*
D03*
Y32336D02*
D03*
X65952Y36175D02*
D03*
Y32238D02*
D03*
X20578Y33714D02*
D03*
Y37651D02*
D03*
X44729Y28863D02*
D03*
Y32800D02*
D03*
X48528D02*
D03*
Y28863D02*
D03*
X58964Y42474D02*
D03*
Y46411D02*
D03*
X52169Y28891D02*
D03*
Y32828D02*
D03*
D52*
X58928Y57966D02*
D03*
X16621Y68164D02*
D03*
X21635Y45722D02*
D03*
X25966D02*
D03*
X21635Y41391D02*
D03*
X25966D02*
D03*
X40656Y38104D02*
D03*
X29987Y12454D02*
D03*
X64482Y70820D02*
D03*
X56306Y90338D02*
D03*
X47352Y84087D02*
D03*
X52643Y104482D02*
D03*
X12999Y85272D02*
D03*
X21312Y79457D02*
D03*
X5269Y80958D02*
D03*
X9948Y42572D02*
D03*
X53747Y84305D02*
D03*
X29534Y59108D02*
D03*
X28747Y30466D02*
D03*
X31897Y63832D02*
D03*
X69298Y59305D02*
D03*
X29141Y70033D02*
D03*
X35145Y80958D02*
D03*
X20578Y27120D02*
D03*
X17773Y58320D02*
D03*
X16641Y30860D02*
D03*
X9751Y47789D02*
D03*
X28747Y25840D02*
D03*
D53*
X2071Y62034D02*
D03*
X8668Y90606D02*
D03*
X34061Y106465D02*
D03*
X62476Y98540D02*
D03*
X33790Y4315D02*
D03*
X77154Y73084D02*
D03*
D54*
X17217Y12454D02*
D03*
X14208Y16447D02*
D03*
X11199Y20441D02*
D03*
D55*
X22448Y64127D02*
D03*
D80*
X48466Y94852D02*
D03*
X51250Y92068D02*
D03*
D81*
X54270Y94253D02*
D03*
X52461Y96063D02*
D03*
X50651Y97873D02*
D03*
X45445Y92667D02*
D03*
X47255Y90857D02*
D03*
X49064Y89048D02*
D03*
D82*
X64482Y66785D02*
D03*
Y64226D02*
D03*
Y61667D02*
D03*
X57119D02*
D03*
Y64226D02*
D03*
Y66785D02*
D03*
D83*
X60800Y66194D02*
D03*
Y62257D02*
D03*
D84*
X38688Y16447D02*
D03*
X34751D02*
D03*
X15867Y78163D02*
D03*
X11930D02*
D03*
D85*
X34160Y12766D02*
D03*
X36719D02*
D03*
X39278D02*
D03*
Y20129D02*
D03*
X36719D02*
D03*
X34160D02*
D03*
X16457Y74482D02*
D03*
X13898D02*
D03*
X11339D02*
D03*
Y81844D02*
D03*
X13898D02*
D03*
X16457D02*
D03*
D86*
X24982Y70033D02*
D03*
X20651D02*
D03*
D87*
X54154Y49856D02*
D03*
Y54187D02*
D03*
X40656Y28694D02*
D03*
Y33025D02*
D03*
D88*
X68731Y48304D02*
D03*
D89*
X64794Y42654D02*
D03*
X66762D02*
D03*
X68731D02*
D03*
X70699D02*
D03*
X72668D02*
D03*
Y53954D02*
D03*
X70699D02*
D03*
X68731D02*
D03*
X66762D02*
D03*
X64794D02*
D03*
D90*
X31024Y75250D02*
D03*
X24064Y82209D02*
D03*
D91*
X48882Y39423D02*
D03*
X46913D02*
D03*
X44945D02*
D03*
X48882Y44935D02*
D03*
X46913D02*
D03*
X44945D02*
D03*
D92*
X53606Y39915D02*
D03*
M02*
