G04*
G04 #@! TF.GenerationSoftware,Altium Limited,Altium Designer,18.1.9 (240)*
G04*
G04 Layer_Color=8388736*
%FSLAX25Y25*%
%MOIN*%
G70*
G01*
G75*
%ADD58C,0.00591*%
%ADD93C,0.00622*%
D58*
X81947Y115867D02*
G03*
X74876Y115867I-3536J-3536D01*
G01*
X90188Y100555D02*
G03*
X90188Y107626I-3536J3536D01*
G01*
X-7600Y104458D02*
G03*
X-7600Y97387I3536J-3536D01*
G01*
X7711Y112698D02*
G03*
X640Y112698I-3536J-3536D01*
G01*
X45184Y-30709D02*
G03*
X50183Y-25709I0J5000D01*
G01*
X28530D02*
G03*
X33530Y-30709I5000J0D01*
G01*
X33835Y127953D02*
G03*
X28835Y122953I0J-5000D01*
G01*
X50489D02*
G03*
X45489Y127953I-5000J0D01*
G01*
X102284Y54309D02*
G03*
X107283Y59309I0J5000D01*
G01*
Y70963D02*
G03*
X102284Y75963I-5000J0D01*
G01*
X-11732Y76017D02*
G03*
X-16732Y71017I0J-5000D01*
G01*
Y59364D02*
G03*
X-11732Y54364I5000J0D01*
G01*
X80674Y111717D02*
X86242Y106150D01*
X75609Y106664D02*
X81177Y101096D01*
X-3479Y103097D02*
X2089Y108665D01*
X1575Y98032D02*
X7142Y103599D01*
X35471Y124016D02*
X43345D01*
X35463Y116861D02*
X43337D01*
X35420Y-19685D02*
X43294D01*
X35411Y-26840D02*
X43285D01*
X103347Y61024D02*
Y68898D01*
X96191Y61032D02*
Y68906D01*
X-5709Y61057D02*
Y68931D01*
X-12864Y61065D02*
Y68939D01*
X66479Y107470D02*
X74876Y115867D01*
X81947D02*
X90188Y107626D01*
X81354Y91530D02*
X90188Y100555D01*
X-7600Y97387D02*
X-2282Y92068D01*
X-7600Y104458D02*
X640Y112698D01*
X7711D02*
X12759Y107651D01*
X50183Y-23228D02*
Y-7480D01*
Y-25709D02*
Y-23228D01*
X33530Y-30709D02*
X45184D01*
X28530Y-25709D02*
Y-23228D01*
X28503D02*
Y-7168D01*
Y-23228D02*
X28530D01*
X28835Y114436D02*
Y122953D01*
X33835Y127953D02*
X45489D01*
X50489Y114197D02*
Y122953D01*
X86853Y54309D02*
X102284D01*
X107283Y59309D02*
Y70963D01*
X87044Y75963D02*
X102284D01*
X-11732Y76017D02*
X-8142D01*
X-16732Y59364D02*
Y71017D01*
X-11732Y54364D02*
X-8086D01*
D93*
X87044Y75963D02*
G03*
X81354Y91530I-44428J-7416D01*
G01*
X66479Y107470D02*
G03*
X50489Y114197I-26343J-40246D01*
G01*
X28835Y114436D02*
G03*
X12759Y107651I11743J-50257D01*
G01*
X-2282Y92068D02*
G03*
X-8142Y76017I38199J-23041D01*
G01*
X80674Y111717D02*
G03*
X75609Y106664I-2227J-2833D01*
G01*
X81177Y101096D02*
G03*
X86242Y106150I2227J2833D01*
G01*
X-3479Y103097D02*
G03*
X1575Y98032I2833J-2227D01*
G01*
X7142Y103599D02*
G03*
X2089Y108665I-2833J2227D01*
G01*
X35471Y124016D02*
G03*
X35463Y116861I428J-3578D01*
G01*
X43337D02*
G03*
X43345Y124016I-428J3578D01*
G01*
X35420Y-19685D02*
G03*
X35411Y-26840I428J-3578D01*
G01*
X43285D02*
G03*
X43294Y-19685I-428J3578D01*
G01*
X103347Y68898D02*
G03*
X96191Y68906I-3578J-428D01*
G01*
Y61032D02*
G03*
X103347Y61024I3578J428D01*
G01*
X-5709Y68931D02*
G03*
X-12864Y68939I-3578J-428D01*
G01*
Y61065D02*
G03*
X-5709Y61057I3578J428D01*
G01*
X50042Y-7297D02*
G03*
X86967Y54290I-59770J77697D01*
G01*
X-8086Y54309D02*
G03*
X28568Y-7085I96697J16092D01*
G01*
M02*
