G04*
G04 #@! TF.GenerationSoftware,Altium Limited,Altium Designer,20.0.10 (225)*
G04*
G04 Layer_Color=65535*
%FSLAX25Y25*%
%MOIN*%
G70*
G01*
G75*
%ADD10C,0.01575*%
%ADD11C,0.00984*%
%ADD12C,0.00787*%
%ADD13C,0.01000*%
D10*
X66641Y31253D02*
G03*
X66641Y31253I-197J0D01*
G01*
D11*
X12974Y51726D02*
G03*
X12974Y51726I-492J0D01*
G01*
D12*
X57782Y32041D02*
X63885D01*
X57782Y40801D02*
X63885D01*
X52643Y44738D02*
X55438Y41942D01*
X59416D01*
X15041Y50545D02*
Y52316D01*
X16812D01*
X30788D02*
X32560D01*
Y50545D02*
Y52316D01*
Y34797D02*
Y36568D01*
X30788Y34797D02*
X32560D01*
X15041D02*
Y36568D01*
Y34797D02*
X16812D01*
X43468Y77415D02*
X45830D01*
Y57730D02*
Y77415D01*
X43468Y57730D02*
X45830D01*
X32838Y77415D02*
X35201D01*
X32838Y57730D02*
Y77415D01*
Y57730D02*
X35201D01*
X9272Y103891D02*
X11536D01*
X57504Y17681D02*
X59670D01*
X-6988Y73333D02*
X-4823D01*
X43457Y-3635D02*
X45623D01*
X83724Y62002D02*
X85720D01*
X75702Y95423D02*
X77867D01*
X43799Y114665D02*
X46063D01*
D13*
X33342Y83783D02*
X47122D01*
Y94609D01*
X31374D02*
X47122D01*
X31374Y83783D02*
Y94609D01*
Y83783D02*
X47122D01*
Y85720D02*
Y85735D01*
X33326Y83783D02*
X33342D01*
X31374Y85735D02*
X33326Y83783D01*
X31492Y24462D02*
X45271D01*
X31492Y13635D02*
Y24462D01*
Y13635D02*
X47240D01*
Y24462D01*
X31492D02*
X47240D01*
X31492Y22509D02*
Y22525D01*
X45271Y24462D02*
X45287D01*
X47240Y22509D01*
X782Y42040D02*
X-726Y40242D01*
X1617Y40114D01*
X735Y36871D02*
X3624Y38124D01*
X1553Y38942D01*
X2389Y37016D01*
X1362Y35427D02*
X1843Y35636D01*
X2052Y35154D01*
X1571Y34946D01*
X1362Y35427D01*
X2406Y33020D02*
X2823Y32057D01*
X2614Y32538D01*
X5503Y33791D01*
X4813Y34064D01*
X32382Y-2265D02*
Y-5413D01*
X33956D01*
X34481Y-4889D01*
Y-2790D01*
X33956Y-2265D01*
X32382D01*
X83809Y74934D02*
Y71786D01*
X85383D01*
X85908Y72310D01*
Y74410D01*
X85383Y74934D01*
X83809D01*
X67550Y106072D02*
Y102923D01*
X69124D01*
X69649Y103448D01*
Y105547D01*
X69124Y106072D01*
X67550D01*
X32491Y116494D02*
Y113345D01*
X34065D01*
X34590Y113870D01*
Y115969D01*
X34065Y116494D01*
X32491D01*
X842Y97758D02*
Y94609D01*
X2416D01*
X2941Y95134D01*
Y97233D01*
X2416Y97758D01*
X842D01*
X-6988Y63437D02*
Y60289D01*
X-5414D01*
X-4889Y60814D01*
Y62913D01*
X-5414Y63437D01*
X-6988D01*
X52776Y12847D02*
X54875D01*
X53826Y13897D02*
Y11798D01*
X20985Y13438D02*
X23084D01*
X17540Y19147D02*
X19639D01*
X18589Y20196D02*
Y18097D01*
X14981Y25544D02*
Y22395D01*
X16555D01*
X17080Y22920D01*
Y25019D01*
X16555Y25544D01*
X14981D01*
X41500Y44738D02*
X44649D01*
Y43163D01*
X44124Y42639D01*
X43075D01*
X42550Y43163D01*
Y44738D01*
Y43688D02*
X41500Y42639D01*
Y41589D02*
Y40540D01*
Y41064D01*
X44649D01*
X44124Y41589D01*
Y38965D02*
X44649Y38441D01*
Y37391D01*
X44124Y36866D01*
X42025D01*
X41500Y37391D01*
Y38441D01*
X42025Y38965D01*
X44124D01*
X62818Y29714D02*
X60194D01*
X59670Y29189D01*
Y28140D01*
X60194Y27615D01*
X62818D01*
X62293Y26566D02*
X62818Y26041D01*
Y24991D01*
X62293Y24467D01*
X61769D01*
X61244Y24991D01*
Y25516D01*
Y24991D01*
X60719Y24467D01*
X60194D01*
X59670Y24991D01*
Y26041D01*
X60194Y26566D01*
X55289Y59502D02*
X58437D01*
Y57927D01*
X57912Y57402D01*
X56863D01*
X56338Y57927D01*
Y59502D01*
Y58452D02*
X55289Y57402D01*
Y56353D02*
Y55303D01*
Y55828D01*
X58437D01*
X57912Y56353D01*
X55289Y52155D02*
X58437D01*
X56863Y53729D01*
Y51630D01*
X69643Y46411D02*
Y49559D01*
X71217D01*
X71742Y49035D01*
Y47985D01*
X71217Y47460D01*
X69643D01*
X70692D02*
X71742Y46411D01*
X72791D02*
X73841D01*
X73316D01*
Y49559D01*
X72791Y49035D01*
X75415D02*
X75940Y49559D01*
X76989D01*
X77514Y49035D01*
Y48510D01*
X76989Y47985D01*
X76464D01*
X76989D01*
X77514Y47460D01*
Y46935D01*
X76989Y46411D01*
X75940D01*
X75415Y46935D01*
X72673Y32336D02*
X69524D01*
Y30237D01*
X72148Y29187D02*
X72673Y28662D01*
Y27613D01*
X72148Y27088D01*
X71623D01*
X71098Y27613D01*
Y28138D01*
Y27613D01*
X70574Y27088D01*
X70049D01*
X69524Y27613D01*
Y28662D01*
X70049Y29187D01*
X54037Y27481D02*
X54562Y28006D01*
Y29056D01*
X54037Y29580D01*
X51938D01*
X51414Y29056D01*
Y28006D01*
X51938Y27481D01*
X54562Y26432D02*
Y24333D01*
X54037D01*
X51938Y26432D01*
X51414D01*
X49012Y48877D02*
X48487Y49402D01*
X47438D01*
X46913Y48877D01*
Y46778D01*
X47438Y46253D01*
X48487D01*
X49012Y46778D01*
X52161Y49402D02*
X50062D01*
Y47828D01*
X51111Y48353D01*
X51636D01*
X52161Y47828D01*
Y46778D01*
X51636Y46253D01*
X50586D01*
X50062Y46778D01*
X71397Y53956D02*
X70872Y54481D01*
X69823D01*
X69298Y53956D01*
Y51857D01*
X69823Y51332D01*
X70872D01*
X71397Y51857D01*
X74021Y51332D02*
Y54481D01*
X72447Y52907D01*
X74546D01*
X61981Y68950D02*
X65130D01*
Y67376D01*
X64605Y66851D01*
X63556D01*
X63031Y67376D01*
Y68950D01*
Y67901D02*
X61981Y66851D01*
X65130Y63703D02*
Y65802D01*
X63556D01*
X64081Y64752D01*
Y64227D01*
X63556Y63703D01*
X62506D01*
X61981Y64227D01*
Y65277D01*
X62506Y65802D01*
X65136Y79457D02*
Y82606D01*
X66711D01*
X67235Y82081D01*
Y81031D01*
X66711Y80507D01*
X65136D01*
X66186D02*
X67235Y79457D01*
X69859D02*
Y82606D01*
X68285Y81031D01*
X70384D01*
X28636Y96588D02*
Y99737D01*
X30210D01*
X30735Y99212D01*
Y98163D01*
X30210Y97638D01*
X28636D01*
X29685D02*
X30735Y96588D01*
X31784Y99212D02*
X32309Y99737D01*
X33359D01*
X33883Y99212D01*
Y98687D01*
X33359Y98163D01*
X32834D01*
X33359D01*
X33883Y97638D01*
Y97113D01*
X33359Y96588D01*
X32309D01*
X31784Y97113D01*
X22816Y85272D02*
Y88421D01*
X24390D01*
X24915Y87896D01*
Y86847D01*
X24390Y86322D01*
X22816D01*
X23866D02*
X24915Y85272D01*
X28064D02*
X25965D01*
X28064Y87371D01*
Y87896D01*
X27539Y88421D01*
X26489D01*
X25965Y87896D01*
X14417Y66082D02*
X17566D01*
Y64507D01*
X17041Y63982D01*
X15991D01*
X15467Y64507D01*
Y66082D01*
Y65032D02*
X14417Y63982D01*
Y62933D02*
Y61883D01*
Y62408D01*
X17566D01*
X17041Y62933D01*
X50063Y78694D02*
Y81843D01*
X51637D01*
X52162Y81318D01*
Y80269D01*
X51637Y79744D01*
X50063D01*
X51112D02*
X52162Y78694D01*
X53211Y81318D02*
X53736Y81843D01*
X54786D01*
X55310Y81318D01*
Y80793D01*
X54786Y80269D01*
X55310Y79744D01*
Y79219D01*
X54786Y78694D01*
X53736D01*
X53211Y79219D01*
Y79744D01*
X53736Y80269D01*
X53211Y80793D01*
Y81318D01*
X53736Y80269D02*
X54786D01*
X24637Y20760D02*
X25162Y21285D01*
Y22335D01*
X24637Y22859D01*
X22538D01*
X22014Y22335D01*
Y21285D01*
X22538Y20760D01*
X25162Y17612D02*
X24637Y18661D01*
X23588Y19711D01*
X22538D01*
X22014Y19186D01*
Y18136D01*
X22538Y17612D01*
X23063D01*
X23588Y18136D01*
Y19711D01*
X52687Y98247D02*
X53211Y98772D01*
Y99822D01*
X52687Y100346D01*
X50587D01*
X50063Y99822D01*
Y98772D01*
X50587Y98247D01*
X50063Y95099D02*
Y97198D01*
X52162Y95099D01*
X52687D01*
X53211Y95623D01*
Y96673D01*
X52687Y97198D01*
X22014Y60311D02*
Y57687D01*
X22538Y57162D01*
X23588D01*
X24113Y57687D01*
Y60311D01*
X26736Y57162D02*
Y60311D01*
X25162Y58737D01*
X27261D01*
M02*
