M48
;Layer_Color=9474304
;FILE_FORMAT=2:5
INCH,TZ
;TYPE=PLATED
T1F00S00C0.01181
T2F00S00C0.01968
T3F00S00C0.02362
T4F00S00C0.03150
T5F00S00C0.03150
T6F00S00C0.05118
%
T01
X21635Y41391
Y45722
X25966
Y41391
T02
X38838Y24434
X36343Y32379
X37956Y36903
X40906Y48526
X53747
X49896Y40042
X57684Y31493
X52332Y23158
X71188Y26287
X69298Y59305
X59214Y58571
X29534Y59108
X31897Y63832
X29534Y70291
X16621Y68164
X17773Y58320
X9751Y47789
X9948Y42572
X16641Y30860
X20578Y27120
X28747Y25840
Y30466
X32598Y18079
X2367Y17784
X4826Y13692
X7276Y9352
X5269Y80958
X12999Y85272
X21312Y79457
X34617Y83163
X47352Y84087
X53747Y84305
X56306Y90338
X52643Y104482
X64482Y70820
T03
X11930Y11827
X9430Y16157
X6930Y20487
T04
X59532Y167
X20162
T05
X22448Y64127
T06
X45010Y-5458
X79123Y61962
X116Y62036
X33790Y-5458
X116Y73256
X7276Y91998
X15210Y99932
X34061Y108433
X45282
X63861Y99939
X71795Y92005
X79123Y73183
M30
