G04*
G04 #@! TF.GenerationSoftware,Altium Limited,Altium Designer,20.0.10 (225)*
G04*
G04 Layer_Color=32896*
%FSLAX25Y25*%
%MOIN*%
G70*
G01*
G75*
%ADD12C,0.00500*%
%ADD93C,0.00000*%
D12*
X47746Y87057D02*
G03*
X47746Y87057I-394J0D01*
G01*
D02*
G03*
X47746Y87057I-394J0D01*
G01*
X67493Y66982D02*
G03*
X67493Y66982I-394J0D01*
G01*
D02*
G03*
X67493Y66982I-394J0D01*
G01*
X52725Y47478D02*
G03*
X52725Y47478I-394J0D01*
G01*
D02*
G03*
X52725Y47478I-394J0D01*
G01*
X17048Y71864D02*
G03*
X17048Y71864I-394J0D01*
G01*
D02*
G03*
X17048Y71864I-394J0D01*
G01*
X44290Y93460D02*
X49858Y87892D01*
X44290Y93460D02*
X49858Y99028D01*
X55426Y93460D01*
X49858Y87892D02*
X55426Y93460D01*
X44290D02*
X49858Y87892D01*
X44290Y93460D02*
X49858Y99028D01*
X55426Y93460D01*
X49858Y87892D02*
X55426Y93460D01*
X56863Y68163D02*
X64737D01*
X56863Y60289D02*
Y68163D01*
Y60289D02*
X64737D01*
Y68163D01*
X56863D02*
X64737D01*
X56863Y60289D02*
Y68163D01*
Y60289D02*
X64737D01*
Y68163D01*
X45929Y50540D02*
X51496Y44972D01*
X40361D02*
X45929Y50540D01*
X40361Y44972D02*
X45929Y39405D01*
X51496Y44972D01*
X45929Y50540D02*
X51496Y44972D01*
X40361D02*
X45929Y50540D01*
X40361Y44972D02*
X45929Y39405D01*
X51496Y44972D01*
X17835Y74226D02*
Y82100D01*
X9961D02*
X17835D01*
X9961Y74226D02*
Y82100D01*
Y74226D02*
X17835D01*
Y82100D01*
X9961D02*
X17835D01*
X9961Y74226D02*
Y82100D01*
Y74226D02*
X17835D01*
X62825Y42399D02*
Y54210D01*
X74636D01*
Y42399D02*
Y54210D01*
X62825Y42399D02*
X74636D01*
X62825D02*
Y54210D01*
X74636D01*
Y42399D02*
Y54210D01*
X62825Y42399D02*
X74636D01*
D93*
X71959Y32555D02*
G03*
X70262Y30858I-848J-848D01*
G01*
X71959Y32555D02*
G03*
X70262Y30858I-848J-848D01*
G01*
X62414Y34606D02*
X68212Y40404D01*
X62414Y34606D02*
X68212Y28808D01*
X70262Y30858D01*
X71959Y32555D01*
X74010Y34606D01*
X68212Y40404D02*
X74010Y34606D01*
X62414D02*
X68212Y40404D01*
X62414Y34606D02*
X68212Y28808D01*
X70262Y30858D01*
X71959Y32555D01*
X74010Y34606D01*
X68212Y40404D02*
X74010Y34606D01*
M02*
