G04*
G04 #@! TF.GenerationSoftware,Altium Limited,Altium Designer,20.0.10 (225)*
G04*
G04 Layer_Color=65280*
%FSLAX25Y25*%
%MOIN*%
G70*
G01*
G75*
%ADD10C,0.01575*%
%ADD12C,0.00787*%
%ADD13C,0.01000*%
%ADD93C,0.00500*%
D10*
X49539Y85387D02*
G03*
X49539Y85387I-98J0D01*
G01*
X66903Y69639D02*
G03*
X66903Y69639I-98J0D01*
G01*
X31404Y22451D02*
G03*
X31404Y22451I-98J0D01*
G01*
X19410Y72159D02*
G03*
X19410Y72159I-98J0D01*
G01*
X62136Y56080D02*
G03*
X62136Y56080I-197J0D01*
G01*
X51244Y36962D02*
G03*
X51244Y36962I-197J0D01*
G01*
D12*
X18622Y17828D02*
Y20190D01*
X17441Y19009D02*
X19804D01*
X20832Y13635D02*
X23195D01*
X26987Y75389D02*
X30885Y79286D01*
X50555Y39127D02*
Y45230D01*
X43271Y39127D02*
Y45230D01*
X43701Y114665D02*
X46063D01*
X83724Y62002D02*
X86086D01*
X57504Y17681D02*
X59866D01*
X43457Y-3635D02*
X45820D01*
X75702Y95423D02*
X78064D01*
X9272Y103891D02*
X11634D01*
X-6988Y73333D02*
X-4626D01*
D13*
X17181Y25528D02*
Y22379D01*
X15607D01*
X15082Y22904D01*
Y25003D01*
X15607Y25528D01*
X17181D01*
X34428Y116494D02*
Y113345D01*
X32853D01*
X32329Y113870D01*
Y115969D01*
X32853Y116494D01*
X34428D01*
X34357Y-2265D02*
Y-5413D01*
X32783D01*
X32258Y-4889D01*
Y-2790D01*
X32783Y-2265D01*
X34357D01*
X85720Y74934D02*
Y71786D01*
X84146D01*
X83621Y72310D01*
Y74410D01*
X84146Y74934D01*
X85720D01*
X69551Y105930D02*
Y102782D01*
X67977D01*
X67452Y103306D01*
Y105405D01*
X67977Y105930D01*
X69551D01*
X2767Y97758D02*
Y94609D01*
X1192D01*
X667Y95134D01*
Y97233D01*
X1192Y97758D01*
X2767D01*
X-5098Y63437D02*
Y60289D01*
X-6672D01*
X-7197Y60814D01*
Y62913D01*
X-6672Y63437D01*
X-5098D01*
X52776Y12847D02*
X54875D01*
X53826Y13897D02*
Y11798D01*
X39531Y44737D02*
Y42113D01*
X39006Y41588D01*
X37957D01*
X37432Y42113D01*
Y44737D01*
X36382Y41588D02*
X35333D01*
X35857D01*
Y44737D01*
X36382Y44212D01*
X48527Y17681D02*
X51676D01*
Y19256D01*
X51151Y19780D01*
X50102D01*
X49577Y19256D01*
Y17681D01*
Y18731D02*
X48527Y19780D01*
Y20830D02*
Y21879D01*
Y21355D01*
X51676D01*
X51151Y20830D01*
X51676Y25553D02*
X51151Y24503D01*
X50102Y23454D01*
X49052D01*
X48527Y23979D01*
Y25028D01*
X49052Y25553D01*
X49577D01*
X50102Y25028D01*
Y23454D01*
X43457Y17629D02*
X46606D01*
Y19203D01*
X46081Y19728D01*
X45032D01*
X44507Y19203D01*
Y17629D01*
Y18678D02*
X43457Y19728D01*
Y20777D02*
Y21827D01*
Y21302D01*
X46606D01*
X46081Y20777D01*
X46606Y25500D02*
Y23401D01*
X45032D01*
X45556Y24451D01*
Y24975D01*
X45032Y25500D01*
X43982D01*
X43457Y24975D01*
Y23926D01*
X43982Y23401D01*
X39235Y48675D02*
Y51823D01*
X37660D01*
X37135Y51299D01*
Y50249D01*
X37660Y49724D01*
X39235D01*
X38185D02*
X37135Y48675D01*
X36086D02*
X35036D01*
X35561D01*
Y51823D01*
X36086Y51299D01*
X31363Y48675D02*
X33462D01*
X31363Y50774D01*
Y51299D01*
X31888Y51823D01*
X32937D01*
X33462Y51299D01*
X39235Y54285D02*
Y57434D01*
X37660D01*
X37135Y56909D01*
Y55860D01*
X37660Y55335D01*
X39235D01*
X38185D02*
X37135Y54285D01*
X36086D02*
X35036D01*
X35561D01*
Y57434D01*
X36086Y56909D01*
X33462Y54285D02*
X32413D01*
X32937D01*
Y57434D01*
X33462Y56909D01*
X56230Y22483D02*
X56755Y21959D01*
Y20909D01*
X56230Y20384D01*
X54131D01*
X53606Y20909D01*
Y21959D01*
X54131Y22483D01*
X56230Y23533D02*
X56755Y24058D01*
Y25107D01*
X56230Y25632D01*
X55705D01*
X55180Y25107D01*
Y24582D01*
Y25107D01*
X54655Y25632D01*
X54131D01*
X53606Y25107D01*
Y24058D01*
X54131Y23533D01*
X32704Y85249D02*
Y82100D01*
X31130D01*
X30605Y82625D01*
Y84724D01*
X31130Y85249D01*
X32704D01*
X29555Y82100D02*
X28506D01*
X29031D01*
Y85249D01*
X29555Y84724D01*
X17034Y34502D02*
Y37650D01*
X15460D01*
X14935Y37125D01*
Y36076D01*
X15460Y35551D01*
X17034D01*
X15985D02*
X14935Y34502D01*
X13886D02*
X12836D01*
X13361D01*
Y37650D01*
X13886Y37125D01*
X11262D02*
X10737Y37650D01*
X9688D01*
X9163Y37125D01*
Y36601D01*
X9688Y36076D01*
X9163Y35551D01*
Y35026D01*
X9688Y34502D01*
X10737D01*
X11262Y35026D01*
Y35551D01*
X10737Y36076D01*
X11262Y36601D01*
Y37125D01*
X10737Y36076D02*
X9688D01*
X13281Y70741D02*
X11182D01*
X12231D01*
Y67592D01*
X10132D02*
X9083D01*
X9607D01*
Y70741D01*
X10132Y70216D01*
X81913Y50051D02*
Y47427D01*
X81389Y46902D01*
X80339D01*
X79814Y47427D01*
Y50051D01*
X76666Y46902D02*
X78765D01*
X76666Y49002D01*
Y49526D01*
X77191Y50051D01*
X78240D01*
X78765Y49526D01*
X29987Y19407D02*
X27887D01*
X28937D01*
Y16259D01*
X25264D02*
Y19407D01*
X26838Y17833D01*
X24739D01*
X53747Y65957D02*
X51648D01*
X52697D01*
Y62808D01*
X50598Y65432D02*
X50074Y65957D01*
X49024D01*
X48499Y65432D01*
Y64907D01*
X49024Y64382D01*
X49549D01*
X49024D01*
X48499Y63858D01*
Y63333D01*
X49024Y62808D01*
X50074D01*
X50598Y63333D01*
X43271Y90019D02*
X41172D01*
X42222D01*
Y86871D01*
X38024D02*
X40123D01*
X38024Y88970D01*
Y89495D01*
X38548Y90019D01*
X39598D01*
X40123Y89495D01*
X63316Y23759D02*
X66465D01*
Y25334D01*
X65940Y25859D01*
X64890D01*
X64366Y25334D01*
Y23759D01*
Y24809D02*
X63316Y25859D01*
X66465Y26908D02*
Y29007D01*
X65940D01*
X63841Y26908D01*
X63316D01*
X69200Y23759D02*
X72349D01*
Y25334D01*
X71824Y25859D01*
X70775D01*
X70250Y25334D01*
Y23759D01*
Y24809D02*
X69200Y25859D01*
X72349Y29007D02*
X71824Y27958D01*
X70775Y26908D01*
X69725D01*
X69200Y27433D01*
Y28482D01*
X69725Y29007D01*
X70250D01*
X70775Y28482D01*
Y26908D01*
X60163Y36420D02*
X60687Y35895D01*
Y34846D01*
X60163Y34321D01*
X58064D01*
X57539Y34846D01*
Y35895D01*
X58064Y36420D01*
X57539Y37470D02*
Y38519D01*
Y37995D01*
X60687D01*
X60163Y37470D01*
D93*
X48466Y98193D02*
X49579Y99306D01*
X44012Y93739D02*
X45125Y94852D01*
X50136Y87614D02*
X55704Y93182D01*
X56863Y68557D02*
X64737D01*
X63163Y59895D02*
X64737D01*
X56863D02*
X58438D01*
X41050Y12510D02*
Y14085D01*
Y18810D02*
Y20384D01*
X32389Y12510D02*
Y20384D01*
X18229Y74226D02*
Y82100D01*
X9567Y74226D02*
Y75801D01*
Y80525D02*
Y82100D01*
X74242Y42399D02*
X74636D01*
X74242Y54210D02*
X74636D01*
X62825D02*
X63219D01*
X62825Y42399D02*
X63219D01*
X74636D02*
Y54210D01*
X62825Y42399D02*
Y54210D01*
M02*
