G04*
G04 #@! TF.GenerationSoftware,Altium Limited,Altium Designer,20.0.10 (225)*
G04*
G04 Layer_Physical_Order=1*
G04 Layer_Color=255*
%FSLAX25Y25*%
%MOIN*%
G70*
G01*
G75*
%ADD12C,0.01000*%
%ADD15C,0.07874*%
G04:AMPARAMS|DCode=16|XSize=78.74mil|YSize=78.74mil|CornerRadius=19.68mil|HoleSize=0mil|Usage=FLASHONLY|Rotation=90.000|XOffset=0mil|YOffset=0mil|HoleType=Round|Shape=RoundedRectangle|*
%AMROUNDEDRECTD16*
21,1,0.07874,0.03937,0,0,90.0*
21,1,0.03937,0.07874,0,0,90.0*
1,1,0.03937,0.01968,0.01968*
1,1,0.03937,0.01968,-0.01968*
1,1,0.03937,-0.01968,-0.01968*
1,1,0.03937,-0.01968,0.01968*
%
%ADD16ROUNDEDRECTD16*%
%ADD17R,0.03937X0.02362*%
%ADD18C,0.09055*%
G04:AMPARAMS|DCode=19|XSize=90.55mil|YSize=90.55mil|CornerRadius=22.64mil|HoleSize=0mil|Usage=FLASHONLY|Rotation=45.000|XOffset=0mil|YOffset=0mil|HoleType=Round|Shape=RoundedRectangle|*
%AMROUNDEDRECTD19*
21,1,0.09055,0.04528,0,0,45.0*
21,1,0.04528,0.09055,0,0,45.0*
1,1,0.04528,0.03202,0.00000*
1,1,0.04528,0.00000,-0.03202*
1,1,0.04528,-0.03202,0.00000*
1,1,0.04528,0.00000,0.03202*
%
%ADD19ROUNDEDRECTD19*%
G04:AMPARAMS|DCode=20|XSize=90.55mil|YSize=90.55mil|CornerRadius=22.64mil|HoleSize=0mil|Usage=FLASHONLY|Rotation=90.000|XOffset=0mil|YOffset=0mil|HoleType=Round|Shape=RoundedRectangle|*
%AMROUNDEDRECTD20*
21,1,0.09055,0.04528,0,0,90.0*
21,1,0.04528,0.09055,0,0,90.0*
1,1,0.04528,0.02264,0.02264*
1,1,0.04528,0.02264,-0.02264*
1,1,0.04528,-0.02264,-0.02264*
1,1,0.04528,-0.02264,0.02264*
%
%ADD20ROUNDEDRECTD20*%
G04:AMPARAMS|DCode=21|XSize=90.55mil|YSize=90.55mil|CornerRadius=22.64mil|HoleSize=0mil|Usage=FLASHONLY|Rotation=0.000|XOffset=0mil|YOffset=0mil|HoleType=Round|Shape=RoundedRectangle|*
%AMROUNDEDRECTD21*
21,1,0.09055,0.04528,0,0,0.0*
21,1,0.04528,0.09055,0,0,0.0*
1,1,0.04528,0.02264,-0.02264*
1,1,0.04528,-0.02264,-0.02264*
1,1,0.04528,-0.02264,0.02264*
1,1,0.04528,0.02264,0.02264*
%
%ADD21ROUNDEDRECTD21*%
G04:AMPARAMS|DCode=22|XSize=90.55mil|YSize=90.55mil|CornerRadius=22.64mil|HoleSize=0mil|Usage=FLASHONLY|Rotation=315.000|XOffset=0mil|YOffset=0mil|HoleType=Round|Shape=RoundedRectangle|*
%AMROUNDEDRECTD22*
21,1,0.09055,0.04528,0,0,315.0*
21,1,0.04528,0.09055,0,0,315.0*
1,1,0.04528,0.00000,-0.03202*
1,1,0.04528,-0.03202,0.00000*
1,1,0.04528,0.00000,0.03202*
1,1,0.04528,0.03202,0.00000*
%
%ADD22ROUNDEDRECTD22*%
G04:AMPARAMS|DCode=23|XSize=23.62mil|YSize=22.44mil|CornerRadius=0mil|HoleSize=0mil|Usage=FLASHONLY|Rotation=225.000|XOffset=0mil|YOffset=0mil|HoleType=Round|Shape=Rectangle|*
%AMROTATEDRECTD23*
4,1,4,0.00042,0.01629,0.01629,0.00042,-0.00042,-0.01629,-0.01629,-0.00042,0.00042,0.01629,0.0*
%
%ADD23ROTATEDRECTD23*%

G04:AMPARAMS|DCode=24|XSize=18.5mil|YSize=13.78mil|CornerRadius=0mil|HoleSize=0mil|Usage=FLASHONLY|Rotation=45.000|XOffset=0mil|YOffset=0mil|HoleType=Round|Shape=Rectangle|*
%AMROTATEDRECTD24*
4,1,4,-0.00167,-0.01141,-0.01141,-0.00167,0.00167,0.01141,0.01141,0.00167,-0.00167,-0.01141,0.0*
%
%ADD24ROTATEDRECTD24*%

G04:AMPARAMS|DCode=25|XSize=24mil|YSize=14mil|CornerRadius=0mil|HoleSize=0mil|Usage=FLASHONLY|Rotation=225.000|XOffset=0mil|YOffset=0mil|HoleType=Round|Shape=Rectangle|*
%AMROTATEDRECTD25*
4,1,4,0.00354,0.01344,0.01344,0.00354,-0.00354,-0.01344,-0.01344,-0.00354,0.00354,0.01344,0.0*
%
%ADD25ROTATEDRECTD25*%

G04:AMPARAMS|DCode=26|XSize=27.56mil|YSize=63mil|CornerRadius=0mil|HoleSize=0mil|Usage=FLASHONLY|Rotation=225.000|XOffset=0mil|YOffset=0mil|HoleType=Round|Shape=Rectangle|*
%AMROTATEDRECTD26*
4,1,4,-0.01253,0.03202,0.03202,-0.01253,0.01253,-0.03202,-0.03202,0.01253,-0.01253,0.03202,0.0*
%
%ADD26ROTATEDRECTD26*%

%ADD27R,0.03937X0.00984*%
%ADD28R,0.00984X0.03937*%
%ADD29R,0.10236X0.10236*%
%ADD30R,0.05512X0.03740*%
%ADD31C,0.03150*%
G04:AMPARAMS|DCode=32|XSize=31mil|YSize=38mil|CornerRadius=0mil|HoleSize=0mil|Usage=FLASHONLY|Rotation=135.000|XOffset=0mil|YOffset=0mil|HoleType=Round|Shape=Rectangle|*
%AMROTATEDRECTD32*
4,1,4,0.02439,0.00248,-0.00248,-0.02439,-0.02439,-0.00248,0.00248,0.02439,0.02439,0.00248,0.0*
%
%ADD32ROTATEDRECTD32*%

%ADD33R,0.02362X0.02756*%
%ADD34R,0.02756X0.02362*%
G04:AMPARAMS|DCode=35|XSize=23.62mil|YSize=27.56mil|CornerRadius=0mil|HoleSize=0mil|Usage=FLASHONLY|Rotation=45.000|XOffset=0mil|YOffset=0mil|HoleType=Round|Shape=Rectangle|*
%AMROTATEDRECTD35*
4,1,4,0.00139,-0.01810,-0.01810,0.00139,-0.00139,0.01810,0.01810,-0.00139,0.00139,-0.01810,0.0*
%
%ADD35ROTATEDRECTD35*%

G04:AMPARAMS|DCode=36|XSize=23.62mil|YSize=27.56mil|CornerRadius=0mil|HoleSize=0mil|Usage=FLASHONLY|Rotation=315.000|XOffset=0mil|YOffset=0mil|HoleType=Round|Shape=Rectangle|*
%AMROTATEDRECTD36*
4,1,4,-0.01810,-0.00139,0.00139,0.01810,0.01810,0.00139,-0.00139,-0.01810,-0.01810,-0.00139,0.0*
%
%ADD36ROTATEDRECTD36*%

%ADD63C,0.01968*%
%ADD64C,0.01378*%
%ADD65C,0.01181*%
%ADD66C,0.00591*%
%ADD67C,0.01968*%
%ADD68C,0.02756*%
%ADD69C,0.03937*%
%ADD70C,0.04724*%
G36*
X59505Y52360D02*
X61192Y50674D01*
X66333Y45533D01*
X67446D01*
X71346Y49433D01*
X73431Y47348D01*
Y46848D01*
X68775Y42192D01*
X68003D01*
X66683Y40872D01*
X66015Y40864D01*
X63561Y43318D01*
X63487Y43367D01*
X57886Y48968D01*
X55948Y51228D01*
X52554Y51943D01*
X48879Y50548D01*
X46549Y48217D01*
X45795Y48947D01*
X45791Y49447D01*
X47567Y51228D01*
X52241Y53162D01*
X53366Y53628D01*
X59505Y52360D01*
D02*
G37*
G36*
X65619Y38705D02*
X65619Y38705D01*
X65912Y38509D01*
X65970Y38498D01*
X65995Y38493D01*
X66054Y38434D01*
X66646Y38434D01*
X68647Y36433D01*
X69569Y37355D01*
X71274Y39060D01*
X71552D01*
X72596Y38016D01*
Y37738D01*
X70393Y35534D01*
X69969Y35111D01*
X71188Y33893D01*
X72794Y32286D01*
X73084Y30987D01*
X73861Y25566D01*
X72596Y23781D01*
X65418D01*
X63270Y25929D01*
X65915Y28574D01*
X65915Y28830D01*
X65497Y29247D01*
X65497Y29525D01*
X68258Y32286D01*
X63189Y37355D01*
X62192D01*
X59930Y35093D01*
X59234D01*
X57703Y36624D01*
Y36903D01*
X62435Y41635D01*
X62689D01*
X65619Y38705D01*
D02*
G37*
G36*
X66428Y32322D02*
X66423Y31822D01*
X63839Y29329D01*
X63952Y29216D01*
X63951Y28716D01*
X58996Y23781D01*
X58996Y4867D01*
X61192Y1865D01*
X61192Y-606D01*
X59932Y-1866D01*
X57357Y-2234D01*
X56798Y-1464D01*
Y24812D01*
X62564Y30578D01*
X65679Y33071D01*
X66428Y32322D01*
D02*
G37*
D12*
X42793Y15572D02*
X43404Y14961D01*
X42793Y15572D02*
Y23483D01*
X15210Y98758D02*
X21970Y91998D01*
X15210Y98758D02*
Y99932D01*
X40906Y48263D02*
Y48526D01*
X40273Y47630D02*
X40906Y48263D01*
X40273Y45423D02*
Y47630D01*
Y45423D02*
X41516Y44179D01*
X41843Y24434D02*
X42793Y23483D01*
X38838Y24434D02*
X41843D01*
X9948Y42572D02*
X16025D01*
X45282Y99347D02*
Y108433D01*
X44173Y98239D02*
X45282Y99347D01*
X41500Y98239D02*
X44173D01*
X9751Y47789D02*
X12999Y44541D01*
X16025D01*
X32598Y15601D02*
Y18079D01*
X35476Y15015D02*
X35530Y14961D01*
X33183Y15015D02*
X35476D01*
X32598Y15601D02*
X33183Y15015D01*
X7276Y91998D02*
X8668Y90606D01*
X52332Y23158D02*
Y43775D01*
X37956Y36903D02*
X41908Y40855D01*
Y40952D01*
X43326Y42369D01*
X36862Y40952D02*
X41908D01*
X35242Y42572D02*
X36862Y40952D01*
X31576Y42572D02*
X35242D01*
X50341Y45766D02*
X52332Y43775D01*
X48532Y47575D02*
X50585Y49628D01*
X52644D01*
X34541Y48478D02*
X40273Y54210D01*
X41430D01*
X31576Y48478D02*
X34541D01*
X41214Y52210D02*
X42556D01*
X35513Y46509D02*
X41214Y52210D01*
X41430Y54210D02*
X44729Y57509D01*
X30153Y55888D02*
X38945D01*
X39531Y56474D02*
Y59305D01*
X38945Y55888D02*
X39531Y56474D01*
X42556Y52210D02*
X46814Y56468D01*
X31576Y46509D02*
X35513D01*
X52644Y49628D02*
X53747Y48526D01*
X46814Y56468D02*
Y60359D01*
X72949Y35667D02*
X75809Y38526D01*
X75561Y43084D02*
X75809Y43331D01*
X75561Y40530D02*
Y43084D01*
Y40530D02*
X75809Y40282D01*
Y38526D02*
Y40282D01*
X32068Y28104D02*
X36343Y32379D01*
X28722Y30466D02*
Y35781D01*
X14208Y56950D02*
Y77854D01*
X8668Y83395D02*
Y90606D01*
Y83395D02*
X14208Y77854D01*
X5617Y48359D02*
X14208Y56950D01*
X2128Y48140D02*
X11198Y57210D01*
Y61790D02*
X11199Y61791D01*
X11198Y57210D02*
Y61790D01*
X16621Y68164D02*
Y81650D01*
X12999Y85272D02*
X16621Y81650D01*
Y68164D02*
X18411D01*
X22448Y64127D01*
X54422Y67966D02*
X68215D01*
X46814Y60359D02*
X54422Y67966D01*
X56876Y84607D02*
X59835Y87567D01*
X56876Y76982D02*
Y84607D01*
X44729Y57509D02*
Y64835D01*
X56876Y76982D01*
X8668Y90606D02*
X10242D01*
X13281Y87567D01*
X17605D01*
X19186Y89147D01*
Y89214D01*
X33290Y98239D02*
X37563D01*
X34061Y99010D02*
Y108433D01*
X33290Y98239D02*
X34061Y99010D01*
X26753Y91702D02*
X33290Y98239D01*
X26753Y51332D02*
Y91702D01*
X20848Y31411D02*
Y35781D01*
X17738Y28301D02*
X20848Y31411D01*
X5617Y43182D02*
Y48359D01*
X12368Y28301D02*
X17738D01*
X5617Y43182D02*
X10164Y38635D01*
X16025D01*
X27566Y28104D02*
X32068D01*
X24785Y30885D02*
X27566Y28104D01*
X33144Y91854D02*
X35311D01*
X31897Y90606D02*
X33144Y91854D01*
X29534Y59108D02*
X31798D01*
X47251Y74561D01*
X31897Y63832D02*
Y90606D01*
X47251Y74561D02*
Y80436D01*
X22816Y29358D02*
Y35781D01*
X20578Y27120D02*
X22816Y29358D01*
X24785Y30885D02*
Y35781D01*
X22816Y51332D02*
Y63759D01*
X22448Y64127D02*
X22816Y63759D01*
X21168Y64127D02*
X22448D01*
X17773Y58320D02*
X20848Y55246D01*
Y51332D02*
Y55246D01*
X16641Y30860D02*
X18879Y33098D01*
X28722Y54457D02*
X30153Y55888D01*
X28722Y51332D02*
Y54457D01*
X18879Y33098D02*
Y35781D01*
X43185Y86735D02*
X43314Y86606D01*
D15*
X59532Y167D02*
D03*
X7276Y91998D02*
D03*
X116Y62036D02*
D03*
X34061Y108433D02*
D03*
X63861Y99939D02*
D03*
X79123Y73183D02*
D03*
X45010Y-5458D02*
D03*
D16*
X20162Y167D02*
D03*
D17*
X43185Y86735D02*
D03*
Y91854D02*
D03*
X35311Y86735D02*
D03*
Y91854D02*
D03*
X43404Y9843D02*
D03*
Y14961D02*
D03*
X35530Y9843D02*
D03*
Y14961D02*
D03*
D18*
X7276Y91998D02*
D03*
X116Y62036D02*
D03*
X34061Y108433D02*
D03*
X63861Y99939D02*
D03*
X79123Y73183D02*
D03*
X45010Y-5458D02*
D03*
X15210Y99932D02*
D03*
X116Y73256D02*
D03*
X45282Y108433D02*
D03*
X71795Y92005D02*
D03*
X79123Y61962D02*
D03*
X33790Y-5458D02*
D03*
D19*
X15210Y99932D02*
D03*
D20*
X116Y73256D02*
D03*
X79123Y61962D02*
D03*
D21*
X45282Y108433D02*
D03*
X33790Y-5458D02*
D03*
D22*
X71795Y92005D02*
D03*
D23*
X44537Y46364D02*
D03*
X47321Y43580D02*
D03*
D24*
X45135Y40560D02*
D03*
X43326Y42369D02*
D03*
X41516Y44179D02*
D03*
X46722Y49385D02*
D03*
X48532Y47575D02*
D03*
X50341Y45766D02*
D03*
D25*
X72949Y35667D02*
D03*
X71111Y37505D02*
D03*
X69272Y39344D02*
D03*
X63474Y33545D02*
D03*
X65313Y31707D02*
D03*
X67151Y29868D02*
D03*
D26*
X68212Y34606D02*
D03*
D27*
X16025Y48478D02*
D03*
Y46509D02*
D03*
Y44541D02*
D03*
Y42572D02*
D03*
Y40604D02*
D03*
Y38635D02*
D03*
X31576D02*
D03*
Y40604D02*
D03*
Y42572D02*
D03*
Y44541D02*
D03*
Y46509D02*
D03*
Y48478D02*
D03*
D28*
X18879Y35781D02*
D03*
X20848D02*
D03*
X22816D02*
D03*
X24785D02*
D03*
X26753D02*
D03*
X28722D02*
D03*
Y51332D02*
D03*
X26753D02*
D03*
X24785D02*
D03*
X22816D02*
D03*
X20848D02*
D03*
X18879D02*
D03*
D29*
X23800Y43557D02*
D03*
D30*
X39531Y59305D02*
D03*
Y75643D02*
D03*
D31*
X11930Y11827D02*
D03*
X9430Y16157D02*
D03*
X6930Y20487D02*
D03*
X71188Y26287D02*
D03*
X20162Y167D02*
D03*
X59532D02*
D03*
X2367Y17784D02*
D03*
X7276Y9352D02*
D03*
X4826Y13692D02*
D03*
X36343Y32379D02*
D03*
D32*
X75809Y42262D02*
D03*
X71251Y46819D02*
D03*
D33*
X47251Y80436D02*
D03*
X43314D02*
D03*
X37563Y98239D02*
D03*
X41500D02*
D03*
D34*
X11199Y61791D02*
D03*
Y65728D02*
D03*
X68215Y67966D02*
D03*
Y64029D02*
D03*
X51286Y87848D02*
D03*
Y91785D02*
D03*
X28159Y20195D02*
D03*
Y16258D02*
D03*
D35*
X19186Y89214D02*
D03*
X21970Y91998D02*
D03*
X62922Y45463D02*
D03*
X60138Y42679D02*
D03*
X57076Y45742D02*
D03*
X59860Y48526D02*
D03*
X63201Y39617D02*
D03*
X65985Y42401D02*
D03*
D36*
X59835Y87567D02*
D03*
X62619Y84783D02*
D03*
X56798Y39895D02*
D03*
X59582Y37111D02*
D03*
X65194Y26021D02*
D03*
X62411Y28805D02*
D03*
D63*
X7276Y9352D02*
X11930Y11827D01*
X2367Y17784D02*
X6930Y20487D01*
X9430Y16447D02*
X27970D01*
X4826Y13692D02*
X9430Y16157D01*
X29647Y9843D02*
X35530D01*
X28159Y11331D02*
X29647Y9843D01*
X28159Y11331D02*
Y16258D01*
X34948Y86373D02*
X35145Y86176D01*
Y80958D02*
Y86176D01*
X39672Y75348D02*
Y78891D01*
X116Y73256D02*
X2069D01*
X4318Y71008D02*
X10046D01*
X11199Y69855D01*
Y65728D02*
Y69855D01*
X27970Y16447D02*
X28159Y16258D01*
X47270Y84169D02*
Y91785D01*
Y84169D02*
X47352Y84087D01*
X2069Y73256D02*
X4318Y71008D01*
X73839Y64029D02*
X76201Y61667D01*
X51286Y86765D02*
X53747Y84305D01*
X51286Y86765D02*
Y87848D01*
X47270Y91785D02*
X51286D01*
X43253D02*
X47270D01*
X43185Y91854D02*
X43253Y91785D01*
X68215Y64029D02*
X73839D01*
X35145Y80958D02*
X37605D01*
X39672Y78891D01*
X28213Y20722D02*
Y25306D01*
X28747Y25840D01*
X34948Y86373D02*
X35311Y86735D01*
X77253Y73183D02*
X79123D01*
X1792Y61273D02*
X2128Y60937D01*
Y48140D02*
Y60937D01*
Y43821D02*
Y48140D01*
X59860Y48526D02*
Y48735D01*
X68215Y67966D02*
X72036D01*
X77253Y73183D01*
X2128Y43821D02*
X12368Y28301D01*
X56798Y39895D02*
X59582Y42679D01*
X60138D01*
X57076Y45742D02*
X60138Y42679D01*
X43314Y80436D02*
Y86606D01*
D64*
X70410Y90620D02*
X71795Y92005D01*
X70410Y87644D02*
Y90620D01*
X66441Y83675D02*
X70410Y87644D01*
X64059Y83675D02*
X66441D01*
X62951Y84783D02*
X64059Y83675D01*
X62619Y84783D02*
X62951D01*
X45010Y-3381D02*
X48087Y-303D01*
X45135Y40560D02*
X48087Y37608D01*
Y-303D02*
Y37608D01*
X45010Y-5458D02*
Y-3381D01*
X62476Y98554D02*
X63861Y99939D01*
X62476Y90207D02*
Y98554D01*
X59835Y87567D02*
X62476Y90207D01*
D65*
X57684Y31493D02*
X58110D01*
X58996Y32379D01*
X62153D01*
X63319Y33545D02*
X63474D01*
X62153Y32379D02*
X63319Y33545D01*
D66*
X60138Y42679D02*
X62922D01*
X66258Y39344D01*
X69272D01*
D67*
X49896Y40042D02*
D03*
X40906Y48526D02*
D03*
X38838Y24434D02*
D03*
X29534Y70291D02*
D03*
X47352Y84087D02*
D03*
X9948Y42572D02*
D03*
X53747Y84305D02*
D03*
X34617Y83163D02*
D03*
X9751Y47789D02*
D03*
X28747Y25840D02*
D03*
X32598Y18079D02*
D03*
X52332Y23158D02*
D03*
X37956Y36903D02*
D03*
X53747Y48526D02*
D03*
X59214Y58571D02*
D03*
X64482Y70820D02*
D03*
X56306Y90338D02*
D03*
X52643Y104482D02*
D03*
X21312Y79457D02*
D03*
X5269Y80958D02*
D03*
X16621Y68164D02*
D03*
X21635Y45722D02*
D03*
X25966D02*
D03*
X21635Y41391D02*
D03*
X25966D02*
D03*
X12999Y85272D02*
D03*
X29534Y59108D02*
D03*
X28747Y30466D02*
D03*
X31897Y63832D02*
D03*
X69298Y59305D02*
D03*
X20578Y27120D02*
D03*
X17773Y58320D02*
D03*
X16641Y30860D02*
D03*
D68*
X57684Y31493D02*
D03*
D69*
X11930Y11827D02*
D03*
X9430Y16157D02*
D03*
X6930Y20487D02*
D03*
D70*
X22448Y64127D02*
D03*
M02*
