M48
;Layer_Color=9474304
;FILE_FORMAT=2:5
INCH,TZ
;TYPE=PLATED
T1F00S00C0.01181
T2F00S00C0.01968
T3F00S00C0.02362
T4F00S00C0.03150
T5F00S00C0.03150
T6F00S00C0.05906
%
T01
X21635Y41391
Y45722
X25966
Y41391
T02
X35440Y27612
X37366Y35289
X40656Y38104
X53606Y39915
X50302Y50348
X50007Y58025
X58928Y57966
X57487Y52710
X69298Y59305
X45942Y25306
X28747Y25840
Y30466
X20578Y27120
X16641Y30860
X9948Y42572
X9751Y47789
X17773Y58320
X16621Y68164
X29141Y70033
X31897Y63832
X29534Y59108
X29987Y12454
X21312Y79457
X12999Y85272
X5269Y80958
X35145
X47352Y84087
X53747Y84305
X56306Y90338
X52643Y104482
X64482Y70820
T03
X17217Y12454
X14208Y16447
X11199Y20441
T04
X57600Y8138
X63224Y13762
T05
X22448Y64127
T06
X45010Y4315
X77154Y61864
X2071Y62034
X33790Y4315
X2071Y73255
X8668Y90606
X16602Y98540
X34061Y106465
X45282
X62476Y98540
X70410Y90606
X77154Y73084
M30
