G04*
G04 #@! TF.GenerationSoftware,Altium Limited,Altium Designer,20.0.10 (225)*
G04*
G04 Layer_Color=8388736*
%FSLAX25Y25*%
%MOIN*%
G70*
G01*
G75*
%ADD37C,0.08674*%
G04:AMPARAMS|DCode=38|XSize=86.74mil|YSize=86.74mil|CornerRadius=23.68mil|HoleSize=0mil|Usage=FLASHONLY|Rotation=90.000|XOffset=0mil|YOffset=0mil|HoleType=Round|Shape=RoundedRectangle|*
%AMROUNDEDRECTD38*
21,1,0.08674,0.03937,0,0,90.0*
21,1,0.03937,0.08674,0,0,90.0*
1,1,0.04737,0.01968,0.01968*
1,1,0.04737,0.01968,-0.01968*
1,1,0.04737,-0.01968,-0.01968*
1,1,0.04737,-0.01968,0.01968*
%
%ADD38ROUNDEDRECTD38*%
%ADD39R,0.04737X0.03162*%
%ADD40C,0.09855*%
G04:AMPARAMS|DCode=41|XSize=98.55mil|YSize=98.55mil|CornerRadius=26.64mil|HoleSize=0mil|Usage=FLASHONLY|Rotation=45.000|XOffset=0mil|YOffset=0mil|HoleType=Round|Shape=RoundedRectangle|*
%AMROUNDEDRECTD41*
21,1,0.09855,0.04528,0,0,45.0*
21,1,0.04528,0.09855,0,0,45.0*
1,1,0.05328,0.03202,0.00000*
1,1,0.05328,0.00000,-0.03202*
1,1,0.05328,-0.03202,0.00000*
1,1,0.05328,0.00000,0.03202*
%
%ADD41ROUNDEDRECTD41*%
G04:AMPARAMS|DCode=42|XSize=98.55mil|YSize=98.55mil|CornerRadius=26.64mil|HoleSize=0mil|Usage=FLASHONLY|Rotation=90.000|XOffset=0mil|YOffset=0mil|HoleType=Round|Shape=RoundedRectangle|*
%AMROUNDEDRECTD42*
21,1,0.09855,0.04528,0,0,90.0*
21,1,0.04528,0.09855,0,0,90.0*
1,1,0.05328,0.02264,0.02264*
1,1,0.05328,0.02264,-0.02264*
1,1,0.05328,-0.02264,-0.02264*
1,1,0.05328,-0.02264,0.02264*
%
%ADD42ROUNDEDRECTD42*%
G04:AMPARAMS|DCode=43|XSize=98.55mil|YSize=98.55mil|CornerRadius=26.64mil|HoleSize=0mil|Usage=FLASHONLY|Rotation=0.000|XOffset=0mil|YOffset=0mil|HoleType=Round|Shape=RoundedRectangle|*
%AMROUNDEDRECTD43*
21,1,0.09855,0.04528,0,0,0.0*
21,1,0.04528,0.09855,0,0,0.0*
1,1,0.05328,0.02264,-0.02264*
1,1,0.05328,-0.02264,-0.02264*
1,1,0.05328,-0.02264,0.02264*
1,1,0.05328,0.02264,0.02264*
%
%ADD43ROUNDEDRECTD43*%
G04:AMPARAMS|DCode=44|XSize=98.55mil|YSize=98.55mil|CornerRadius=26.64mil|HoleSize=0mil|Usage=FLASHONLY|Rotation=315.000|XOffset=0mil|YOffset=0mil|HoleType=Round|Shape=RoundedRectangle|*
%AMROUNDEDRECTD44*
21,1,0.09855,0.04528,0,0,315.0*
21,1,0.04528,0.09855,0,0,315.0*
1,1,0.05328,0.00000,-0.03202*
1,1,0.05328,-0.03202,0.00000*
1,1,0.05328,0.00000,0.03202*
1,1,0.05328,0.03202,0.00000*
%
%ADD44ROUNDEDRECTD44*%
G04:AMPARAMS|DCode=45|XSize=31.62mil|YSize=30.44mil|CornerRadius=0mil|HoleSize=0mil|Usage=FLASHONLY|Rotation=225.000|XOffset=0mil|YOffset=0mil|HoleType=Round|Shape=Rectangle|*
%AMROTATEDRECTD45*
4,1,4,0.00042,0.02194,0.02194,0.00042,-0.00042,-0.02194,-0.02194,-0.00042,0.00042,0.02194,0.0*
%
%ADD45ROTATEDRECTD45*%

G04:AMPARAMS|DCode=46|XSize=26.5mil|YSize=21.78mil|CornerRadius=0mil|HoleSize=0mil|Usage=FLASHONLY|Rotation=45.000|XOffset=0mil|YOffset=0mil|HoleType=Round|Shape=Rectangle|*
%AMROTATEDRECTD46*
4,1,4,-0.00167,-0.01707,-0.01707,-0.00167,0.00167,0.01707,0.01707,0.00167,-0.00167,-0.01707,0.0*
%
%ADD46ROTATEDRECTD46*%

G04:AMPARAMS|DCode=47|XSize=32mil|YSize=22mil|CornerRadius=0mil|HoleSize=0mil|Usage=FLASHONLY|Rotation=225.000|XOffset=0mil|YOffset=0mil|HoleType=Round|Shape=Rectangle|*
%AMROTATEDRECTD47*
4,1,4,0.00354,0.01909,0.01909,0.00354,-0.00354,-0.01909,-0.01909,-0.00354,0.00354,0.01909,0.0*
%
%ADD47ROTATEDRECTD47*%

G04:AMPARAMS|DCode=48|XSize=35.56mil|YSize=71mil|CornerRadius=0mil|HoleSize=0mil|Usage=FLASHONLY|Rotation=225.000|XOffset=0mil|YOffset=0mil|HoleType=Round|Shape=Rectangle|*
%AMROTATEDRECTD48*
4,1,4,-0.01253,0.03767,0.03767,-0.01253,0.01253,-0.03767,-0.03767,0.01253,-0.01253,0.03767,0.0*
%
%ADD48ROTATEDRECTD48*%

%ADD49R,0.04737X0.01784*%
%ADD50R,0.01784X0.04737*%
%ADD51R,0.11036X0.11036*%
%ADD52R,0.06312X0.04540*%
%ADD53C,0.03950*%
G04:AMPARAMS|DCode=54|XSize=39mil|YSize=46mil|CornerRadius=0mil|HoleSize=0mil|Usage=FLASHONLY|Rotation=135.000|XOffset=0mil|YOffset=0mil|HoleType=Round|Shape=Rectangle|*
%AMROTATEDRECTD54*
4,1,4,0.03005,0.00248,-0.00248,-0.03005,-0.03005,-0.00248,0.00248,0.03005,0.03005,0.00248,0.0*
%
%ADD54ROTATEDRECTD54*%

%ADD55R,0.03162X0.03556*%
%ADD56R,0.03556X0.03162*%
G04:AMPARAMS|DCode=57|XSize=31.62mil|YSize=35.56mil|CornerRadius=0mil|HoleSize=0mil|Usage=FLASHONLY|Rotation=45.000|XOffset=0mil|YOffset=0mil|HoleType=Round|Shape=Rectangle|*
%AMROTATEDRECTD57*
4,1,4,0.00139,-0.02375,-0.02375,0.00139,-0.00139,0.02375,0.02375,-0.00139,0.00139,-0.02375,0.0*
%
%ADD57ROTATEDRECTD57*%

G04:AMPARAMS|DCode=58|XSize=31.62mil|YSize=35.56mil|CornerRadius=0mil|HoleSize=0mil|Usage=FLASHONLY|Rotation=315.000|XOffset=0mil|YOffset=0mil|HoleType=Round|Shape=Rectangle|*
%AMROTATEDRECTD58*
4,1,4,-0.02375,-0.00139,0.00139,0.02375,0.02375,0.00139,-0.00139,-0.02375,-0.02375,-0.00139,0.0*
%
%ADD58ROTATEDRECTD58*%

%ADD59C,0.03556*%
%ADD60C,0.02769*%
%ADD61C,0.04737*%
%ADD62C,0.05524*%
D37*
X59532Y167D02*
D03*
X7276Y91998D02*
D03*
X116Y62036D02*
D03*
X34061Y108433D02*
D03*
X63861Y99939D02*
D03*
X79123Y73183D02*
D03*
X45010Y-5458D02*
D03*
D38*
X20162Y167D02*
D03*
D39*
X43185Y86735D02*
D03*
Y91854D02*
D03*
X35311Y86735D02*
D03*
Y91854D02*
D03*
X43404Y9843D02*
D03*
Y14961D02*
D03*
X35530Y9843D02*
D03*
Y14961D02*
D03*
D40*
X7276Y91998D02*
D03*
X116Y62036D02*
D03*
X34061Y108433D02*
D03*
X63861Y99939D02*
D03*
X79123Y73183D02*
D03*
X45010Y-5458D02*
D03*
X15210Y99932D02*
D03*
X116Y73256D02*
D03*
X45282Y108433D02*
D03*
X71795Y92005D02*
D03*
X79123Y61962D02*
D03*
X33790Y-5458D02*
D03*
D41*
X15210Y99932D02*
D03*
D42*
X116Y73256D02*
D03*
X79123Y61962D02*
D03*
D43*
X45282Y108433D02*
D03*
X33790Y-5458D02*
D03*
D44*
X71795Y92005D02*
D03*
D45*
X44537Y46364D02*
D03*
X47321Y43580D02*
D03*
D46*
X45135Y40560D02*
D03*
X43326Y42369D02*
D03*
X41516Y44179D02*
D03*
X46722Y49385D02*
D03*
X48532Y47575D02*
D03*
X50341Y45766D02*
D03*
D47*
X72949Y35667D02*
D03*
X71111Y37505D02*
D03*
X69272Y39344D02*
D03*
X63474Y33545D02*
D03*
X65313Y31707D02*
D03*
X67151Y29868D02*
D03*
D48*
X68212Y34606D02*
D03*
D49*
X16025Y48478D02*
D03*
Y46509D02*
D03*
Y44541D02*
D03*
Y42572D02*
D03*
Y40604D02*
D03*
Y38635D02*
D03*
X31576D02*
D03*
Y40604D02*
D03*
Y42572D02*
D03*
Y44541D02*
D03*
Y46509D02*
D03*
Y48478D02*
D03*
D50*
X18879Y35781D02*
D03*
X20848D02*
D03*
X22816D02*
D03*
X24785D02*
D03*
X26753D02*
D03*
X28722D02*
D03*
Y51332D02*
D03*
X26753D02*
D03*
X24785D02*
D03*
X22816D02*
D03*
X20848D02*
D03*
X18879D02*
D03*
D51*
X23800Y43557D02*
D03*
D52*
X39531Y59305D02*
D03*
Y75643D02*
D03*
D53*
X11930Y11827D02*
D03*
X9430Y16157D02*
D03*
X6930Y20487D02*
D03*
X20162Y167D02*
D03*
X59532D02*
D03*
X2367Y17784D02*
D03*
X7276Y9352D02*
D03*
X4826Y13692D02*
D03*
X36343Y32379D02*
D03*
D54*
X75809Y42262D02*
D03*
X71251Y46819D02*
D03*
D55*
X47251Y80436D02*
D03*
X43314D02*
D03*
X37563Y98239D02*
D03*
X41500D02*
D03*
D56*
X11199Y61791D02*
D03*
Y65728D02*
D03*
X68215Y67966D02*
D03*
Y64029D02*
D03*
X51286Y87848D02*
D03*
Y91785D02*
D03*
X28159Y20195D02*
D03*
Y16258D02*
D03*
D57*
X19186Y89214D02*
D03*
X21970Y91998D02*
D03*
X62922Y45463D02*
D03*
X60138Y42679D02*
D03*
X57076Y45742D02*
D03*
X59860Y48526D02*
D03*
X63201Y39617D02*
D03*
X65985Y42401D02*
D03*
D58*
X59835Y87567D02*
D03*
X62619Y84783D02*
D03*
X56798Y39895D02*
D03*
X59582Y37111D02*
D03*
X65194Y26021D02*
D03*
X62411Y28805D02*
D03*
D59*
X57684Y31493D02*
D03*
D60*
X21635Y45722D02*
D03*
X25966D02*
D03*
X21635Y41391D02*
D03*
X25966D02*
D03*
D61*
X11930Y11827D02*
D03*
X9430Y16157D02*
D03*
X6930Y20487D02*
D03*
D62*
X22448Y64127D02*
D03*
M02*
