G04*
G04 #@! TF.GenerationSoftware,Altium Limited,Altium Designer,20.0.10 (225)*
G04*
G04 Layer_Physical_Order=4*
G04 Layer_Color=16711680*
%FSLAX25Y25*%
%MOIN*%
G70*
G01*
G75*
%ADD10C,0.01575*%
%ADD12C,0.01000*%
%ADD13C,0.00787*%
%ADD15C,0.07874*%
G04:AMPARAMS|DCode=16|XSize=78.74mil|YSize=78.74mil|CornerRadius=19.68mil|HoleSize=0mil|Usage=FLASHONLY|Rotation=90.000|XOffset=0mil|YOffset=0mil|HoleType=Round|Shape=RoundedRectangle|*
%AMROUNDEDRECTD16*
21,1,0.07874,0.03937,0,0,90.0*
21,1,0.03937,0.07874,0,0,90.0*
1,1,0.03937,0.01968,0.01968*
1,1,0.03937,0.01968,-0.01968*
1,1,0.03937,-0.01968,-0.01968*
1,1,0.03937,-0.01968,0.01968*
%
%ADD16ROUNDEDRECTD16*%
%ADD18C,0.09055*%
G04:AMPARAMS|DCode=19|XSize=90.55mil|YSize=90.55mil|CornerRadius=22.64mil|HoleSize=0mil|Usage=FLASHONLY|Rotation=45.000|XOffset=0mil|YOffset=0mil|HoleType=Round|Shape=RoundedRectangle|*
%AMROUNDEDRECTD19*
21,1,0.09055,0.04528,0,0,45.0*
21,1,0.04528,0.09055,0,0,45.0*
1,1,0.04528,0.03202,0.00000*
1,1,0.04528,0.00000,-0.03202*
1,1,0.04528,-0.03202,0.00000*
1,1,0.04528,0.00000,0.03202*
%
%ADD19ROUNDEDRECTD19*%
G04:AMPARAMS|DCode=20|XSize=90.55mil|YSize=90.55mil|CornerRadius=22.64mil|HoleSize=0mil|Usage=FLASHONLY|Rotation=90.000|XOffset=0mil|YOffset=0mil|HoleType=Round|Shape=RoundedRectangle|*
%AMROUNDEDRECTD20*
21,1,0.09055,0.04528,0,0,90.0*
21,1,0.04528,0.09055,0,0,90.0*
1,1,0.04528,0.02264,0.02264*
1,1,0.04528,0.02264,-0.02264*
1,1,0.04528,-0.02264,-0.02264*
1,1,0.04528,-0.02264,0.02264*
%
%ADD20ROUNDEDRECTD20*%
G04:AMPARAMS|DCode=21|XSize=90.55mil|YSize=90.55mil|CornerRadius=22.64mil|HoleSize=0mil|Usage=FLASHONLY|Rotation=0.000|XOffset=0mil|YOffset=0mil|HoleType=Round|Shape=RoundedRectangle|*
%AMROUNDEDRECTD21*
21,1,0.09055,0.04528,0,0,0.0*
21,1,0.04528,0.09055,0,0,0.0*
1,1,0.04528,0.02264,-0.02264*
1,1,0.04528,-0.02264,-0.02264*
1,1,0.04528,-0.02264,0.02264*
1,1,0.04528,0.02264,0.02264*
%
%ADD21ROUNDEDRECTD21*%
G04:AMPARAMS|DCode=22|XSize=90.55mil|YSize=90.55mil|CornerRadius=22.64mil|HoleSize=0mil|Usage=FLASHONLY|Rotation=315.000|XOffset=0mil|YOffset=0mil|HoleType=Round|Shape=RoundedRectangle|*
%AMROUNDEDRECTD22*
21,1,0.09055,0.04528,0,0,315.0*
21,1,0.04528,0.09055,0,0,315.0*
1,1,0.04528,0.00000,-0.03202*
1,1,0.04528,-0.03202,0.00000*
1,1,0.04528,0.00000,0.03202*
1,1,0.04528,0.03202,0.00000*
%
%ADD22ROUNDEDRECTD22*%
G04:AMPARAMS|DCode=23|XSize=23.62mil|YSize=22.44mil|CornerRadius=0mil|HoleSize=0mil|Usage=FLASHONLY|Rotation=225.000|XOffset=0mil|YOffset=0mil|HoleType=Round|Shape=Rectangle|*
%AMROTATEDRECTD23*
4,1,4,0.00042,0.01629,0.01629,0.00042,-0.00042,-0.01629,-0.01629,-0.00042,0.00042,0.01629,0.0*
%
%ADD23ROTATEDRECTD23*%

G04:AMPARAMS|DCode=24|XSize=18.5mil|YSize=13.78mil|CornerRadius=0mil|HoleSize=0mil|Usage=FLASHONLY|Rotation=45.000|XOffset=0mil|YOffset=0mil|HoleType=Round|Shape=Rectangle|*
%AMROTATEDRECTD24*
4,1,4,-0.00167,-0.01141,-0.01141,-0.00167,0.00167,0.01141,0.01141,0.00167,-0.00167,-0.01141,0.0*
%
%ADD24ROTATEDRECTD24*%

%ADD31C,0.03150*%
%ADD33R,0.02362X0.02756*%
%ADD34R,0.02756X0.02362*%
%ADD63C,0.01968*%
%ADD64C,0.01378*%
%ADD65C,0.01181*%
%ADD66C,0.00591*%
%ADD67C,0.01968*%
%ADD68C,0.02756*%
%ADD69C,0.03937*%
%ADD70C,0.04724*%
%ADD71R,0.01968X0.02756*%
%ADD72R,0.01850X0.01378*%
%ADD73R,0.02362X0.02244*%
%ADD74R,0.01378X0.01850*%
%ADD75R,0.02244X0.02362*%
%ADD76R,0.09252X0.06221*%
%ADD77R,0.01024X0.03307*%
%ADD78R,0.02362X0.03150*%
%ADD79R,0.00906X0.02756*%
%ADD80R,0.00591X0.01575*%
%ADD81R,0.00591X0.02362*%
G36*
X51503Y32967D02*
X52556D01*
X52287Y31942D01*
X52323Y31906D01*
X52269Y31907D01*
Y30623D01*
X51614D01*
X49103Y27705D01*
X46563D01*
Y30466D01*
X49743D01*
Y31959D01*
X49764D01*
X49771Y33215D01*
X49306D01*
X46563Y33245D01*
Y35969D01*
X49216D01*
X51503Y32967D01*
D02*
G37*
G36*
X65558Y62540D02*
X66444Y60289D01*
X67428Y57976D01*
Y52366D01*
X67330Y52267D01*
X64475D01*
X62570Y53118D01*
X59121Y53118D01*
X58767Y53471D01*
X58767Y55394D01*
X59123Y55746D01*
X64278Y55687D01*
X64278Y59206D01*
X63368Y59994D01*
Y62503D01*
X63700Y62836D01*
X65263D01*
X65558Y62540D01*
D02*
G37*
G36*
X83152Y64078D02*
Y51171D01*
X76244Y45230D01*
X58785D01*
X58785Y51179D01*
X59140Y51531D01*
X64180Y51491D01*
X72074Y51464D01*
Y64196D01*
X73052Y65801D01*
X81430Y65801D01*
X83152Y64078D01*
D02*
G37*
G36*
X67461Y44200D02*
X67461Y40952D01*
X67067Y40558D01*
X65876Y39367D01*
X59771D01*
X59061Y39256D01*
X58682Y39581D01*
Y44054D01*
X60764D01*
X62134Y44397D01*
X67264D01*
X67461Y44200D01*
D02*
G37*
D10*
X5269Y80958D02*
X7792D01*
X8678Y81844D02*
X11339D01*
X7792Y80958D02*
X8678Y81844D01*
D12*
X5911Y20487D02*
Y25544D01*
X38838Y24411D02*
X38860Y24434D01*
X38906D01*
X38838D02*
X38860D01*
X39241Y24815D01*
X38757Y24331D02*
X38838Y24411D01*
X44917Y40073D02*
X49866D01*
X49896Y40042D01*
X33421Y45046D02*
Y47491D01*
X34455Y48526D01*
X37592D01*
X40906D01*
X37006Y45083D02*
Y47940D01*
X37592Y48526D01*
X33421Y45046D02*
X33439Y45065D01*
X36987D02*
X37006Y45083D01*
X37956Y76296D02*
Y79823D01*
X34617Y83163D02*
X37956Y79823D01*
X38906Y24434D02*
X40317Y23023D01*
X38838Y24411D02*
Y24434D01*
X39241Y24815D02*
Y24944D01*
X39650Y25352D01*
X41841D01*
X40317Y20184D02*
Y23023D01*
X44917Y40073D02*
X45040Y39950D01*
Y34593D02*
Y39950D01*
X20578Y37651D02*
Y39029D01*
X19298Y40309D02*
X20578Y39029D01*
X19298Y40309D02*
Y47887D01*
X20479Y49068D01*
Y59403D01*
X9751Y47789D02*
Y54249D01*
X16775Y61273D01*
X18609D01*
X20479Y59403D01*
X32598Y18079D02*
Y30454D01*
X30673Y32379D02*
X32598Y30454D01*
X85652Y70292D02*
Y76016D01*
X82933Y67572D02*
X85652Y70292D01*
X81006Y80663D02*
X85652Y76016D01*
X54992Y101505D02*
X59306Y105820D01*
X68035D02*
X81006Y92849D01*
X59306Y105820D02*
X68035D01*
X81006Y80663D02*
Y92849D01*
X52332Y19308D02*
Y23158D01*
X53747Y48526D02*
Y52029D01*
X48844Y56931D02*
X53747Y52029D01*
X48844Y56931D02*
Y64226D01*
X33421Y35301D02*
Y41109D01*
Y35301D02*
X36343Y32379D01*
X37006Y37973D02*
Y41146D01*
Y37973D02*
X37956Y37022D01*
Y36903D02*
Y37022D01*
X49664Y16640D02*
X52332Y19308D01*
X53026Y27893D02*
X63738D01*
X64264Y28419D01*
X50341Y25209D02*
X53026Y27893D01*
X48486Y44896D02*
X48841D01*
X44917D02*
X48486D01*
X48087Y16640D02*
X49664D01*
X40267D02*
X43613Y16664D01*
X37337Y66588D02*
X41500D01*
X24908D02*
X37337D01*
X37956Y67207D02*
Y72359D01*
X37337Y66588D02*
X37956Y67207D01*
X28747Y30466D02*
Y58058D01*
X29534Y58846D01*
Y59108D01*
X20578Y18079D02*
X27731Y10925D01*
X20578Y18079D02*
Y27120D01*
X45010Y-5458D02*
Y6073D01*
X40157Y10925D02*
X45010Y6073D01*
X27731Y10925D02*
X40157D01*
X45922Y25209D02*
X50341D01*
X45778Y25352D02*
X45922Y25209D01*
X45040Y26287D02*
Y29081D01*
Y26287D02*
X45778Y25549D01*
Y25352D02*
Y25549D01*
X36355Y20159D02*
X36380Y20184D01*
X36355Y16664D02*
Y20159D01*
X36330Y16640D02*
X36355Y16664D01*
X36380Y20184D02*
Y25389D01*
X40072Y29081D01*
X43071D01*
X40980Y40073D02*
X41411Y39642D01*
Y37823D02*
Y39642D01*
Y37823D02*
X43071Y36163D01*
Y34593D02*
Y36163D01*
X40980Y40073D02*
Y44896D01*
X41500Y66588D02*
X46482D01*
X41500D02*
X42779Y67867D01*
Y86382D02*
X47255Y90857D01*
X42779Y67867D02*
Y86382D01*
X52643Y96243D02*
X54992Y98592D01*
X52461Y96063D02*
Y96330D01*
X54992Y98592D02*
Y101505D01*
X48844Y64226D02*
X57119D01*
X46482Y66588D02*
X48844Y64226D01*
X64482D02*
X64670Y64037D01*
X65485D01*
X65492Y64029D01*
X68215D01*
X71759Y67572D01*
X5911Y25544D02*
X15853Y35486D01*
X60557Y80663D02*
X81006D01*
X31897Y56296D02*
Y63832D01*
X30673Y55072D02*
X31897Y56296D01*
X30673Y32379D02*
Y55072D01*
X46482Y66588D02*
X60557Y80663D01*
X22448Y64127D02*
X24908Y66588D01*
X72668Y35683D02*
Y42654D01*
X68731Y35683D02*
Y42654D01*
Y53954D02*
Y58934D01*
X69101Y59305D02*
X69298D01*
X68731Y58934D02*
X69101Y59305D01*
X20578Y27120D02*
Y33714D01*
X16838Y30860D02*
X20578Y27120D01*
X15853Y35486D02*
Y56400D01*
X17773Y58320D01*
X16641Y30860D02*
X16838D01*
D13*
X48486Y44896D02*
X52816D01*
X43756Y16640D02*
X48087D01*
X71759Y67572D02*
X82933D01*
D15*
X59532Y167D02*
D03*
X7276Y91998D02*
D03*
X116Y62036D02*
D03*
X34061Y108433D02*
D03*
X63861Y99939D02*
D03*
X79123Y73183D02*
D03*
X45010Y-5458D02*
D03*
D16*
X20162Y167D02*
D03*
D18*
X7276Y91998D02*
D03*
X116Y62036D02*
D03*
X34061Y108433D02*
D03*
X63861Y99939D02*
D03*
X79123Y73183D02*
D03*
X45010Y-5458D02*
D03*
X15210Y99932D02*
D03*
X116Y73256D02*
D03*
X45282Y108433D02*
D03*
X71795Y92005D02*
D03*
X79123Y61962D02*
D03*
X33790Y-5458D02*
D03*
D19*
X15210Y99932D02*
D03*
D20*
X116Y73256D02*
D03*
X79123Y61962D02*
D03*
D21*
X45282Y108433D02*
D03*
X33790Y-5458D02*
D03*
D22*
X71795Y92005D02*
D03*
D23*
X48466Y94852D02*
D03*
X51250Y92068D02*
D03*
D24*
X54270Y94253D02*
D03*
X52461Y96063D02*
D03*
X50651Y97873D02*
D03*
X45445Y92667D02*
D03*
X47255Y90857D02*
D03*
X49064Y89048D02*
D03*
D31*
X71188Y26287D02*
D03*
X20162Y167D02*
D03*
X59532D02*
D03*
X2367Y17784D02*
D03*
X7276Y9352D02*
D03*
X4826Y13692D02*
D03*
X36343Y32379D02*
D03*
D33*
X61195Y35786D02*
D03*
X57258D02*
D03*
X28749Y80792D02*
D03*
X24812D02*
D03*
X28779Y84312D02*
D03*
X24842D02*
D03*
X44917Y44896D02*
D03*
X40980D02*
D03*
X44917Y40073D02*
D03*
X40980D02*
D03*
X40267Y16640D02*
D03*
X36330D02*
D03*
X36380Y20184D02*
D03*
X40317D02*
D03*
X41841Y25352D02*
D03*
X45778D02*
D03*
D34*
X33421Y41109D02*
D03*
Y45046D02*
D03*
X37006Y45083D02*
D03*
Y41146D02*
D03*
X37956Y72359D02*
D03*
Y76296D02*
D03*
X60236Y54334D02*
D03*
Y50397D02*
D03*
X72668Y35683D02*
D03*
Y31746D02*
D03*
X68731Y35683D02*
D03*
Y31746D02*
D03*
X20578Y33714D02*
D03*
Y37651D02*
D03*
X60232Y42738D02*
D03*
Y46675D02*
D03*
D63*
X4826Y13692D02*
X9430Y16157D01*
X58002Y1556D02*
X59132Y426D01*
X58002Y1556D02*
Y4130D01*
X57600Y4532D02*
X58002Y4130D01*
X57600Y4532D02*
Y21755D01*
X53218Y31849D02*
Y35786D01*
X53171Y31802D02*
X53218Y31849D01*
Y35786D02*
X57258D01*
X53171Y44502D02*
Y44896D01*
X57600Y21755D02*
X63738Y27893D01*
X53171Y44502D02*
X53565D01*
X55329Y42738D02*
X60232D01*
X53565Y44502D02*
X55329Y42738D01*
X64264Y35683D02*
Y40556D01*
Y28419D02*
Y35683D01*
X61195Y35786D02*
X61298Y35683D01*
X64264D01*
D64*
X78190Y35136D02*
Y48210D01*
X75097Y32043D02*
X78190Y35136D01*
X72668Y31746D02*
X72965Y32043D01*
X75097D01*
X68731Y31746D02*
X72668D01*
X28749Y80792D02*
X31306D01*
X32095Y80003D01*
X31864Y73995D02*
X32095Y74226D01*
X31864Y71535D02*
Y73995D01*
X30733Y70404D02*
X31864Y71535D01*
X29534Y70291D02*
X29647Y70404D01*
X30733D01*
X32095Y74226D02*
Y80003D01*
X28839Y84305D02*
X33475D01*
X34617Y83163D01*
X77056Y73183D02*
X79123D01*
X61940Y99939D02*
X63861D01*
X59215Y97215D02*
X61940Y99939D01*
X57231Y97215D02*
X59215D01*
X34029Y94271D02*
X38484Y89816D01*
X34029Y108400D02*
X34061Y108433D01*
X34029Y94271D02*
Y108400D01*
X8668Y90606D02*
X9959Y89314D01*
X13946D01*
X16457Y86803D01*
X2071Y62034D02*
X2553D01*
X11339Y70820D01*
X24857Y84260D02*
X24902Y84305D01*
X24812Y80792D02*
X24857Y80837D01*
Y84260D01*
X21312Y79457D02*
X21408D01*
X24483Y80463D02*
X24812Y80792D01*
X22415Y80463D02*
X24483D01*
X21408Y79457D02*
X22415Y80463D01*
X17836Y71482D02*
X21445D01*
X22253Y72289D02*
Y74226D01*
X21445Y71482D02*
X22253Y72289D01*
Y74226D02*
Y78538D01*
X16457Y72861D02*
X17836Y71482D01*
X16457Y72861D02*
Y74482D01*
X54008Y59505D02*
X54941Y58571D01*
X59214D01*
X54008Y59505D02*
Y60860D01*
X54815Y61667D02*
X57119D01*
X54008Y60860D02*
X54815Y61667D01*
X64482Y66785D02*
Y70820D01*
X52341Y86373D02*
X56306Y90338D01*
X49145Y86373D02*
X52341D01*
X48338Y87180D02*
X49145Y86373D01*
X48338Y87180D02*
Y88321D01*
X49064Y89048D01*
X50651Y97873D02*
X52643Y99864D01*
Y104482D01*
X16025Y68164D02*
X16621D01*
X13898Y70291D02*
X16025Y68164D01*
X13898Y70291D02*
Y74482D01*
X54008Y69887D02*
X58682Y74561D01*
X75685Y74553D02*
X77056Y73183D01*
X72516Y74553D02*
X75685D01*
X72509Y74561D02*
X72516Y74553D01*
X58682Y74561D02*
X72509D01*
X13898Y81844D02*
Y84239D01*
X12999Y85138D02*
X13898Y84239D01*
X12999Y85138D02*
Y85272D01*
X16457Y81844D02*
Y86803D01*
X54008Y67592D02*
Y69887D01*
X54815Y66785D02*
X57119D01*
X54008Y67592D02*
X54815Y66785D01*
X54270Y94253D02*
X57231Y97215D01*
X38484Y89816D02*
X42595D01*
X45445Y92667D01*
X34061Y106465D02*
X35530Y104996D01*
X11339Y70820D02*
Y74482D01*
D65*
X52269Y31291D02*
X52660D01*
X53171Y31802D01*
X56949D01*
X57258Y31493D01*
X57684D01*
D66*
X47352Y16640D02*
X48087D01*
D67*
X49896Y40042D02*
D03*
X40906Y48526D02*
D03*
X38838Y24434D02*
D03*
X29534Y70291D02*
D03*
X47352Y84087D02*
D03*
X9948Y42572D02*
D03*
X53747Y84305D02*
D03*
X34617Y83163D02*
D03*
X9751Y47789D02*
D03*
X28747Y25840D02*
D03*
X32598Y18079D02*
D03*
X52332Y23158D02*
D03*
X37956Y36903D02*
D03*
X53747Y48526D02*
D03*
X59214Y58571D02*
D03*
X64482Y70820D02*
D03*
X56306Y90338D02*
D03*
X52643Y104482D02*
D03*
X21312Y79457D02*
D03*
X5269Y80958D02*
D03*
X16621Y68164D02*
D03*
X21635Y45722D02*
D03*
X25966D02*
D03*
X21635Y41391D02*
D03*
X25966D02*
D03*
X12999Y85272D02*
D03*
X29534Y59108D02*
D03*
X28747Y30466D02*
D03*
X31897Y63832D02*
D03*
X69298Y59305D02*
D03*
X20578Y27120D02*
D03*
X17773Y58320D02*
D03*
X16641Y30860D02*
D03*
D68*
X57684Y31493D02*
D03*
D69*
X11930Y11827D02*
D03*
X9430Y16157D02*
D03*
X6930Y20487D02*
D03*
D70*
X22448Y64127D02*
D03*
D71*
X52816Y44896D02*
D03*
X48486D02*
D03*
X48087Y16640D02*
D03*
X43756D02*
D03*
D72*
X64482Y66785D02*
D03*
Y64226D02*
D03*
Y61667D02*
D03*
X57119D02*
D03*
Y64226D02*
D03*
Y66785D02*
D03*
D73*
X60800Y66194D02*
D03*
Y62257D02*
D03*
D74*
X16457Y74482D02*
D03*
X13898D02*
D03*
X11339D02*
D03*
Y81844D02*
D03*
X13898D02*
D03*
X16457D02*
D03*
D75*
X15867Y78163D02*
D03*
X11930D02*
D03*
D76*
X68731Y48304D02*
D03*
D77*
X64794Y42654D02*
D03*
X66762D02*
D03*
X68731D02*
D03*
X70699D02*
D03*
X72668D02*
D03*
Y53954D02*
D03*
X70699D02*
D03*
X68731D02*
D03*
X66762D02*
D03*
X64794D02*
D03*
D78*
X32095Y74226D02*
D03*
X22253D02*
D03*
D79*
X47008Y29081D02*
D03*
X45040D02*
D03*
X43071D02*
D03*
X47008Y34593D02*
D03*
X45040D02*
D03*
X43071D02*
D03*
D80*
X51438Y44896D02*
D03*
X49864D02*
D03*
X46709Y16640D02*
D03*
X45135D02*
D03*
D81*
X51832Y44896D02*
D03*
X49470D02*
D03*
X47103Y16640D02*
D03*
X44741D02*
D03*
M02*
