G04*
G04 #@! TF.GenerationSoftware,Altium Limited,Altium Designer,20.0.10 (225)*
G04*
G04 Layer_Color=32768*
%FSLAX25Y25*%
%MOIN*%
G70*
G01*
G75*
%ADD66C,0.00591*%
%ADD91C,0.00622*%
D66*
X44721Y-34353D02*
G03*
X49721Y-29353I0J5000D01*
G01*
X28762Y-29353D02*
G03*
X33762Y-34353I5000J0D01*
G01*
X107922Y73052D02*
G03*
X102922Y78052I-5000J0D01*
G01*
X102922Y57093D02*
G03*
X107922Y62093I0J5000D01*
G01*
X92146Y105441D02*
G03*
X92146Y112512I-3536J3536D01*
G01*
X84398Y120261D02*
G03*
X77327Y120261I-3536J-3536D01*
G01*
X50010Y131812D02*
G03*
X45010Y136812I-5000J0D01*
G01*
X34052D02*
G03*
X29052Y131812I0J-5000D01*
G01*
X1735Y120261D02*
G03*
X-5336Y120261I-3536J-3536D01*
G01*
X-13085Y112512D02*
G03*
X-13085Y105441I3536J-3536D01*
G01*
X-28861Y62093D02*
G03*
X-23860Y57093I5000J0D01*
G01*
X-23860Y78052D02*
G03*
X-28861Y73052I0J-5000D01*
G01*
X83467Y115623D02*
X85488Y113602D01*
X85488Y113602D02*
X87509Y111581D01*
X80429Y108543D02*
X82450Y106522D01*
X78408Y110564D02*
X80429Y108543D01*
X-8448Y111581D02*
X-6427Y113602D01*
X-6427Y113602D02*
X-4406Y115623D01*
X-1367Y108543D02*
X654Y110564D01*
X-3388Y106522D02*
X-1367Y108543D01*
X36383Y-30416D02*
X39241D01*
X39241D02*
X42100D01*
X39241Y-23261D02*
X42100D01*
X36383D02*
X39241D01*
X103985Y64714D02*
Y67572D01*
Y67572D02*
Y70431D01*
X96830Y67572D02*
Y70431D01*
Y64714D02*
Y67572D01*
X39531Y132875D02*
X42389D01*
X36673D02*
X39531D01*
X36673Y125720D02*
X39531D01*
X39531D02*
X42389D01*
X-17768Y67572D02*
Y70431D01*
Y64714D02*
Y67572D01*
X-24924Y64714D02*
Y67572D01*
X33762Y-34353D02*
X39241Y-34353D01*
X28762Y-29353D02*
Y-15575D01*
X49721Y-29353D02*
Y-15575D01*
X39241Y-34353D02*
X44721Y-34353D01*
X89143Y78052D02*
X102922D01*
X89143Y57093D02*
X102922D01*
X82403Y95697D02*
X92146Y105441D01*
X67583Y110517D02*
X77327Y120261D01*
X29052Y118032D02*
Y131812D01*
X50010Y118032D02*
Y131812D01*
X107922Y73052D02*
X107922Y67572D01*
X107922Y62093D02*
X107922Y67572D01*
X88272Y116386D02*
X92146Y112512D01*
X84398Y120261D02*
X88272Y116386D01*
X39530Y136812D02*
X45010D01*
X34052D02*
X39531D01*
X-13085Y105441D02*
X-3341Y95697D01*
X1735Y120261D02*
X11479Y110517D01*
X-9211Y116386D02*
X-5336Y120261D01*
X-13085Y112512D02*
X-9211Y116386D01*
X-28861Y67572D02*
X-28861Y73052D01*
X-24924Y67572D02*
Y70431D01*
X-23860Y78052D02*
X-10083D01*
X-23860Y57093D02*
X-10083D01*
X-28861Y67572D02*
X-28861Y62093D01*
X39531Y67572D02*
Y67676D01*
X39531Y67572D02*
X39609D01*
X39531D02*
X39613D01*
D91*
X82444Y106528D02*
G03*
X87509Y111581I2227J2833D01*
G01*
X83467Y115623D02*
G03*
X78414Y110558I-2221J-2838D01*
G01*
X648Y110558D02*
G03*
X-4406Y115623I-2833J2227D01*
G01*
X-8448Y111581D02*
G03*
X-3382Y106528I2838J-2221D01*
G01*
X36383Y-23261D02*
G03*
X36392Y-30416I437J-3577D01*
G01*
X42091D02*
G03*
X42100Y-23261I-428J3578D01*
G01*
X96830Y64714D02*
G03*
X103985Y64723I3577J437D01*
G01*
Y70422D02*
G03*
X96830Y70431I-3578J-428D01*
G01*
X42389Y125720D02*
G03*
X42381Y132875I-437J3577D01*
G01*
X36681D02*
G03*
X36673Y125720I428J-3578D01*
G01*
X49721Y-15575D02*
G03*
X89143Y57093I-71686J85916D01*
G01*
X-10083Y57093D02*
G03*
X28762Y-15575I115174J14850D01*
G01*
X89144Y78052D02*
G03*
X82403Y95697I-38059J-4430D01*
G01*
X67583Y110517D02*
G03*
X50010Y118032I-27925J-40997D01*
G01*
X29052Y118032D02*
G03*
X11479Y110517I10352J-48512D01*
G01*
X-3341Y95697D02*
G03*
X-10083Y78052I31318J-22075D01*
G01*
X-24924Y64723D02*
G03*
X-17768Y64714I3578J428D01*
G01*
Y70431D02*
G03*
X-24924Y70422I-3577J-437D01*
G01*
M02*
