G04*
G04 #@! TF.GenerationSoftware,Altium Limited,Altium Designer,20.0.10 (225)*
G04*
G04 Layer_Color=16711935*
%FSLAX25Y25*%
%MOIN*%
G70*
G01*
G75*
%ADD37C,0.08674*%
G04:AMPARAMS|DCode=38|XSize=86.74mil|YSize=86.74mil|CornerRadius=23.68mil|HoleSize=0mil|Usage=FLASHONLY|Rotation=90.000|XOffset=0mil|YOffset=0mil|HoleType=Round|Shape=RoundedRectangle|*
%AMROUNDEDRECTD38*
21,1,0.08674,0.03937,0,0,90.0*
21,1,0.03937,0.08674,0,0,90.0*
1,1,0.04737,0.01968,0.01968*
1,1,0.04737,0.01968,-0.01968*
1,1,0.04737,-0.01968,-0.01968*
1,1,0.04737,-0.01968,0.01968*
%
%ADD38ROUNDEDRECTD38*%
%ADD40C,0.09855*%
G04:AMPARAMS|DCode=41|XSize=98.55mil|YSize=98.55mil|CornerRadius=26.64mil|HoleSize=0mil|Usage=FLASHONLY|Rotation=45.000|XOffset=0mil|YOffset=0mil|HoleType=Round|Shape=RoundedRectangle|*
%AMROUNDEDRECTD41*
21,1,0.09855,0.04528,0,0,45.0*
21,1,0.04528,0.09855,0,0,45.0*
1,1,0.05328,0.03202,0.00000*
1,1,0.05328,0.00000,-0.03202*
1,1,0.05328,-0.03202,0.00000*
1,1,0.05328,0.00000,0.03202*
%
%ADD41ROUNDEDRECTD41*%
G04:AMPARAMS|DCode=42|XSize=98.55mil|YSize=98.55mil|CornerRadius=26.64mil|HoleSize=0mil|Usage=FLASHONLY|Rotation=90.000|XOffset=0mil|YOffset=0mil|HoleType=Round|Shape=RoundedRectangle|*
%AMROUNDEDRECTD42*
21,1,0.09855,0.04528,0,0,90.0*
21,1,0.04528,0.09855,0,0,90.0*
1,1,0.05328,0.02264,0.02264*
1,1,0.05328,0.02264,-0.02264*
1,1,0.05328,-0.02264,-0.02264*
1,1,0.05328,-0.02264,0.02264*
%
%ADD42ROUNDEDRECTD42*%
G04:AMPARAMS|DCode=43|XSize=98.55mil|YSize=98.55mil|CornerRadius=26.64mil|HoleSize=0mil|Usage=FLASHONLY|Rotation=0.000|XOffset=0mil|YOffset=0mil|HoleType=Round|Shape=RoundedRectangle|*
%AMROUNDEDRECTD43*
21,1,0.09855,0.04528,0,0,0.0*
21,1,0.04528,0.09855,0,0,0.0*
1,1,0.05328,0.02264,-0.02264*
1,1,0.05328,-0.02264,-0.02264*
1,1,0.05328,-0.02264,0.02264*
1,1,0.05328,0.02264,0.02264*
%
%ADD43ROUNDEDRECTD43*%
G04:AMPARAMS|DCode=44|XSize=98.55mil|YSize=98.55mil|CornerRadius=26.64mil|HoleSize=0mil|Usage=FLASHONLY|Rotation=315.000|XOffset=0mil|YOffset=0mil|HoleType=Round|Shape=RoundedRectangle|*
%AMROUNDEDRECTD44*
21,1,0.09855,0.04528,0,0,315.0*
21,1,0.04528,0.09855,0,0,315.0*
1,1,0.05328,0.00000,-0.03202*
1,1,0.05328,-0.03202,0.00000*
1,1,0.05328,0.00000,0.03202*
1,1,0.05328,0.03202,0.00000*
%
%ADD44ROUNDEDRECTD44*%
G04:AMPARAMS|DCode=45|XSize=31.62mil|YSize=30.44mil|CornerRadius=0mil|HoleSize=0mil|Usage=FLASHONLY|Rotation=225.000|XOffset=0mil|YOffset=0mil|HoleType=Round|Shape=Rectangle|*
%AMROTATEDRECTD45*
4,1,4,0.00042,0.02194,0.02194,0.00042,-0.00042,-0.02194,-0.02194,-0.00042,0.00042,0.02194,0.0*
%
%ADD45ROTATEDRECTD45*%

G04:AMPARAMS|DCode=46|XSize=26.5mil|YSize=21.78mil|CornerRadius=0mil|HoleSize=0mil|Usage=FLASHONLY|Rotation=45.000|XOffset=0mil|YOffset=0mil|HoleType=Round|Shape=Rectangle|*
%AMROTATEDRECTD46*
4,1,4,-0.00167,-0.01707,-0.01707,-0.00167,0.00167,0.01707,0.01707,0.00167,-0.00167,-0.01707,0.0*
%
%ADD46ROTATEDRECTD46*%

%ADD53C,0.03950*%
%ADD55R,0.03162X0.03556*%
%ADD56R,0.03556X0.03162*%
%ADD59C,0.03556*%
%ADD60C,0.02769*%
%ADD61C,0.04737*%
%ADD62C,0.05524*%
%ADD82R,0.02769X0.03556*%
%ADD83R,0.02650X0.02178*%
%ADD84R,0.03162X0.03044*%
%ADD85R,0.02178X0.02650*%
%ADD86R,0.03044X0.03162*%
%ADD87R,0.10052X0.07021*%
%ADD88R,0.01824X0.04107*%
%ADD89R,0.03162X0.03950*%
%ADD90R,0.01706X0.03556*%
D37*
X59532Y167D02*
D03*
X7276Y91998D02*
D03*
X116Y62036D02*
D03*
X34061Y108433D02*
D03*
X63861Y99939D02*
D03*
X79123Y73183D02*
D03*
X45010Y-5458D02*
D03*
D38*
X20162Y167D02*
D03*
D40*
X7276Y91998D02*
D03*
X116Y62036D02*
D03*
X34061Y108433D02*
D03*
X63861Y99939D02*
D03*
X79123Y73183D02*
D03*
X45010Y-5458D02*
D03*
X15210Y99932D02*
D03*
X116Y73256D02*
D03*
X45282Y108433D02*
D03*
X71795Y92005D02*
D03*
X79123Y61962D02*
D03*
X33790Y-5458D02*
D03*
D41*
X15210Y99932D02*
D03*
D42*
X116Y73256D02*
D03*
X79123Y61962D02*
D03*
D43*
X45282Y108433D02*
D03*
X33790Y-5458D02*
D03*
D44*
X71795Y92005D02*
D03*
D45*
X48466Y94852D02*
D03*
X51250Y92068D02*
D03*
D46*
X54270Y94253D02*
D03*
X52461Y96063D02*
D03*
X50651Y97873D02*
D03*
X45445Y92667D02*
D03*
X47255Y90857D02*
D03*
X49064Y89048D02*
D03*
D53*
X20162Y167D02*
D03*
X59532D02*
D03*
X2367Y17784D02*
D03*
X7276Y9352D02*
D03*
X4826Y13692D02*
D03*
X36343Y32379D02*
D03*
D55*
X61195Y35786D02*
D03*
X57258D02*
D03*
X28749Y80792D02*
D03*
X24812D02*
D03*
X28779Y84312D02*
D03*
X24842D02*
D03*
X44917Y44896D02*
D03*
X40980D02*
D03*
X44917Y40073D02*
D03*
X40980D02*
D03*
X40267Y16640D02*
D03*
X36330D02*
D03*
X36380Y20184D02*
D03*
X40317D02*
D03*
X41841Y25352D02*
D03*
X45778D02*
D03*
D56*
X33421Y41109D02*
D03*
Y45046D02*
D03*
X37006Y45083D02*
D03*
Y41146D02*
D03*
X37956Y72359D02*
D03*
Y76296D02*
D03*
X60236Y54334D02*
D03*
Y50397D02*
D03*
X72668Y35683D02*
D03*
Y31746D02*
D03*
X68731Y35683D02*
D03*
Y31746D02*
D03*
X20578Y33714D02*
D03*
Y37651D02*
D03*
X60232Y42738D02*
D03*
Y46675D02*
D03*
D59*
X57684Y31493D02*
D03*
D60*
X21635Y45722D02*
D03*
X25966D02*
D03*
X21635Y41391D02*
D03*
X25966D02*
D03*
D61*
X11930Y11827D02*
D03*
X9430Y16157D02*
D03*
X6930Y20487D02*
D03*
D62*
X22448Y64127D02*
D03*
D82*
X52816Y44896D02*
D03*
X48486D02*
D03*
X48087Y16640D02*
D03*
X43756D02*
D03*
D83*
X64482Y66785D02*
D03*
Y64226D02*
D03*
Y61667D02*
D03*
X57119D02*
D03*
Y64226D02*
D03*
Y66785D02*
D03*
D84*
X60800Y66194D02*
D03*
Y62257D02*
D03*
D85*
X16457Y74482D02*
D03*
X13898D02*
D03*
X11339D02*
D03*
Y81844D02*
D03*
X13898D02*
D03*
X16457D02*
D03*
D86*
X15867Y78163D02*
D03*
X11930D02*
D03*
D87*
X68731Y48304D02*
D03*
D88*
X64794Y42654D02*
D03*
X66762D02*
D03*
X68731D02*
D03*
X70699D02*
D03*
X72668D02*
D03*
Y53954D02*
D03*
X70699D02*
D03*
X68731D02*
D03*
X66762D02*
D03*
X64794D02*
D03*
D89*
X32095Y74226D02*
D03*
X22253D02*
D03*
D90*
X47008Y29081D02*
D03*
X45040D02*
D03*
X43071D02*
D03*
X47008Y34593D02*
D03*
X45040D02*
D03*
X43071D02*
D03*
M02*
