G04*
G04 #@! TF.GenerationSoftware,Altium Limited,Altium Designer,20.0.10 (225)*
G04*
G04 Layer_Color=32896*
%FSLAX25Y25*%
%MOIN*%
G70*
G01*
G75*
%ADD93C,0.00500*%
%ADD95C,0.00000*%
D93*
X47746Y87057D02*
G03*
X47746Y87057I-394J0D01*
G01*
D02*
G03*
X47746Y87057I-394J0D01*
G01*
X67493Y66982D02*
G03*
X67493Y66982I-394J0D01*
G01*
D02*
G03*
X67493Y66982I-394J0D01*
G01*
X34357Y22747D02*
G03*
X34357Y22747I-394J0D01*
G01*
D02*
G03*
X34357Y22747I-394J0D01*
G01*
X17048Y71864D02*
G03*
X17048Y71864I-394J0D01*
G01*
D02*
G03*
X17048Y71864I-394J0D01*
G01*
X44290Y93460D02*
X49858Y87892D01*
X44290Y93460D02*
X49858Y99028D01*
X55426Y93460D01*
X49858Y87892D02*
X55426Y93460D01*
X44290D02*
X49858Y87892D01*
X44290Y93460D02*
X49858Y99028D01*
X55426Y93460D01*
X49858Y87892D02*
X55426Y93460D01*
X56863Y68163D02*
X64737D01*
X56863Y60289D02*
Y68163D01*
Y60289D02*
X64737D01*
Y68163D01*
X56863D02*
X64737D01*
X56863Y60289D02*
Y68163D01*
Y60289D02*
X64737D01*
Y68163D01*
X32782Y20384D02*
X40656D01*
Y12510D02*
Y20384D01*
X32782Y12510D02*
X40656D01*
X32782D02*
Y20384D01*
X40656D01*
Y12510D02*
Y20384D01*
X32782Y12510D02*
X40656D01*
X32782D02*
Y20384D01*
X17835Y74226D02*
Y82100D01*
X9961D02*
X17835D01*
X9961Y74226D02*
Y82100D01*
Y74226D02*
X17835D01*
Y82100D01*
X9961D02*
X17835D01*
X9961Y74226D02*
Y82100D01*
Y74226D02*
X17835D01*
X62825Y42399D02*
Y54210D01*
X74636D01*
Y42399D02*
Y54210D01*
X62825Y42399D02*
X74636D01*
X62825D02*
Y54210D01*
X74636D01*
Y42399D02*
Y54210D01*
X62825Y42399D02*
X74636D01*
D95*
X62427Y32370D02*
G03*
X60027Y32370I-1200J0D01*
G01*
X62427D02*
G03*
X60027Y32370I-1200J0D01*
G01*
X65327D02*
Y40570D01*
X62427Y32370D02*
X65327D01*
X60027D02*
X62427D01*
X57127D02*
X60027D01*
X57127D02*
Y40570D01*
X65327D01*
Y32370D02*
Y40570D01*
X62427Y32370D02*
X65327D01*
X60027D02*
X62427D01*
X57127D02*
X60027D01*
X57127D02*
Y40570D01*
X65327D01*
M02*
