G04*
G04 #@! TF.GenerationSoftware,Altium Limited,Altium Designer,20.0.10 (225)*
G04*
G04 Layer_Physical_Order=3*
G04 Layer_Color=16440176*
%FSLAX25Y25*%
%MOIN*%
G70*
G01*
G75*
%ADD22C,0.09055*%
%ADD26C,0.03150*%
%ADD59C,0.01968*%
%ADD60C,0.07874*%
%ADD61C,0.03937*%
%ADD62C,0.02756*%
%ADD63C,0.04724*%
G36*
X46468Y130714D02*
X47378Y130337D01*
X48197Y129790D01*
X48893Y129094D01*
X49441Y128275D01*
X49817Y127365D01*
X50010Y126399D01*
X50010Y116064D01*
X52168Y115570D01*
X56379Y114199D01*
X60449Y112454D01*
X64346Y110349D01*
X66191Y109125D01*
X73499Y116433D01*
X74318Y116980D01*
X75228Y117357D01*
X76194Y117549D01*
X77179D01*
X78145Y117357D01*
X79055Y116980D01*
X79874Y116433D01*
X80222Y116085D01*
X80222D01*
X84096Y112211D01*
X88319Y107988D01*
X88866Y107169D01*
X89243Y106259D01*
X89435Y105293D01*
Y104308D01*
X89243Y103342D01*
X88866Y102432D01*
X88319Y101613D01*
X87971Y101265D01*
X87971Y101265D01*
Y101265D01*
X81011Y94305D01*
X82069Y92389D01*
X83905Y88415D01*
X85452Y84319D01*
X86701Y80123D01*
X87174Y77986D01*
X97017D01*
X97509Y77986D01*
X98475Y77794D01*
X99385Y77417D01*
X100204Y76870D01*
X100900Y76173D01*
X101447Y75354D01*
X101824Y74445D01*
X102016Y73479D01*
X102016Y67507D01*
X102016Y62028D01*
X102016Y61535D01*
X101824Y60569D01*
X101447Y59659D01*
X100900Y58840D01*
X100204Y58144D01*
X99385Y57597D01*
X98475Y57220D01*
X97509Y57028D01*
X87174D01*
X87108Y57038D01*
X86632Y53964D01*
X85293Y47888D01*
X83571Y41909D01*
X81473Y36052D01*
X79009Y30340D01*
X76187Y24795D01*
X73019Y19440D01*
X69518Y14297D01*
X65698Y9386D01*
X61575Y4727D01*
X57164Y339D01*
X52484Y-3760D01*
X50415Y-5352D01*
X50010Y-5646D01*
X50010Y-5646D01*
Y-6154D01*
Y-15981D01*
X49818Y-16947D01*
X49441Y-17856D01*
X48894Y-18676D01*
X48197Y-19372D01*
X47378Y-19919D01*
X46468Y-20296D01*
X45502Y-20488D01*
X45010D01*
Y-20488D01*
X34051D01*
X33559Y-20488D01*
X32593Y-20296D01*
X31683Y-19919D01*
X30864Y-19372D01*
X30168Y-18676D01*
X29621Y-17856D01*
X29244Y-16947D01*
X29052Y-15981D01*
Y-6132D01*
X29052Y-6132D01*
X29052Y-5646D01*
X29031Y-5648D01*
X26577Y-3760D01*
X21897Y339D01*
X17487Y4727D01*
X13363Y9386D01*
X9543Y14297D01*
X6042Y19440D01*
X2875Y24795D01*
X53Y30340D01*
X-2412Y36052D01*
X-4509Y41909D01*
X-6231Y47888D01*
X-7570Y53964D01*
X-8046Y57038D01*
X-8046Y57038D01*
X-8046Y57038D01*
X-8542Y57028D01*
X-18447D01*
X-19413Y57220D01*
X-20323Y57597D01*
X-21142Y58144D01*
X-21839Y58840D01*
X-22386Y59659D01*
X-22763Y60569D01*
X-22955Y61535D01*
Y62028D01*
X-22955D01*
X-22955Y67507D01*
X-22955Y73479D01*
X-22763Y74445D01*
X-22386Y75354D01*
X-21839Y76173D01*
X-21142Y76870D01*
X-20323Y77417D01*
X-19413Y77794D01*
X-18447Y77986D01*
X-17955D01*
Y77986D01*
X-8112Y77986D01*
X-7640Y80123D01*
X-6391Y84319D01*
X-4844Y88415D01*
X-3008Y92389D01*
X-1949Y94305D01*
X-9257Y101613D01*
X-9804Y102432D01*
X-10181Y103342D01*
X-10374Y104308D01*
Y105293D01*
X-10181Y106259D01*
X-9804Y107169D01*
X-9257Y107988D01*
X-8909Y108336D01*
X-8909D01*
X-5035Y112211D01*
X-812Y116433D01*
X7Y116980D01*
X917Y117357D01*
X1883Y117549D01*
X2868D01*
X3834Y117357D01*
X4744Y116980D01*
X5562Y116433D01*
X12870Y109125D01*
X14716Y110349D01*
X18612Y112454D01*
X22682Y114199D01*
X26893Y115570D01*
X29052Y116064D01*
Y126399D01*
X29244Y127365D01*
X29621Y128275D01*
X30168Y129094D01*
X30865Y129790D01*
X31684Y130337D01*
X32594Y130714D01*
X33560Y130906D01*
X45502D01*
X46468Y130714D01*
D02*
G37*
%LPC*%
G36*
X43373Y127608D02*
X35688D01*
X35653Y127594D01*
X35617Y127604D01*
X35180Y127555D01*
X35110Y127516D01*
X35030Y127519D01*
X34205Y127214D01*
X34146Y127159D01*
X34068Y127143D01*
X33341Y126648D01*
X33297Y126580D01*
X33225Y126546D01*
X32639Y125891D01*
X32612Y125815D01*
X32550Y125763D01*
X32139Y124987D01*
X32132Y124907D01*
X32084Y124842D01*
X31871Y123989D01*
X31883Y123910D01*
X31852Y123836D01*
X31851Y122957D01*
X31882Y122882D01*
X31870Y122803D01*
X32080Y121950D01*
X32128Y121885D01*
X32135Y121805D01*
X32545Y121027D01*
X32607Y120976D01*
X32633Y120900D01*
X33218Y120243D01*
X33290Y120208D01*
X33334Y120141D01*
X34059Y119644D01*
X34138Y119628D01*
X34196Y119573D01*
X35020Y119265D01*
X35100Y119268D01*
X35170Y119229D01*
X35607Y119179D01*
X35644Y119190D01*
X35680Y119175D01*
X43382D01*
X43425Y119193D01*
X43446Y119187D01*
X43882Y119237D01*
X43952Y119276D01*
X44032Y119273D01*
X44855Y119579D01*
X44914Y119634D01*
X44993Y119650D01*
X45717Y120146D01*
X45761Y120213D01*
X45834Y120248D01*
X46418Y120903D01*
X46445Y120979D01*
X46507Y121030D01*
X46917Y121806D01*
X46924Y121886D01*
X46972Y121951D01*
X47183Y122803D01*
X47171Y122883D01*
X47202Y122957D01*
Y123835D01*
X47171Y123909D01*
X47183Y123988D01*
X46972Y124841D01*
X46924Y124905D01*
X46917Y124985D01*
X46507Y125762D01*
X46445Y125813D01*
X46418Y125889D01*
X45834Y126544D01*
X45761Y126579D01*
X45717Y126646D01*
X44993Y127141D01*
X44914Y127157D01*
X44855Y127212D01*
X44032Y127518D01*
X43952Y127516D01*
X43882Y127555D01*
X43446Y127604D01*
X43409Y127594D01*
X43373Y127608D01*
D02*
G37*
G36*
X2541Y113598D02*
X2465Y113572D01*
X2387Y113589D01*
X1526Y113432D01*
X1458Y113388D01*
X1378Y113386D01*
X580Y113027D01*
X525Y112969D01*
X448Y112948D01*
X103Y112678D01*
X83Y112642D01*
X45Y112626D01*
X-5523Y107059D01*
X-5523Y107059D01*
X-5538Y107021D01*
X-5573Y107002D01*
X-5844Y106658D01*
X-5866Y106581D01*
X-5924Y106526D01*
X-6284Y105728D01*
X-6287Y105648D01*
X-6330Y105581D01*
X-6489Y104720D01*
X-6473Y104642D01*
X-6499Y104566D01*
X-6447Y103692D01*
X-6413Y103620D01*
X-6420Y103541D01*
X-6160Y102705D01*
X-6109Y102643D01*
X-6097Y102564D01*
X-5646Y101814D01*
X-5581Y101767D01*
X-5551Y101693D01*
X-4932Y101073D01*
X-4858Y101042D01*
X-4811Y100978D01*
X-4062Y100524D01*
X-3983Y100512D01*
X-3922Y100461D01*
X-3086Y100199D01*
X-3007Y100207D01*
X-2935Y100171D01*
X-2061Y100118D01*
X-1985Y100144D01*
X-1907Y100127D01*
X-1046Y100284D01*
X-979Y100328D01*
X-899Y100330D01*
X-100Y100689D01*
X-45Y100747D01*
X32Y100768D01*
X377Y101038D01*
X397Y101074D01*
X435Y101089D01*
X6002Y106657D01*
X6018Y106694D01*
X6053Y106714D01*
X6323Y107058D01*
X6345Y107135D01*
X6403Y107190D01*
X6764Y107988D01*
X6767Y108068D01*
X6810Y108135D01*
X6969Y108996D01*
X6953Y109074D01*
X6979Y109150D01*
X6927Y110023D01*
X6892Y110095D01*
X6899Y110175D01*
X6640Y111011D01*
X6589Y111073D01*
X6577Y111152D01*
X6125Y111901D01*
X6061Y111949D01*
X6030Y112023D01*
X5412Y112643D01*
X5338Y112673D01*
X5291Y112738D01*
X4542Y113192D01*
X4463Y113204D01*
X4402Y113255D01*
X3566Y113516D01*
X3486Y113509D01*
X3414Y113544D01*
X2541Y113598D01*
D02*
G37*
G36*
X76494Y113633D02*
X75620Y113581D01*
X75548Y113546D01*
X75468Y113554D01*
X74632Y113294D01*
X74571Y113243D01*
X74492Y113231D01*
X73742Y112779D01*
X73694Y112715D01*
X73620Y112684D01*
X73001Y112066D01*
X72970Y111992D01*
X72906Y111945D01*
X72452Y111196D01*
X72440Y111117D01*
X72388Y111056D01*
X72127Y110220D01*
X72134Y110140D01*
X72099Y110069D01*
X72046Y109195D01*
X72072Y109119D01*
X72055Y109041D01*
X72212Y108180D01*
X72255Y108113D01*
X72258Y108033D01*
X72616Y107234D01*
X72675Y107179D01*
X72696Y107102D01*
X72966Y106757D01*
X73001Y106737D01*
X73017Y106699D01*
X73017Y106699D01*
X78585Y101131D01*
X78622Y101116D01*
X78642Y101081D01*
X78986Y100810D01*
X79063Y100789D01*
X79118Y100730D01*
X79915Y100370D01*
X79995Y100367D01*
X80063Y100324D01*
X80923Y100165D01*
X81002Y100181D01*
X81077Y100155D01*
X81951Y100207D01*
X82023Y100242D01*
X82103Y100234D01*
X82939Y100494D01*
X83000Y100545D01*
X83079Y100557D01*
X83829Y101009D01*
X83877Y101073D01*
X83951Y101104D01*
X84570Y101722D01*
X84601Y101796D01*
X84666Y101843D01*
X85119Y102592D01*
X85132Y102671D01*
X85183Y102732D01*
X85444Y103568D01*
X85437Y103647D01*
X85472Y103719D01*
X85526Y104593D01*
X85500Y104669D01*
X85517Y104747D01*
X85359Y105608D01*
X85316Y105675D01*
X85314Y105755D01*
X84955Y106554D01*
X84897Y106609D01*
X84875Y106686D01*
X84606Y107031D01*
X84570Y107051D01*
X84554Y107089D01*
X78986Y112657D01*
X78949Y112672D01*
X78929Y112707D01*
X78585Y112978D01*
X78508Y112999D01*
X78454Y113058D01*
X77656Y113418D01*
X77576Y113421D01*
X77509Y113464D01*
X76648Y113623D01*
X76570Y113607D01*
X76494Y113633D01*
D02*
G37*
G36*
X45282Y111627D02*
X43946Y111451D01*
X43135Y111115D01*
X31786Y111222D01*
X31771Y111219D01*
X31756Y111222D01*
X31618Y111190D01*
X31478Y111164D01*
X31465Y111156D01*
X31451Y111152D01*
X19027Y105610D01*
X18910Y105526D01*
X18790Y105448D01*
X16973Y103653D01*
X16602Y103702D01*
X15266Y103526D01*
X14020Y103011D01*
X12951Y102190D01*
X12131Y101121D01*
X11615Y99876D01*
X11439Y98540D01*
X11480Y98231D01*
X8859Y95644D01*
X8836Y95610D01*
X8804Y95584D01*
X8439Y95142D01*
X7486Y95017D01*
X6384Y94561D01*
X5438Y93835D01*
X4713Y92889D01*
X4256Y91788D01*
X4101Y90606D01*
X4182Y89987D01*
X3805Y89530D01*
X3740Y89409D01*
X3669Y89290D01*
X1094Y82115D01*
X1092Y82097D01*
X1083Y82082D01*
X-29Y78492D01*
X-32Y78465D01*
X-43Y78441D01*
X-48Y78310D01*
X-61Y78180D01*
X-54Y78155D01*
X-55Y78128D01*
X-10Y78005D01*
X10Y77941D01*
X-510Y77725D01*
X-1579Y76905D01*
X-2400Y75836D01*
X-2915Y74591D01*
X-3091Y73255D01*
X-2915Y71919D01*
X-2400Y70674D01*
X-1579Y69605D01*
X-510Y68784D01*
X735Y68269D01*
X2071Y68093D01*
X3407Y68269D01*
X4652Y68784D01*
X5721Y69605D01*
X6542Y70674D01*
X7057Y71919D01*
X7233Y73255D01*
X7057Y74591D01*
X6684Y75492D01*
X7048Y75919D01*
X18197Y73251D01*
X18283Y73248D01*
X18368Y73229D01*
X18439Y73242D01*
X18510Y73239D01*
X18591Y73269D01*
X18677Y73284D01*
X18737Y73323D01*
X18803Y73348D01*
X18867Y73407D01*
X18940Y73453D01*
X38321Y92119D01*
X50444Y92181D01*
X50617Y75340D01*
X50642Y75221D01*
X50657Y75099D01*
X50674Y75068D01*
X50681Y75034D01*
X50750Y74933D01*
X50810Y74826D01*
X50838Y74804D01*
X50858Y74775D01*
X50960Y74708D01*
X51056Y74633D01*
X51091Y74623D01*
X51120Y74604D01*
X51240Y74581D01*
X51358Y74548D01*
X55061Y74262D01*
Y42154D01*
X55017Y42111D01*
X38554D01*
X38405Y42081D01*
X38255Y42053D01*
X38251Y42050D01*
X38247Y42050D01*
X38120Y41965D01*
X37992Y41881D01*
X37990Y41878D01*
X37987Y41876D01*
X37902Y41749D01*
X37816Y41622D01*
X35747Y36764D01*
X35326Y36134D01*
X35192Y35460D01*
X27439Y17250D01*
X25893D01*
X25884Y17249D01*
X25875Y17250D01*
X25731Y17218D01*
X25585Y17189D01*
X25578Y17184D01*
X25570Y17183D01*
X25448Y17098D01*
X25325Y17015D01*
X25320Y17008D01*
X25313Y17003D01*
X24387Y16037D01*
X24316Y15924D01*
X24237Y15816D01*
X24232Y15793D01*
X24219Y15773D01*
X24196Y15641D01*
X24165Y15511D01*
X23992Y10847D01*
X24016Y10694D01*
X24040Y10541D01*
X24041Y10539D01*
X24042Y10537D01*
X24123Y10405D01*
X24203Y10274D01*
X28689Y5390D01*
X28715Y5371D01*
X28734Y5345D01*
X28841Y5280D01*
X28942Y5206D01*
X28973Y5198D01*
X29001Y5181D01*
X29321Y5062D01*
X29223Y4315D01*
X29379Y3133D01*
X29835Y2032D01*
X30560Y1086D01*
X31506Y360D01*
X32608Y-96D01*
X33790Y-252D01*
X34971Y-96D01*
X36073Y360D01*
X37019Y1086D01*
X37744Y2032D01*
X37795Y2155D01*
X40416Y2032D01*
X40539Y1734D01*
X41360Y665D01*
X42429Y-156D01*
X43674Y-671D01*
X45010Y-847D01*
X46346Y-671D01*
X47591Y-156D01*
X48660Y665D01*
X49481Y1734D01*
X49834Y2587D01*
X50678Y2743D01*
X50969Y2859D01*
X51109Y2995D01*
X51372Y2943D01*
X51679Y3004D01*
X51856Y3122D01*
X51874Y3098D01*
X55776Y6300D01*
X56058Y6565D01*
X56755Y6099D01*
X57600Y5931D01*
X58445Y6099D01*
X59161Y6577D01*
X59640Y7294D01*
X59808Y8138D01*
X59640Y8983D01*
X59255Y9559D01*
X59777Y10048D01*
X61743Y12147D01*
X62379Y11722D01*
X63224Y11554D01*
X64069Y11722D01*
X64785Y12201D01*
X65263Y12917D01*
X65431Y13762D01*
X65263Y14607D01*
X64785Y15323D01*
X64752Y15545D01*
X67002Y18286D01*
X70195Y22742D01*
X73090Y27397D01*
X75674Y32232D01*
X77936Y37225D01*
X79867Y42355D01*
X81458Y47601D01*
X82010Y49965D01*
X82183Y50427D01*
X82193Y50433D01*
X82367Y50694D01*
X82428Y51001D01*
X82428Y51001D01*
X82367Y51308D01*
Y51308D01*
X82334Y51357D01*
X82703Y52940D01*
X83596Y58349D01*
X84133Y63804D01*
X84313Y69283D01*
X84133Y74762D01*
X83995Y76171D01*
X83989Y76171D01*
X83978Y76226D01*
X83965Y76349D01*
X80146Y88352D01*
X80092Y88450D01*
X80049Y88554D01*
X78212Y91303D01*
X78162Y91354D01*
X78123Y91414D01*
X64548Y105507D01*
X64426Y105592D01*
X64307Y105679D01*
X52919Y110952D01*
X52907Y110955D01*
X52896Y110962D01*
X52755Y110992D01*
X52615Y111025D01*
X52602Y111023D01*
X52589Y111026D01*
X47528Y111074D01*
X46618Y111451D01*
X45282Y111627D01*
D02*
G37*
G36*
X35145Y82564D02*
X34530Y82442D01*
X34009Y82094D01*
X33661Y81573D01*
X33539Y80958D01*
X33661Y80344D01*
X34009Y79823D01*
X34530Y79475D01*
X35145Y79353D01*
X35759Y79475D01*
X36280Y79823D01*
X36628Y80344D01*
X36750Y80958D01*
X36628Y81573D01*
X36280Y82094D01*
X35759Y82442D01*
X35145Y82564D01*
D02*
G37*
G36*
X94945Y75178D02*
X94067D01*
X93993Y75147D01*
X93913Y75160D01*
X93061Y74948D01*
X92997Y74901D01*
X92917Y74893D01*
X92140Y74483D01*
X92089Y74421D01*
X92013Y74395D01*
X91358Y73810D01*
X91323Y73738D01*
X91256Y73694D01*
X90761Y72969D01*
X90744Y72890D01*
X90690Y72831D01*
X90383Y72009D01*
X90386Y71928D01*
X90347Y71858D01*
X90298Y71422D01*
X90303Y71402D01*
X90285Y71358D01*
X90285Y63656D01*
X90300Y63620D01*
X90289Y63583D01*
X90339Y63147D01*
X90378Y63077D01*
X90375Y62997D01*
X90681Y62174D01*
X90736Y62115D01*
X90753Y62036D01*
X91248Y61311D01*
X91315Y61267D01*
X91350Y61195D01*
X92005Y60611D01*
X92081Y60584D01*
X92132Y60522D01*
X92908Y60112D01*
X92988Y60105D01*
X93053Y60057D01*
X93905Y59846D01*
X93985Y59858D01*
X94059Y59827D01*
X94937D01*
X95011Y59858D01*
X95090Y59846D01*
X95943Y60057D01*
X96007Y60105D01*
X96087Y60112D01*
X96864Y60522D01*
X96915Y60584D01*
X96991Y60611D01*
X97646Y61195D01*
X97681Y61267D01*
X97748Y61311D01*
X98243Y62036D01*
X98260Y62115D01*
X98314Y62174D01*
X98620Y62997D01*
X98618Y63077D01*
X98657Y63147D01*
X98706Y63583D01*
X98698Y63613D01*
X98719Y63664D01*
Y71350D01*
X98704Y71385D01*
X98715Y71422D01*
X98665Y71858D01*
X98626Y71928D01*
X98629Y72009D01*
X98323Y72831D01*
X98268Y72890D01*
X98251Y72969D01*
X97756Y73694D01*
X97689Y73738D01*
X97654Y73810D01*
X96999Y74395D01*
X96923Y74421D01*
X96872Y74483D01*
X96096Y74893D01*
X96016Y74901D01*
X95951Y74948D01*
X95099Y75160D01*
X95019Y75147D01*
X94945Y75178D01*
D02*
G37*
G36*
X-15006Y75178D02*
X-15883D01*
X-15958Y75147D01*
X-16037Y75159D01*
X-16889Y74948D01*
X-16954Y74901D01*
X-17034Y74893D01*
X-17810Y74483D01*
X-17862Y74421D01*
X-17938Y74395D01*
X-18593Y73810D01*
X-18628Y73738D01*
X-18695Y73694D01*
X-19190Y72969D01*
X-19206Y72890D01*
X-19261Y72831D01*
X-19567Y72009D01*
X-19564Y71928D01*
X-19603Y71858D01*
X-19653Y71422D01*
X-19653Y71421D01*
X-19653Y71420D01*
X-19653Y71420D01*
X-19643Y71384D01*
X-19657Y71350D01*
Y71350D01*
X-19657Y71350D01*
X-19657Y71350D01*
Y63664D01*
X-19636Y63613D01*
X-19645Y63583D01*
X-19595Y63147D01*
X-19556Y63077D01*
X-19559Y62997D01*
X-19253Y62174D01*
X-19198Y62115D01*
X-19182Y62036D01*
X-18686Y61311D01*
X-18619Y61267D01*
X-18584Y61195D01*
X-17929Y60611D01*
X-17853Y60584D01*
X-17802Y60522D01*
X-17026Y60112D01*
X-16946Y60105D01*
X-16881Y60057D01*
X-16029Y59846D01*
X-15949Y59858D01*
X-15875Y59827D01*
X-14997D01*
X-14923Y59858D01*
X-14844Y59846D01*
X-13992Y60057D01*
X-13927Y60105D01*
X-13847Y60112D01*
X-13070Y60522D01*
X-13019Y60584D01*
X-12943Y60611D01*
X-12288Y61195D01*
X-12253Y61267D01*
X-12186Y61311D01*
X-11691Y62036D01*
X-11675Y62115D01*
X-11620Y62174D01*
X-11314Y62997D01*
X-11316Y63077D01*
X-11277Y63147D01*
X-11228Y63583D01*
X-11238Y63620D01*
X-11224Y63656D01*
Y71358D01*
X-11242Y71402D01*
X-11236Y71422D01*
X-11286Y71858D01*
X-11325Y71928D01*
X-11322Y72009D01*
X-11628Y72831D01*
X-11683Y72890D01*
X-11699Y72969D01*
X-12195Y73694D01*
X-12262Y73738D01*
X-12297Y73810D01*
X-12952Y74395D01*
X-13027Y74421D01*
X-13079Y74483D01*
X-13855Y74893D01*
X-13935Y74901D01*
X-14000Y74948D01*
X-14852Y75159D01*
X-14931Y75147D01*
X-15006Y75178D01*
D02*
G37*
G36*
X16621Y69770D02*
X16007Y69648D01*
X15486Y69300D01*
X15138Y68779D01*
X15016Y68164D01*
X15138Y67550D01*
X15486Y67029D01*
X16007Y66681D01*
X16621Y66558D01*
X17236Y66681D01*
X17757Y67029D01*
X18105Y67550D01*
X18227Y68164D01*
X18105Y68779D01*
X17757Y69300D01*
X17236Y69648D01*
X16621Y69770D01*
D02*
G37*
G36*
X31897Y65438D02*
X31282Y65316D01*
X30761Y64968D01*
X30413Y64447D01*
X30291Y63832D01*
X30413Y63218D01*
X30761Y62697D01*
X31282Y62349D01*
X31897Y62227D01*
X32511Y62349D01*
X33032Y62697D01*
X33380Y63218D01*
X33502Y63832D01*
X33380Y64447D01*
X33032Y64968D01*
X32511Y65316D01*
X31897Y65438D01*
D02*
G37*
G36*
X22448Y67106D02*
X21677Y67004D01*
X20959Y66707D01*
X20342Y66233D01*
X19869Y65617D01*
X19571Y64898D01*
X19469Y64127D01*
X19571Y63357D01*
X19869Y62638D01*
X20342Y62022D01*
X20959Y61548D01*
X21677Y61251D01*
X22448Y61149D01*
X23219Y61251D01*
X23937Y61548D01*
X24554Y62022D01*
X25027Y62638D01*
X25324Y63357D01*
X25426Y64127D01*
X25324Y64898D01*
X25027Y65617D01*
X24554Y66233D01*
X23937Y66707D01*
X23219Y67004D01*
X22448Y67106D01*
D02*
G37*
G36*
X29534Y60713D02*
X28920Y60591D01*
X28399Y60243D01*
X28051Y59722D01*
X27929Y59108D01*
X28051Y58493D01*
X28399Y57973D01*
X28920Y57624D01*
X29534Y57502D01*
X30149Y57624D01*
X30670Y57973D01*
X31018Y58493D01*
X31140Y59108D01*
X31018Y59722D01*
X30670Y60243D01*
X30149Y60591D01*
X29534Y60713D01*
D02*
G37*
G36*
X2071Y66601D02*
X889Y66445D01*
X-213Y65989D01*
X-1158Y65263D01*
X-1884Y64318D01*
X-2340Y63216D01*
X-2496Y62034D01*
X-2340Y60852D01*
X-1884Y59751D01*
X-1158Y58805D01*
X-213Y58080D01*
X889Y57623D01*
X2071Y57468D01*
X3253Y57623D01*
X4354Y58080D01*
X5300Y58805D01*
X6026Y59751D01*
X6482Y60852D01*
X6638Y62034D01*
X6482Y63216D01*
X6026Y64318D01*
X5300Y65263D01*
X4354Y65989D01*
X3253Y66445D01*
X2071Y66601D01*
D02*
G37*
G36*
X17773Y59926D02*
X17159Y59804D01*
X16638Y59456D01*
X16290Y58935D01*
X16168Y58320D01*
X16290Y57706D01*
X16638Y57185D01*
X17159Y56837D01*
X17773Y56715D01*
X18388Y56837D01*
X18909Y57185D01*
X19257Y57706D01*
X19379Y58320D01*
X19257Y58935D01*
X18909Y59456D01*
X18388Y59804D01*
X17773Y59926D01*
D02*
G37*
G36*
X50302Y51954D02*
X49688Y51831D01*
X49167Y51483D01*
X48819Y50963D01*
X48696Y50348D01*
X48819Y49734D01*
X49167Y49213D01*
X49688Y48865D01*
X50302Y48742D01*
X50916Y48865D01*
X51437Y49213D01*
X51785Y49734D01*
X51908Y50348D01*
X51785Y50963D01*
X51437Y51483D01*
X50916Y51831D01*
X50302Y51954D01*
D02*
G37*
G36*
X9751Y49395D02*
X9136Y49272D01*
X8615Y48924D01*
X8268Y48403D01*
X8145Y47789D01*
X8268Y47175D01*
X8615Y46654D01*
X9136Y46306D01*
X9751Y46183D01*
X10365Y46306D01*
X10886Y46654D01*
X11234Y47175D01*
X11356Y47789D01*
X11234Y48403D01*
X10886Y48924D01*
X10365Y49272D01*
X9751Y49395D01*
D02*
G37*
G36*
X25966Y47328D02*
X25351Y47205D01*
X24830Y46857D01*
X24482Y46336D01*
X24360Y45722D01*
X24482Y45108D01*
X24830Y44587D01*
X25351Y44239D01*
X25966Y44116D01*
X26580Y44239D01*
X27101Y44587D01*
X27449Y45108D01*
X27571Y45722D01*
X27449Y46336D01*
X27101Y46857D01*
X26580Y47205D01*
X25966Y47328D01*
D02*
G37*
G36*
X21635D02*
X21021Y47205D01*
X20500Y46857D01*
X20152Y46336D01*
X20029Y45722D01*
X20152Y45108D01*
X20500Y44587D01*
X21021Y44239D01*
X21635Y44116D01*
X22250Y44239D01*
X22770Y44587D01*
X23118Y45108D01*
X23241Y45722D01*
X23118Y46336D01*
X22770Y46857D01*
X22250Y47205D01*
X21635Y47328D01*
D02*
G37*
G36*
X25966Y42997D02*
X25351Y42875D01*
X24830Y42527D01*
X24482Y42006D01*
X24360Y41391D01*
X24482Y40777D01*
X24830Y40256D01*
X25351Y39908D01*
X25966Y39786D01*
X26580Y39908D01*
X27101Y40256D01*
X27449Y40777D01*
X27571Y41391D01*
X27449Y42006D01*
X27101Y42527D01*
X26580Y42875D01*
X25966Y42997D01*
D02*
G37*
G36*
X21635D02*
X21021Y42875D01*
X20500Y42527D01*
X20152Y42006D01*
X20029Y41391D01*
X20152Y40777D01*
X20500Y40256D01*
X21021Y39908D01*
X21635Y39786D01*
X22250Y39908D01*
X22770Y40256D01*
X23118Y40777D01*
X23241Y41391D01*
X23118Y42006D01*
X22770Y42527D01*
X22250Y42875D01*
X21635Y42997D01*
D02*
G37*
G36*
X16641Y32465D02*
X16026Y32343D01*
X15505Y31995D01*
X15157Y31474D01*
X15035Y30860D01*
X15157Y30245D01*
X15505Y29724D01*
X16026Y29376D01*
X16641Y29254D01*
X17255Y29376D01*
X17776Y29724D01*
X18124Y30245D01*
X18246Y30860D01*
X18124Y31474D01*
X17776Y31995D01*
X17255Y32343D01*
X16641Y32465D01*
D02*
G37*
G36*
X28747Y32072D02*
X28133Y31950D01*
X27612Y31602D01*
X27264Y31081D01*
X27141Y30466D01*
X27264Y29852D01*
X27612Y29331D01*
X28133Y28983D01*
X28747Y28861D01*
X29361Y28983D01*
X29882Y29331D01*
X30230Y29852D01*
X30353Y30466D01*
X30230Y31081D01*
X29882Y31602D01*
X29361Y31950D01*
X28747Y32072D01*
D02*
G37*
G36*
X20578Y28725D02*
X19963Y28603D01*
X19442Y28255D01*
X19094Y27734D01*
X18972Y27120D01*
X19094Y26505D01*
X19442Y25984D01*
X19963Y25636D01*
X20578Y25514D01*
X21192Y25636D01*
X21713Y25984D01*
X22061Y26505D01*
X22183Y27120D01*
X22061Y27734D01*
X21713Y28255D01*
X21192Y28603D01*
X20578Y28725D01*
D02*
G37*
G36*
X28747Y27446D02*
X28133Y27324D01*
X27612Y26976D01*
X27264Y26455D01*
X27141Y25840D01*
X27264Y25226D01*
X27612Y24705D01*
X28133Y24357D01*
X28747Y24235D01*
X29361Y24357D01*
X29882Y24705D01*
X30230Y25226D01*
X30353Y25840D01*
X30230Y26455D01*
X29882Y26976D01*
X29361Y27324D01*
X28747Y27446D01*
D02*
G37*
G36*
X11199Y23022D02*
X10531Y22934D01*
X9909Y22676D01*
X9374Y22266D01*
X8964Y21731D01*
X8706Y21109D01*
X8618Y20441D01*
X8706Y19773D01*
X8964Y19150D01*
X9374Y18616D01*
X9909Y18205D01*
X10531Y17947D01*
X11199Y17860D01*
X11867Y17947D01*
X12490Y18205D01*
X13024Y18616D01*
X13434Y19150D01*
X13692Y19773D01*
X13780Y20441D01*
X13692Y21109D01*
X13434Y21731D01*
X13024Y22266D01*
X12490Y22676D01*
X11867Y22934D01*
X11199Y23022D01*
D02*
G37*
G36*
X17217Y15035D02*
X16549Y14947D01*
X15927Y14690D01*
X15392Y14279D01*
X14982Y13745D01*
X14724Y13122D01*
X14636Y12454D01*
X14724Y11786D01*
X14982Y11164D01*
X15392Y10629D01*
X15927Y10219D01*
X16549Y9961D01*
X17217Y9873D01*
X17885Y9961D01*
X18508Y10219D01*
X19042Y10629D01*
X19453Y11164D01*
X19710Y11786D01*
X19798Y12454D01*
X19710Y13122D01*
X19453Y13745D01*
X19042Y14279D01*
X18508Y14690D01*
X17885Y14947D01*
X17217Y15035D01*
D02*
G37*
G36*
X43382Y-8757D02*
X35680D01*
X35644Y-8772D01*
X35607Y-8761D01*
X35170Y-8811D01*
X35100Y-8850D01*
X35019Y-8847D01*
X34196Y-9155D01*
X34137Y-9210D01*
X34059Y-9227D01*
X33333Y-9723D01*
X33290Y-9790D01*
X33217Y-9825D01*
X32633Y-10482D01*
X32606Y-10558D01*
X32544Y-10609D01*
X32135Y-11387D01*
X32128Y-11467D01*
X32080Y-11531D01*
X31870Y-12385D01*
X31882Y-12464D01*
X31851Y-12539D01*
X31852Y-13418D01*
X31883Y-13492D01*
X31871Y-13571D01*
X32083Y-14424D01*
X32131Y-14489D01*
X32139Y-14569D01*
X32550Y-15346D01*
X32612Y-15397D01*
X32638Y-15473D01*
X33224Y-16128D01*
X33297Y-16162D01*
X33341Y-16230D01*
X34067Y-16725D01*
X34146Y-16741D01*
X34205Y-16796D01*
X35029Y-17101D01*
X35109Y-17098D01*
X35180Y-17137D01*
X35616Y-17186D01*
X35653Y-17176D01*
X35688Y-17190D01*
X43374D01*
X43374Y-17190D01*
X43409Y-17176D01*
X43446Y-17186D01*
X43882Y-17137D01*
X43952Y-17098D01*
X44033Y-17101D01*
X44855Y-16794D01*
X44914Y-16740D01*
X44993Y-16723D01*
X45718Y-16228D01*
X45762Y-16161D01*
X45834Y-16126D01*
X46419Y-15471D01*
X46445Y-15395D01*
X46507Y-15344D01*
X46917Y-14567D01*
X46924Y-14487D01*
X46972Y-14423D01*
X47183Y-13570D01*
X47171Y-13491D01*
X47202Y-13417D01*
Y-12539D01*
X47171Y-12465D01*
X47183Y-12385D01*
X46972Y-11533D01*
X46924Y-11468D01*
X46917Y-11388D01*
X46507Y-10612D01*
X46445Y-10561D01*
X46419Y-10485D01*
X45834Y-9830D01*
X45762Y-9795D01*
X45718Y-9728D01*
X44993Y-9233D01*
X44914Y-9216D01*
X44855Y-9161D01*
X44033Y-8855D01*
X43952Y-8858D01*
X43882Y-8819D01*
X43446Y-8769D01*
X43426Y-8775D01*
X43382Y-8757D01*
D02*
G37*
%LPD*%
G36*
X40621Y109533D02*
X40840Y109084D01*
X40811Y109046D01*
X40295Y107800D01*
X40119Y106465D01*
X40295Y105128D01*
X40811Y103883D01*
X41631Y102814D01*
X42701Y101994D01*
X43946Y101478D01*
X45282Y101302D01*
X46618Y101478D01*
X47863Y101994D01*
X48932Y102814D01*
X49752Y103883D01*
X50268Y105128D01*
X50444Y106465D01*
X50268Y107800D01*
X49793Y108947D01*
X50007Y109445D01*
X52402Y109422D01*
X63496Y104285D01*
X64659Y103077D01*
X64372Y102655D01*
X63658Y102951D01*
X62476Y103106D01*
X61294Y102951D01*
X60193Y102495D01*
X59247Y101769D01*
X58521Y100823D01*
X58065Y99722D01*
X57910Y98540D01*
X58065Y97358D01*
X58521Y96257D01*
X59247Y95311D01*
X60193Y94585D01*
X61294Y94129D01*
X62476Y93973D01*
X63658Y94129D01*
X64759Y94585D01*
X65705Y95311D01*
X66431Y96257D01*
X66887Y97358D01*
X67043Y98540D01*
X66887Y99722D01*
X66653Y100287D01*
X67079Y100565D01*
X71331Y96151D01*
X71092Y95678D01*
X70410Y95768D01*
X69074Y95592D01*
X67829Y95077D01*
X66760Y94256D01*
X65939Y93187D01*
X65424Y91942D01*
X65248Y90606D01*
X65424Y89270D01*
X65939Y88025D01*
X66760Y86956D01*
X67829Y86135D01*
X69074Y85619D01*
X70410Y85444D01*
X71746Y85619D01*
X72991Y86135D01*
X74060Y86956D01*
X74881Y88025D01*
X75397Y89270D01*
X75572Y90606D01*
X75503Y91135D01*
X75953Y91352D01*
X76917Y90352D01*
X78650Y87757D01*
X82377Y76041D01*
X82375Y76038D01*
X82375Y76038D01*
X82511Y74656D01*
X82687Y69283D01*
X82511Y63910D01*
X82487Y63669D01*
X81978Y63593D01*
X81625Y64445D01*
X80805Y65514D01*
X79735Y66334D01*
X78490Y66850D01*
X77154Y67026D01*
X75818Y66850D01*
X74573Y66334D01*
X73504Y65514D01*
X72684Y64445D01*
X72168Y63200D01*
X71992Y61864D01*
X72168Y60528D01*
X72684Y59283D01*
X73504Y58214D01*
X74573Y57393D01*
X75818Y56877D01*
X77154Y56701D01*
X78490Y56877D01*
X79735Y57393D01*
X80805Y58214D01*
X81542Y59175D01*
X82028Y59002D01*
X81984Y58561D01*
X81109Y53257D01*
X79888Y48022D01*
X78328Y42878D01*
X76434Y37847D01*
X74216Y32951D01*
X71682Y28210D01*
X68843Y23645D01*
X65712Y19276D01*
X62955Y15916D01*
X62379Y15801D01*
X61663Y15323D01*
X61184Y14607D01*
X61016Y13762D01*
X61018Y13750D01*
X58627Y11197D01*
X57698Y10327D01*
X57600Y10346D01*
X56755Y10178D01*
X56039Y9700D01*
X55561Y8983D01*
X55400Y8174D01*
X54704Y7523D01*
X50878Y4383D01*
X50416Y4321D01*
X50386Y4322D01*
X50111Y4780D01*
X49996Y5651D01*
X49481Y6896D01*
X48660Y7965D01*
X47591Y8786D01*
X46346Y9301D01*
X45010Y9477D01*
X43674Y9301D01*
X42429Y8786D01*
X41360Y7965D01*
X40539Y6896D01*
X40024Y5651D01*
X39848Y4315D01*
X39883Y4048D01*
X39544Y3680D01*
X38649Y3722D01*
X38329Y4106D01*
X38356Y4315D01*
X38201Y5497D01*
X37744Y6598D01*
X37019Y7544D01*
X36073Y8270D01*
X34971Y8726D01*
X33790Y8882D01*
X32608Y8726D01*
X31506Y8270D01*
X30560Y7544D01*
X30110Y6956D01*
X29457Y6928D01*
X25609Y11117D01*
X25758Y15146D01*
X26235Y15645D01*
X27970D01*
X28120Y15675D01*
X28270Y15703D01*
X28273Y15705D01*
X28277Y15706D01*
X28404Y15791D01*
X28532Y15874D01*
X28534Y15878D01*
X28537Y15880D01*
X28622Y16007D01*
X28708Y16133D01*
X33411Y27178D01*
X33931Y27124D01*
X33956Y26997D01*
X34304Y26476D01*
X34825Y26128D01*
X35440Y26006D01*
X36054Y26128D01*
X36575Y26476D01*
X36923Y26997D01*
X37045Y27612D01*
X36923Y28226D01*
X36575Y28747D01*
X36054Y29095D01*
X35440Y29217D01*
X34825Y29095D01*
X34749Y29044D01*
X34347Y29377D01*
X35959Y33162D01*
X36438Y33305D01*
X36521Y33249D01*
X37366Y33081D01*
X38211Y33249D01*
X38927Y33728D01*
X39406Y34444D01*
X39574Y35289D01*
X39406Y36134D01*
X38927Y36850D01*
X38211Y37329D01*
X38159Y37339D01*
X37925Y37781D01*
X39085Y40505D01*
X51322D01*
X51639Y40119D01*
X51599Y39915D01*
X51752Y39147D01*
X52187Y38496D01*
X52838Y38061D01*
X53606Y37908D01*
X54374Y38061D01*
X55025Y38496D01*
X55460Y39147D01*
X55613Y39915D01*
X55523Y40366D01*
X55657Y40566D01*
X55918Y40740D01*
X56431Y41254D01*
X56605Y41514D01*
X56666Y41822D01*
X56666Y41822D01*
Y50809D01*
X57166Y51168D01*
X57487Y51105D01*
X58102Y51227D01*
X58622Y51575D01*
X58970Y52096D01*
X59093Y52710D01*
X58970Y53325D01*
X58622Y53846D01*
X58102Y54194D01*
X57487Y54316D01*
X57166Y54252D01*
X56666Y54611D01*
Y73984D01*
X57070Y74388D01*
X57141Y74493D01*
X57219Y74593D01*
X57227Y74623D01*
X57245Y74649D01*
X57269Y74773D01*
X57303Y74894D01*
X57300Y74925D01*
X57306Y74956D01*
X57281Y75080D01*
X57266Y75205D01*
X57251Y75232D01*
X57245Y75263D01*
X57174Y75368D01*
X57113Y75478D01*
X57088Y75498D01*
X57070Y75524D01*
X56966Y75594D01*
X56866Y75672D01*
X56836Y75680D01*
X56810Y75698D01*
X56686Y75722D01*
X56565Y75756D01*
X52215Y76092D01*
X52145Y82968D01*
X52478Y83112D01*
X52643Y83148D01*
X53132Y82821D01*
X53747Y82699D01*
X54361Y82821D01*
X54882Y83169D01*
X55230Y83690D01*
X55353Y84305D01*
X55230Y84919D01*
X54882Y85440D01*
X54361Y85788D01*
X53747Y85910D01*
X53132Y85788D01*
X52612Y85440D01*
X52118Y85601D01*
X52042Y92996D01*
X52010Y93147D01*
X51979Y93299D01*
X51978Y93300D01*
X51977Y93303D01*
X51890Y93430D01*
X51804Y93558D01*
X51802Y93559D01*
X51801Y93561D01*
X51671Y93646D01*
X51542Y93731D01*
X51540Y93731D01*
X51539Y93733D01*
X51386Y93761D01*
X51235Y93791D01*
X37991Y93723D01*
X37847Y93694D01*
X37702Y93668D01*
X37694Y93663D01*
X37684Y93660D01*
X37562Y93578D01*
X37438Y93499D01*
X18143Y74915D01*
X2114Y78750D01*
X1867Y79185D01*
X2612Y81590D01*
X4751Y87552D01*
X5245Y87629D01*
X5438Y87377D01*
X6384Y86651D01*
X7486Y86195D01*
X8668Y86039D01*
X9849Y86195D01*
X10951Y86651D01*
X11897Y87377D01*
X12622Y88323D01*
X13079Y89424D01*
X13234Y90606D01*
X13079Y91788D01*
X12622Y92889D01*
X11897Y93835D01*
X10951Y94561D01*
X10732Y94651D01*
X10636Y95142D01*
X11619Y96112D01*
X12047Y96025D01*
X12150Y95934D01*
X12951Y94890D01*
X14020Y94069D01*
X15266Y93554D01*
X16602Y93378D01*
X17938Y93554D01*
X19183Y94069D01*
X20252Y94890D01*
X21072Y95959D01*
X21588Y97204D01*
X21764Y98540D01*
X21588Y99876D01*
X21072Y101121D01*
X20252Y102190D01*
X19259Y102952D01*
X19098Y103495D01*
X19815Y104202D01*
X28428Y108045D01*
X29463Y108382D01*
X29803Y108015D01*
X29650Y107646D01*
X29495Y106465D01*
X29650Y105282D01*
X30106Y104181D01*
X30832Y103235D01*
X31778Y102510D01*
X32879Y102053D01*
X34061Y101898D01*
X35243Y102053D01*
X36345Y102510D01*
X37290Y103235D01*
X38016Y104181D01*
X38472Y105282D01*
X38628Y106465D01*
X38472Y107646D01*
X38016Y108748D01*
X37738Y109111D01*
X37961Y109558D01*
X40621Y109533D01*
D02*
G37*
%LPC*%
G36*
X12999Y86878D02*
X12385Y86756D01*
X11863Y86408D01*
X11515Y85887D01*
X11393Y85272D01*
X11515Y84658D01*
X11863Y84137D01*
X12385Y83789D01*
X12999Y83667D01*
X13613Y83789D01*
X14134Y84137D01*
X14482Y84658D01*
X14605Y85272D01*
X14482Y85887D01*
X14134Y86408D01*
X13613Y86756D01*
X12999Y86878D01*
D02*
G37*
G36*
X77154Y77651D02*
X75972Y77495D01*
X74871Y77039D01*
X73925Y76313D01*
X73199Y75368D01*
X72743Y74266D01*
X72588Y73084D01*
X72743Y71902D01*
X73199Y70801D01*
X73925Y69855D01*
X74871Y69129D01*
X75972Y68673D01*
X77154Y68518D01*
X78336Y68673D01*
X79438Y69129D01*
X80383Y69855D01*
X81109Y70801D01*
X81565Y71902D01*
X81721Y73084D01*
X81565Y74266D01*
X81109Y75368D01*
X80383Y76313D01*
X79438Y77039D01*
X78336Y77495D01*
X77154Y77651D01*
D02*
G37*
G36*
X69298Y60910D02*
X68684Y60788D01*
X68163Y60440D01*
X67815Y59919D01*
X67693Y59305D01*
X67815Y58690D01*
X68163Y58169D01*
X68684Y57821D01*
X69298Y57699D01*
X69913Y57821D01*
X70433Y58169D01*
X70782Y58690D01*
X70904Y59305D01*
X70782Y59919D01*
X70433Y60440D01*
X69913Y60788D01*
X69298Y60910D01*
D02*
G37*
G36*
X45942Y26912D02*
X45327Y26789D01*
X44807Y26441D01*
X44458Y25920D01*
X44336Y25306D01*
X44458Y24691D01*
X44807Y24171D01*
X45327Y23822D01*
X45942Y23700D01*
X46556Y23822D01*
X47077Y24171D01*
X47425Y24691D01*
X47548Y25306D01*
X47425Y25920D01*
X47077Y26441D01*
X46556Y26789D01*
X45942Y26912D01*
D02*
G37*
%LPD*%
D22*
X2071Y73255D02*
D03*
X16602Y98540D02*
D03*
X45282Y106465D02*
D03*
X70410Y90606D02*
D03*
X45010Y4315D02*
D03*
X77154Y61864D02*
D03*
D26*
X57600Y8138D02*
D03*
X63224Y13762D02*
D03*
X37366Y35289D02*
D03*
D59*
X58928Y57966D02*
D03*
X16621Y68164D02*
D03*
X21635Y45722D02*
D03*
X25966D02*
D03*
X21635Y41391D02*
D03*
X25966D02*
D03*
X35440Y27612D02*
D03*
X45942Y25306D02*
D03*
X40656Y38104D02*
D03*
X29987Y12454D02*
D03*
X64482Y70820D02*
D03*
X56306Y90338D02*
D03*
X47352Y84087D02*
D03*
X52643Y104482D02*
D03*
X12999Y85272D02*
D03*
X21312Y79457D02*
D03*
X5269Y80958D02*
D03*
X9948Y42572D02*
D03*
X50302Y50348D02*
D03*
X53747Y84305D02*
D03*
X50007Y58025D02*
D03*
X57487Y52710D02*
D03*
X29534Y59108D02*
D03*
X28747Y30466D02*
D03*
X31897Y63832D02*
D03*
X69298Y59305D02*
D03*
X29141Y70033D02*
D03*
X35145Y80958D02*
D03*
X20578Y27120D02*
D03*
X17773Y58320D02*
D03*
X16641Y30860D02*
D03*
X9751Y47789D02*
D03*
X28747Y25840D02*
D03*
D60*
X2071Y62034D02*
D03*
X8668Y90606D02*
D03*
X34061Y106465D02*
D03*
X62476Y98540D02*
D03*
X33790Y4315D02*
D03*
X77154Y73084D02*
D03*
D61*
X17217Y12454D02*
D03*
X14208Y16447D02*
D03*
X11199Y20441D02*
D03*
D62*
X53606Y39915D02*
D03*
D63*
X22448Y64127D02*
D03*
M02*
